<svg xmlns="http://www.w3.org/2000/svg" width="78.199" height="78.199" viewBox="0 0 78.199 78.199"><defs><style>.a{fill:#1da9f7;}</style></defs><path class="a" d="M74.289,0H3.91A3.91,3.91,0,0,0,0,3.91V61.256a3.91,3.91,0,0,0,3.91,3.91H26.927L23.8,75.592H20.853a1.3,1.3,0,1,0,0,2.607H57.346a1.3,1.3,0,1,0,0-2.607H54.4L51.273,65.166H74.289a3.91,3.91,0,0,0,3.91-3.91V3.91A3.91,3.91,0,0,0,74.289,0ZM51.69,75.592H26.509l3.128-10.427H48.562Zm22.6-13.033H3.91a1.3,1.3,0,0,1-1.3-1.3V56.043H7.82a1.3,1.3,0,1,0,0-2.607H2.607V3.91a1.3,1.3,0,0,1,1.3-1.3H74.289a1.3,1.3,0,0,1,1.3,1.3V53.436h-8a4.953,4.953,0,0,0-.547-3.91h.73a1.3,1.3,0,0,0,0-2.607H42.605L35.111,26.914a1.3,1.3,0,0,0-1.225-.847H28.673a1.3,1.3,0,1,0,0,2.607h4.314l7.494,20.006a1.3,1.3,0,0,0,.717.73,5,5,0,0,0-.613,4.027H13.033a1.3,1.3,0,1,0,0,2.607H42.2a5.135,5.135,0,0,0,6.829,0H59.145a5.135,5.135,0,0,0,6.829,0h9.618v5.213a1.3,1.3,0,0,1-1.3,1.3ZM43.009,52.133a2.607,2.607,0,1,1,2.607,2.607A2.607,2.607,0,0,1,43.009,52.133Zm7.09-2.607h7.976a4.953,4.953,0,0,0-.547,3.91H50.647a4.953,4.953,0,0,0-.547-3.91Zm9.853,2.607a2.607,2.607,0,1,1,2.607,2.607A2.607,2.607,0,0,1,59.953,52.133Z"/><path class="a" d="M7.607,21.943h19.55a2.607,2.607,0,0,0,2.607-2.607V7.607A2.607,2.607,0,0,0,27.156,5H7.607A2.607,2.607,0,0,0,5,7.607v11.73A2.607,2.607,0,0,0,7.607,21.943Zm0-14.336h19.55v11.73H7.607Z" transform="translate(1.517 1.517)"/><path class="a" d="M35.144,36.882a2.607,2.607,0,0,0,2.437,1.668H57.8a2.607,2.607,0,0,0,2.541-2.02l3.31-14.336A2.607,2.607,0,0,0,61.106,19H32.068a2.607,2.607,0,0,0-2.437,3.545ZM61.106,21.607,57.8,35.943H37.581L32.068,21.607Z" transform="translate(8.934 5.763)"/><path class="a" d="M6.3,22.607H19.336a1.3,1.3,0,1,0,0-2.607H6.3a1.3,1.3,0,1,0,0,2.607Z" transform="translate(1.517 6.066)"/><path class="a" d="M6.3,27.607H27.156a1.3,1.3,0,1,0,0-2.607H6.3a1.3,1.3,0,1,0,0,2.607Z" transform="translate(1.517 7.583)"/><path class="a" d="M6.3,32.607H27.156a1.3,1.3,0,0,0,0-2.607H6.3a1.3,1.3,0,0,0,0,2.607Z" transform="translate(1.517 9.1)"/><path class="a" d="M28.46,36.3a1.3,1.3,0,0,0-1.3-1.3H6.3a1.3,1.3,0,1,0,0,2.607H27.156A1.3,1.3,0,0,0,28.46,36.3Z" transform="translate(1.517 10.616)"/><path class="a" d="M43.5,20.448a1.3,1.3,0,0,0,2.033,0l5.213-6.517a1.3,1.3,0,0,0-1.017-2.111h-3.91V5.3a1.3,1.3,0,0,0-2.607,0V11.82H39.3a1.3,1.3,0,0,0-1.017,2.111Zm3.519-6.021-2.5,3.128-2.5-3.128Z" transform="translate(11.527 1.213)"/><path class="a" d="M54.55,25.607a1.3,1.3,0,1,0,0-2.607H36.3a1.3,1.3,0,0,0,0,2.607Z" transform="translate(10.616 6.976)"/><path class="a" d="M52.64,27H38.3a1.3,1.3,0,1,0,0,2.607H52.64a1.3,1.3,0,0,0,0-2.607Z" transform="translate(11.223 8.19)"/></svg>