<svg xmlns="http://www.w3.org/2000/svg" width="168.877" height="326.001" viewBox="0 0 168.877 326.001">
  <g id="Group_1521" data-name="Group 1521" transform="translate(-551.735 103.552)">
    <g id="Group_1517" data-name="Group 1517" transform="translate(551.735 -103.552)">
      <path id="Path_168" data-name="Path 168" d="M636.174,222.449a84.533,84.533,0,0,1-84.439-84.439V-103.552h1.11V138.01a83.329,83.329,0,1,0,166.658,0V-103.552h1.11V138.01A84.534,84.534,0,0,1,636.174,222.449Z" transform="translate(-551.735 103.552)" fill="rgba(0,0,0,0.1)"/>
    </g>
    <g id="Group_1518" data-name="Group 1518" transform="translate(563.965 -103.552)">
      <path id="Path_169" data-name="Path 169" d="M633.111,210.217A72.29,72.29,0,0,1,560.9,138.01V-103.552h1.11V138.01a71.1,71.1,0,0,0,142.2,0V-103.552h1.11V138.01A72.289,72.289,0,0,1,633.111,210.217Z" transform="translate(-560.903 103.552)" fill="rgba(0,0,0,0.1)"/>
    </g>
    <g id="Group_1519" data-name="Group 1519" transform="translate(576.197 -103.552)">
      <path id="Path_170" data-name="Path 170" d="M630.049,197.987a60.045,60.045,0,0,1-59.977-59.977V-103.552h1.11V138.01a58.866,58.866,0,1,0,117.733,0V-103.552h1.11V138.01A60.044,60.044,0,0,1,630.049,197.987Z" transform="translate(-570.072 103.552)" fill="rgba(0,0,0,0.1)"/>
    </g>
    <g id="Group_1520" data-name="Group 1520" transform="translate(588.428 -103.552)">
      <path id="Path_171" data-name="Path 171" d="M626.986,185.756a47.8,47.8,0,0,1-47.745-47.745V-103.552h1.11V138.01a46.635,46.635,0,1,0,93.27,0V-103.552h1.11V138.01A47.8,47.8,0,0,1,626.986,185.756Z" transform="translate(-579.241 103.552)" fill="rgba(0,0,0,0.1)"/>
    </g>
  </g>
</svg>
