<svg xmlns="http://www.w3.org/2000/svg" width="80" height="80" viewBox="0 0 80 80"><defs><style>.a{fill:#e95557;}</style></defs><g transform="translate(0)"><path class="a" d="M45.335,35.466A1.333,1.333,0,1,1,44,34.133,1.333,1.333,0,0,1,45.335,35.466Zm0,0" transform="translate(-36.001 -28.8)"/><path class="a" d="M79.467,35.466a1.333,1.333,0,1,1-1.334-1.334A1.333,1.333,0,0,1,79.467,35.466Zm0,0" transform="translate(-64.801 -28.8)"/><path class="a" d="M113.6,35.466a1.333,1.333,0,1,1-1.333-1.334A1.333,1.333,0,0,1,113.6,35.466Zm0,0" transform="translate(-93.6 -28.8)"/><path class="a" d="M352.534,35.466a1.333,1.333,0,1,1-1.334-1.334A1.333,1.333,0,0,1,352.534,35.466Zm0,0" transform="translate(-295.201 -28.8)"/><path class="a" d="M82.5,238.271q1.229.116,2.435.116a25.085,25.085,0,0,0,23.937-17.43,4,4,0,0,0-3.8-5.236h-.372a11.867,11.867,0,0,0-6.266,1.9,5.265,5.265,0,0,1-6.8-1.158,5.4,5.4,0,0,1-1.119-4.484,5.29,5.29,0,0,1,4.1-4.147,5.2,5.2,0,0,1,3.765.624,12.134,12.134,0,0,0,6.323,1.932h.366a4,4,0,0,0,3.8-5.243A25.135,25.135,0,0,0,66.2,196.107a25.546,25.546,0,0,0-6.308,19.835A25.26,25.26,0,0,0,82.5,238.271ZM68.188,197.888a22.467,22.467,0,0,1,38.141,8.084,1.333,1.333,0,0,1-1.264,1.749H104.7a9.483,9.483,0,0,1-4.966-1.56,7.949,7.949,0,0,0-11.849,5.314,8.069,8.069,0,0,0,1.683,6.684,7.931,7.931,0,0,0,10.248,1.733,9.156,9.156,0,0,1,4.883-1.505h.369a1.334,1.334,0,0,1,1.264,1.744,22.554,22.554,0,1,1-38.141-22.244Zm0,0" transform="translate(-50.399 -158.388)"/><path class="a" d="M100.241,329.333a4.667,4.667,0,1,0-4.667-4.667A4.667,4.667,0,0,0,100.241,329.333Zm0-6.667a2,2,0,1,1-2,2A2,2,0,0,1,100.241,322.666Zm0,0" transform="translate(-80.641 -270)"/><path class="a" d="M131.049,393.912a4.666,4.666,0,1,0,6.6,0A4.666,4.666,0,0,0,131.049,393.912Zm4.714,4.714a2,2,0,1,1,.587-1.415A2,2,0,0,1,135.763,398.627Zm0,0" transform="translate(-109.419 -331.212)"/><path class="a" d="M211.175,427.466a4.667,4.667,0,1,0-4.667-4.667A4.666,4.666,0,0,0,211.175,427.466Zm0-6.667a2,2,0,1,1-1.414.586A2,2,0,0,1,211.175,420.8Zm0,0" transform="translate(-174.241 -352.8)"/><path class="a" d="M134.364,256.8a4.666,4.666,0,1,0-3.3-1.364,4.666,4.666,0,0,0,3.3,1.364Zm-1.414-6.078a.767.767,0,1,1-.005,0Zm0,0" transform="translate(-109.431 -208.798)"/><path class="a" d="M211.175,231.2a4.667,4.667,0,1,0-4.667-4.667A4.667,4.667,0,0,0,211.175,231.2Zm0-6.667a2,2,0,1,1-1.414.586A2,2,0,0,1,211.175,224.534Zm0,0" transform="translate(-174.241 -187.201)"/><path class="a" d="M5,55.791a1.334,1.334,0,1,0,.666-2.584,4,4,0,0,1-3-3.873v-36H61.333v36a4,4,0,0,1-4,4,1.333,1.333,0,1,0,0,2.667A6.675,6.675,0,0,0,64,49.334V6.668A6.675,6.675,0,0,0,57.333,0H6.667A6.674,6.674,0,0,0,0,6.668V49.334a6.666,6.666,0,0,0,5,6.457ZM6.667,2.667H57.333a4,4,0,0,1,4,4v4H2.666v-4a4,4,0,0,1,4-4Zm0,0" transform="translate(0 -0.001)"/><path class="a" d="M437.061,62.071v-8.55l2.616-9.156a1.192,1.192,0,0,0,.015-.187,1.376,1.376,0,0,0,.036-.178V12.9A17.476,17.476,0,0,0,437.4,4.244L435.861,1.5a3.357,3.357,0,0,0-5.593,0l-1.545,2.744a17.469,17.469,0,0,0-2.328,8.656V44a1.28,1.28,0,0,0,.036.178,1.192,1.192,0,0,0,.015.187l2.616,9.156v8.8a5.379,5.379,0,0,0-1.231,1.035,7.111,7.111,0,0,0-1.314,5.906c1.031,7.126,10.849,10.533,11.265,10.666a1.358,1.358,0,0,0,.428.071,1.333,1.333,0,0,0,1.1-2.088c-1-1.458-2.692-4.944-1.532-6.423,1.891-2.411,3.512-5.322-.716-9.417ZM429.5,45.333h7.131L434.722,52H431.4ZM429.061,12.9a14.841,14.841,0,0,1,1.985-7.349l1.542-2.744a.866.866,0,0,1,.944,0l1.544,2.744a14.855,14.855,0,0,1,1.984,7.349V42.666h-8Zm2.667,48.434V54.667h2.667v6.667Zm3.951,8.51c-1.38,1.759-1.067,4.1-.375,6.027-2.543-1.41-5.683-3.773-6.15-7a4.663,4.663,0,0,1,.68-3.761A3.641,3.641,0,0,1,432.29,64h2.933c2.858,2.757,1.849,4.065.455,5.843Zm0,0" transform="translate(-359.728)"/><path class="a" d="M462.134,128a1.333,1.333,0,0,0-1.333,1.334V144a1.333,1.333,0,1,0,2.667,0V129.334A1.333,1.333,0,0,0,462.134,128Zm0,0" transform="translate(-388.801 -108)"/><path class="a" d="M462.134,85.332a1.333,1.333,0,0,0-1.333,1.334V88a1.333,1.333,0,1,0,2.667,0V86.666A1.333,1.333,0,0,0,462.134,85.332Zm0,0" transform="translate(-388.801 -71.999)"/><path class="a" d="M83.466,118.4a1.333,1.333,0,1,0,0,2.667H84.8a2.667,2.667,0,0,0,2.667-2.667V105.065A2.667,2.667,0,0,0,84.8,102.4h-48a2.667,2.667,0,0,0-2.667,2.667V118.4a2.667,2.667,0,0,0,2.667,2.667h6.667a1.333,1.333,0,0,0,0-2.667H36.8V105.065h48V118.4Zm0,0" transform="translate(-28.8 -86.399)"/></g></svg>