<svg xmlns="http://www.w3.org/2000/svg" width="41.414" height="41.424" viewBox="0 0 41.414 41.424"><defs><style>.a{fill:#fff;}</style></defs><g transform="translate(-0.993 -0.997)"><path class="a" d="M41.2,16.9a.69.69,0,0,0,0,.98,3.119,3.119,0,0,0,1.87.69v.4a.69.69,0,1,0,1.38,0v-.4a2.208,2.208,0,0,0,2.07-2.188c0-1.9-1.677-2.112-2.678-2.236-1.242-.159-1.463-.29-1.463-.87,0-.987,2.284-1.2,2.85-.269a.7.7,0,1,0,1.208-.69A2.85,2.85,0,0,0,44.449,11.1V10.69a.69.69,0,0,0-1.38,0v.421A2.3,2.3,0,0,0,41,13.278c0,1.9,1.677,2.112,2.678,2.236,1.242.159,1.463.29,1.463.87,0,.752-.863.863-1.38.863a2.823,2.823,0,0,1-1.58-.345.69.69,0,0,0-.98,0Z" transform="translate(-12.396 -2.79)"/><path class="a" d="M15.531,14.242c1.546-1.753,2.07-1.808,2.07-3.112-.1-2.6-3.4-6.784-5.065-8.751a4.044,4.044,0,0,0-5.4-.628A40.351,40.351,0,0,0,2.226,5.94C-2.6,10.771,7.982,25.719,12.833,30.57S32.6,46.036,37.456,41.177a40.234,40.234,0,0,0,4.2-4.914,4.044,4.044,0,0,0-.628-5.4C38.63,28.8,32.846,24.283,30.8,26.333c-1.863,1.856-5.328,5.121-7.184,3.264l-9.807-9.786c-1.477-1.484.345-4,1.725-5.569Zm.566-2.588c-.393.393-.828.828-1.2,1.235A26.845,26.845,0,0,1,7.374,3.3a3.506,3.506,0,0,1,1.56-.849,2.685,2.685,0,0,1,2.553.849c3.892,4.562,5.176,7.784,4.61,8.357ZM40.106,31.916a2.664,2.664,0,0,1,.421,3.547c-.131.186-.283.38-.421.566a26.846,26.846,0,0,1-9.593-7.522c.455-.421.87-.835,1.235-1.2C32.322,26.733,35.545,28.017,40.106,31.916ZM12.833,20.785l9.786,9.786c2.022,2.022,4.782.518,6.86-1.166a28.3,28.3,0,0,0,9.765,7.729,40.219,40.219,0,0,1-2.76,3.064c-3.547,3.547-16.853-4.755-22.677-10.6S-.341,10.467,3.206,6.92A40.22,40.22,0,0,1,6.27,4.16,28.219,28.219,0,0,0,14,13.918c-1.76,2.16-3.147,4.886-1.166,6.867Z" transform="translate(0)"/><path class="a" d="M29.77,24.407a1.049,1.049,0,0,0,.973,1.456c.4,0,.124.09,5.652-3.168a.621.621,0,0,1,.511-.048,10.862,10.862,0,0,0,5.831.124A11.019,11.019,0,1,0,31.592,19.2a.573.573,0,0,1,.083.6Zm2.878-6.135a9.662,9.662,0,1,1,4.631,3.043,2.07,2.07,0,0,0-1.608.186L31.4,24.027l1.532-3.74a1.96,1.96,0,0,0-.283-2.015Z" transform="translate(-8.676 -0.02)"/><path class="a" d="M41.681,6.663a9.413,9.413,0,0,1,2.07-.283.69.69,0,0,0,0-1.38,8.35,8.35,0,0,0-2.257.3.69.69,0,0,0,.186,1.36Z" transform="translate(-12.389 -1.241)"/><path class="a" d="M35.094,11.544a6.984,6.984,0,0,1,2.07-2.816.69.69,0,1,0-.883-1.056,8.35,8.35,0,0,0-2.443,3.361.691.691,0,1,0,1.284.511Z" transform="translate(-10.163 -2.009)"/></g></svg>