<svg xmlns="http://www.w3.org/2000/svg" width="61.15" height="61.15" viewBox="0 0 61.15 61.15"><defs><style>.a{fill:#1da9f7;}.b{fill:#231f20;}</style></defs><g transform="translate(26.498 34.65)"><path class="a" d="M360.7,310.524h-3.057V291.16a1.019,1.019,0,0,0-1.854-.584L341.523,310.96a1.019,1.019,0,0,0,.835,1.6h13.249v3.057a1.019,1.019,0,0,0,2.038,0v-3.057H360.7a1.019,1.019,0,0,0,0-2.038Zm-5.1-16.131v16.131H344.315Z" transform="translate(-327.07 -290.139)"/><path class="a" d="M237.154,314.58H225.088l11.218-13.21c.025-.031.049-.062.071-.095a7.089,7.089,0,0,0-1.6-9.625,8.153,8.153,0,0,0-12.911,6.622,1.019,1.019,0,1,0,2.038,0,6.115,6.115,0,0,1,9.682-4.967,5.031,5.031,0,0,1,1.121,6.793l-12.6,14.841a1.019,1.019,0,0,0,.777,1.679h14.268a1.019,1.019,0,0,0,0-2.038Z" transform="translate(-221.866 -290.118)"/></g><path class="b" d="M27.54,54.035a1.019,1.019,0,0,0-.98-1.057h0A25.449,25.449,0,0,1,2.074,28.537H6.115a1.019,1.019,0,1,0,0-2.038H2.074A25.419,25.419,0,0,1,26.5,2.075V5.1a1.019,1.019,0,0,0,2.038,0V2.075a25.437,25.437,0,0,1,24.411,23.95l-3.975-3.975a1.019,1.019,0,0,0-1.441,1.441l5.689,5.689a1,1,0,0,0,.4.292,1.245,1.245,0,0,0,.121.029,1,1,0,0,0,.216.052h.058a1.027,1.027,0,0,0,.228-.045,1.041,1.041,0,0,0,.124-.023,1,1,0,0,0,.368-.23L60.5,23.492a1.019,1.019,0,0,0-1.441-1.441L54.99,26.121A27.474,27.474,0,0,0,27.59.014c-.025,0-.047-.014-.072-.014s-.047.013-.072.014A27.469,27.469,0,0,0,.014,27.445c0,.025-.014.047-.014.072s.013.047.014.072a27.492,27.492,0,0,0,26.47,27.426h.038A1.019,1.019,0,0,0,27.54,54.035Z"/><path class="b" d="M183.539,113.557a1.02,1.02,0,0,0-1.441,0l-10.952,10.951a3.192,3.192,0,0,0-2.6,0l-5.186-5.186a1.019,1.019,0,0,0-1.441,1.441l5.175,5.175a3.053,3.053,0,0,0,4.913,3.473h0a3.024,3.024,0,0,0,.589-3.472L183.539,115A1.02,1.02,0,0,0,183.539,113.557ZM170.567,127.97h0a1.043,1.043,0,0,1-1.441,0,1.019,1.019,0,1,1,1.441,0Z" transform="translate(-142.329 -99.732)"/></svg>