<svg xmlns="http://www.w3.org/2000/svg" width="81.9" height="81.812" viewBox="0 0 81.9 81.812"><defs><style>.a{fill:#ffbf48;}</style></defs><g transform="translate(0 -0.5)"><path class="a" d="M37.382,136.833a1.2,1.2,0,1,0,1.7-1.7l-2.911-2.911,2.911-2.91a1.2,1.2,0,0,0-1.7-1.7l-3.758,3.758a1.2,1.2,0,0,0,0,1.7Zm0,0" transform="translate(-27.951 -106.492)"/><path class="a" d="M116.192,132.223l-2.911,2.911a1.2,1.2,0,1,0,1.7,1.7l3.758-3.758a1.2,1.2,0,0,0,0-1.695l-3.758-3.758a1.2,1.2,0,1,0-1.695,1.7Zm0,0" transform="translate(-94.867 -106.489)"/><path class="a" d="M77.178,137.1a1.2,1.2,0,0,0,1.554-.677l2.952-7.516a1.2,1.2,0,1,0-2.231-.877L76.5,135.542A1.2,1.2,0,0,0,77.178,137.1Zm0,0" transform="translate(-64.194 -106.488)"/><path class="a" d="M38.714,220.612h8.075a1.2,1.2,0,0,0,0-2.4H38.714a1.2,1.2,0,0,0,0,2.4Zm0,0" transform="translate(-31.515 -182.889)"/><path class="a" d="M130.907,218.215h-14.2a1.2,1.2,0,0,0,0,2.4h14.2a1.2,1.2,0,1,0,0-2.4Zm0,0" transform="translate(-97.035 -182.889)"/><path class="a" d="M38.714,252.218h3.44a1.2,1.2,0,0,0,0-2.4h-3.44a1.2,1.2,0,0,0,0,2.4Zm0,0" transform="translate(-31.515 -209.439)"/><path class="a" d="M178.046,249.82a1.2,1.2,0,0,0,0,2.4h2.094a1.2,1.2,0,1,0,0-2.4Zm0,0" transform="translate(-148.559 -209.438)"/><path class="a" d="M98,251.019a1.2,1.2,0,0,0-1.2-1.2H86.511a1.2,1.2,0,0,0,0,2.4H96.8A1.2,1.2,0,0,0,98,251.019Zm0,0" transform="translate(-71.666 -209.439)"/><path class="a" d="M213.7,251.019a1.2,1.2,0,0,0,1.2,1.2h3.923a1.2,1.2,0,1,0,0-2.4H214.9A1.2,1.2,0,0,0,213.7,251.019Zm0,0" transform="translate(-179.519 -209.439)"/><path class="a" d="M166.6,151.675h4.138a1.2,1.2,0,1,0,0-2.4H166.6a1.2,1.2,0,1,0,0,2.4Zm0,0" transform="translate(-138.942 -124.979)"/><path class="a" d="M221.445,151.675H246.7a1.2,1.2,0,0,0,0-2.4H221.445a1.2,1.2,0,1,0,0,2.4Zm0,0" transform="translate(-185.015 -124.979)"/><path class="a" d="M301.611,182.246H291.382a1.2,1.2,0,0,0,0,2.4h10.229a1.2,1.2,0,0,0,0-2.4Zm0,0" transform="translate(-243.766 -152.674)"/><path class="a" d="M248.941,182.246h-3.516a1.2,1.2,0,0,0,0,2.4h3.516a1.2,1.2,0,0,0,0-2.4Zm0,0" transform="translate(-205.16 -152.674)"/><path class="a" d="M166.6,184.643h8.614a1.2,1.2,0,0,0,0-2.4H166.6a1.2,1.2,0,1,0,0,2.4Zm0,0" transform="translate(-138.942 -152.673)"/><path class="a" d="M108.52,281.16h-8.074a1.2,1.2,0,1,0,0,2.4h8.074a1.2,1.2,0,0,0,0-2.4Zm0,0" transform="translate(-83.371 -235.765)"/><path class="a" d="M44.918,281.16h-6.2a1.2,1.2,0,0,0,0,2.4h6.2a1.2,1.2,0,0,0,0-2.4Zm0,0" transform="translate(-31.515 -235.765)"/><path class="a" d="M187.036,281.16H176.488a1.2,1.2,0,1,0,0,2.4h10.548a1.2,1.2,0,1,0,0-2.4Zm0,0" transform="translate(-147.25 -235.765)"/><path class="a" d="M301.314,242.668h-5.768a1.2,1.2,0,0,0,0,2.4h5.768a1.2,1.2,0,0,0,0-2.4Zm0,0" transform="translate(-247.263 -203.43)"/><path class="a" d="M394.175,245.065h8.142a1.2,1.2,0,1,0,0-2.4h-8.142a1.2,1.2,0,0,0,0,2.4Zm0,0" transform="translate(-330.116 -203.43)"/><path class="a" d="M358.921,242.668h-1.866a1.2,1.2,0,1,0,0,2.4h1.866a1.2,1.2,0,0,0,0-2.4Zm0,0" transform="translate(-298.933 -203.43)"/><path class="a" d="M295.546,326.726h5.768a1.2,1.2,0,0,0,0-2.4h-5.768a1.2,1.2,0,1,0,0,2.4Zm0,0" transform="translate(-247.264 -272.029)"/><path class="a" d="M394.175,326.726h8.142a1.2,1.2,0,1,0,0-2.4h-8.142a1.2,1.2,0,1,0,0,2.4Zm0,0" transform="translate(-330.116 -272.029)"/><path class="a" d="M357.058,326.726h1.866a1.2,1.2,0,1,0,0-2.4h-1.866a1.2,1.2,0,0,0,0,2.4Zm0,0" transform="translate(-298.936 -272.029)"/><path class="a" d="M301.314,405.988h-5.768a1.2,1.2,0,0,0,0,2.4h5.768a1.2,1.2,0,0,0,0-2.4Zm0,0" transform="translate(-247.263 -340.625)"/><path class="a" d="M402.317,405.988h-8.142a1.2,1.2,0,0,0,0,2.4h8.142a1.2,1.2,0,1,0,0-2.4Zm0,0" transform="translate(-330.116 -340.625)"/><path class="a" d="M358.921,405.988h-1.866a1.2,1.2,0,1,0,0,2.4h1.866a1.2,1.2,0,0,0,0-2.4Zm0,0" transform="translate(-298.933 -340.625)"/><path class="a" d="M76.625.5H5.275A5.282,5.282,0,0,0,0,5.776v58a5.281,5.281,0,0,0,5.276,5.275H9.786a1.2,1.2,0,1,0,0-2.4H5.275A2.881,2.881,0,0,1,2.4,63.772V59.225H46.066v2.066h-.95a2.36,2.36,0,0,0-2.358,2.358v3H17.074a1.2,1.2,0,0,0,0,2.4H28.6v4.3H24.979A4.383,4.383,0,0,0,20.6,77.725v2.589a2,2,0,0,0,2,2H59.21a2,2,0,0,0,2-2V77.725a4.383,4.383,0,0,0-4.378-4.378H53.21V71.831H75.369a2.36,2.36,0,0,0,2.357-2.358v-.564a5.283,5.283,0,0,0,4.083-5.137l.091-58A5.28,5.28,0,0,0,76.625.5ZM45.156,56.372V50.626H75.329v5.746Zm3.307-8.143V45.707H72.021v2.522Zm23.558,10.54v2.523H48.463V58.768ZM31,69.047H42.758v.427a2.36,2.36,0,0,0,2.358,2.357h5.7v1.515H31Zm25.834,6.7a1.983,1.983,0,0,1,1.981,1.981v2.19H23v-2.19a1.984,1.984,0,0,1,1.981-1.981Zm18.5-6.31H45.156V63.689H75.329Zm4.083-5.661a2.879,2.879,0,0,1-1.685,2.616v-2.74a2.36,2.36,0,0,0-2.358-2.357h-.95V59.225h4.993Zm0-6.944H77.687c.024-.136.039-6.242.039-6.242a2.36,2.36,0,0,0-2.358-2.358h-.95V45.707h.95a2.361,2.361,0,0,0,2.358-2.358V37.524a2.361,2.361,0,0,0-2.358-2.358H68.6a1.2,1.2,0,0,0,0,2.4h6.73v5.746H45.155V37.563H61.14a1.2,1.2,0,0,0,0-2.4H45.115a2.36,2.36,0,0,0-2.358,2.358v5.825a2.36,2.36,0,0,0,2.358,2.358h.95v2.522h-.95a2.36,2.36,0,0,0-2.358,2.358s.015,6.107.039,6.242H2.4V16.8H79.412Zm0-42.421H2.485V5.775A2.881,2.881,0,0,1,5.363,2.9H76.534a2.881,2.881,0,0,1,2.878,2.878Zm0,0" transform="translate(0 0)"/><path class="a" d="M36.791,29.262a3.518,3.518,0,1,0,3.518,3.517A3.521,3.521,0,0,0,36.791,29.262Zm0,4.638a1.12,1.12,0,1,1,1.12-1.12A1.122,1.122,0,0,1,36.791,33.9Zm0,0" transform="translate(-27.951 -24.161)"/><path class="a" d="M92.776,29.262a3.518,3.518,0,1,0,3.517,3.517A3.522,3.522,0,0,0,92.776,29.262Zm0,4.638a1.12,1.12,0,1,1,1.12-1.12A1.121,1.121,0,0,1,92.776,33.9Zm0,0" transform="translate(-74.98 -24.161)"/><path class="a" d="M148.763,29.262a3.518,3.518,0,1,0,3.518,3.517A3.521,3.521,0,0,0,148.763,29.262Zm0,4.638a1.12,1.12,0,1,1,1.12-1.12A1.122,1.122,0,0,1,148.763,33.9Zm0,0" transform="translate(-122.012 -24.161)"/></g></svg>