<svg xmlns="http://www.w3.org/2000/svg" width="46.691" height="44.858" viewBox="0 0 46.691 44.858"><defs><style>.a{fill:#fff;}</style></defs><g transform="translate(-5 -14.851)"><path class="a" d="M76.2,160.448h0l-8.669-11.3a.558.558,0,0,0-.443-.218H44.478a.558.558,0,0,0-.443.218l-8.669,11.3h0a.553.553,0,0,0,.047.734l19.973,19.973a.558.558,0,0,0,.789,0l19.973-19.973a.553.553,0,0,0,.047-.734Zm-9.791-10.4L64.528,159.5l-7.583-9.457Zm-2.727,10.182H47.885l7.9-9.848Zm-9.059-10.182L47.036,159.5l-1.878-9.457Zm-10.448.759,1.872,9.423h-9.1Zm-7.015,10.539h9.206l7.643,16.849Zm18.626,18.064-8.194-18.064H63.976Zm1.776-1.215L65.2,161.345h9.206Zm7.963-17.965,1.872-9.423,7.23,9.423Z" transform="translate(-27.437 -121.61)"/><path class="a" d="M135.207,21.473l2.949.429,1.319,2.673a.558.558,0,0,0,1,0l1.319-2.673,2.949-.429a.558.558,0,0,0,.309-.952l-2.134-2.08.5-2.937a.558.558,0,0,0-.809-.588L139.975,16.3l-2.638-1.387a.558.558,0,0,0-.81.588l.5,2.937-2.134,2.08a.558.558,0,0,0,.309.952Zm2.814-2.438a.558.558,0,0,0,.161-.494l-.363-2.112,1.9,1a.558.558,0,0,0,.519,0l1.9-1-.363,2.112a.558.558,0,0,0,.16.494l1.535,1.5-2.121.308a.558.558,0,0,0-.42.305l-.949,1.922-.949-1.922a.558.558,0,0,0-.42-.305l-2.121-.308Z" transform="translate(-117.663 -0.001)"/><path class="a" d="M9.746,75.474a.558.558,0,0,0,.5.311h0a.558.558,0,0,0,.5-.311L12.066,72.8l2.949-.429a.558.558,0,0,0,.309-.952l-2.134-2.08.5-2.937a.558.558,0,0,0-.81-.588L10.246,67.2,7.609,65.816a.558.558,0,0,0-.81.588l.5,2.937-2.134,2.08a.558.558,0,0,0,.309.952l2.949.429ZM8.292,69.936a.558.558,0,0,0,.16-.494L8.09,67.33l1.9,1a.557.557,0,0,0,.519,0l1.9-1-.362,2.112a.558.558,0,0,0,.161.494l1.535,1.5-2.121.308a.558.558,0,0,0-.42.305l-.949,1.921L9.3,72.045a.558.558,0,0,0-.42-.305l-2.121-.308Z" transform="translate(0 -46.167)"/><path class="a" d="M264.935,21.472l2.949.429,1.319,2.673a.558.558,0,0,0,1,0l1.319-2.673,2.949-.429a.558.558,0,0,0,.309-.952l-2.134-2.08.5-2.937a.558.558,0,0,0-.809-.588L269.7,16.3l-2.638-1.387a.558.558,0,0,0-.81.588l.5,2.937-2.134,2.08a.558.558,0,0,0,.309.952Zm2.814-2.438a.558.558,0,0,0,.16-.494l-.363-2.112,1.9,1a.558.558,0,0,0,.519,0l1.9-1-.362,2.112a.558.558,0,0,0,.161.494l1.535,1.5-2.121.308a.558.558,0,0,0-.42.305l-.949,1.922-.949-1.922a.558.558,0,0,0-.42-.305l-2.121-.308Z" transform="translate(-235.325)"/><path class="a" d="M402.378,69.341l.5-2.937a.558.558,0,0,0-.81-.588L399.434,67.2,396.8,65.816a.558.558,0,0,0-.81.588l.5,2.937-2.134,2.08a.558.558,0,0,0,.309.952l2.949.429,1.319,2.672a.558.558,0,0,0,1,0l1.319-2.672,2.949-.429a.558.558,0,0,0,.309-.952Zm-1.575,2.4a.558.558,0,0,0-.42.305l-.949,1.921-.949-1.921a.558.558,0,0,0-.42-.305l-2.121-.308,1.535-1.5a.558.558,0,0,0,.161-.494l-.362-2.112,1.9,1a.557.557,0,0,0,.519,0l1.9-1-.362,2.112a.558.558,0,0,0,.16.494l1.535,1.5Z" transform="translate(-352.99 -46.167)"/></g></svg>