<svg xmlns="http://www.w3.org/2000/svg" width="190.132" height="44.657" viewBox="0 0 190.132 44.657">
  <g id="Group_1556" data-name="Group 1556" transform="translate(-407.042 -353.386)">
    <rect id="Rectangle_1869" data-name="Rectangle 1869" width="3.411" height="3.411" transform="translate(407.042 353.386)" fill="rgba(0,0,0,0.1)"/>
    <rect id="Rectangle_1870" data-name="Rectangle 1870" width="3.411" height="3.411" transform="translate(407.042 374.009)" fill="rgba(0,0,0,0.1)"/>
    <rect id="Rectangle_1871" data-name="Rectangle 1871" width="3.411" height="3.411" transform="translate(407.042 394.632)" fill="rgba(0,0,0,0.1)"/>
    <rect id="Rectangle_1872" data-name="Rectangle 1872" width="3.411" height="3.411" transform="translate(425.714 353.386)" fill="rgba(0,0,0,0.1)"/>
    <rect id="Rectangle_1873" data-name="Rectangle 1873" width="3.411" height="3.411" transform="translate(425.714 374.009)" fill="rgba(0,0,0,0.1)"/>
    <rect id="Rectangle_1874" data-name="Rectangle 1874" width="3.411" height="3.411" transform="translate(425.714 394.632)" fill="rgba(0,0,0,0.1)"/>
    <rect id="Rectangle_1875" data-name="Rectangle 1875" width="3.411" height="3.411" transform="translate(444.386 353.386)" fill="rgba(0,0,0,0.1)"/>
    <rect id="Rectangle_1876" data-name="Rectangle 1876" width="3.411" height="3.411" transform="translate(444.386 374.009)" fill="rgba(0,0,0,0.1)"/>
    <rect id="Rectangle_1877" data-name="Rectangle 1877" width="3.411" height="3.411" transform="translate(444.386 394.632)" fill="rgba(0,0,0,0.1)"/>
    <rect id="Rectangle_1878" data-name="Rectangle 1878" width="3.411" height="3.411" transform="translate(463.059 353.386)" fill="rgba(0,0,0,0.1)"/>
    <rect id="Rectangle_1879" data-name="Rectangle 1879" width="3.411" height="3.411" transform="translate(463.059 374.009)" fill="rgba(0,0,0,0.1)"/>
    <rect id="Rectangle_1880" data-name="Rectangle 1880" width="3.411" height="3.411" transform="translate(463.059 394.632)" fill="rgba(0,0,0,0.1)"/>
    <rect id="Rectangle_1881" data-name="Rectangle 1881" width="3.411" height="3.411" transform="translate(481.731 353.386)" fill="rgba(0,0,0,0.1)"/>
    <rect id="Rectangle_1882" data-name="Rectangle 1882" width="3.411" height="3.411" transform="translate(481.731 374.009)" fill="rgba(0,0,0,0.1)"/>
    <rect id="Rectangle_1883" data-name="Rectangle 1883" width="3.411" height="3.411" transform="translate(481.731 394.632)" fill="rgba(0,0,0,0.1)"/>
    <rect id="Rectangle_1884" data-name="Rectangle 1884" width="3.411" height="3.411" transform="translate(500.403 353.386)" fill="rgba(0,0,0,0.1)"/>
    <rect id="Rectangle_1885" data-name="Rectangle 1885" width="3.411" height="3.411" transform="translate(500.403 374.009)" fill="rgba(0,0,0,0.1)"/>
    <rect id="Rectangle_1886" data-name="Rectangle 1886" width="3.411" height="3.411" transform="translate(500.403 394.632)" fill="rgba(0,0,0,0.1)"/>
    <rect id="Rectangle_1887" data-name="Rectangle 1887" width="3.411" height="3.411" transform="translate(519.075 353.386)" fill="rgba(0,0,0,0.1)"/>
    <rect id="Rectangle_1888" data-name="Rectangle 1888" width="3.411" height="3.411" transform="translate(519.075 374.009)" fill="rgba(0,0,0,0.1)"/>
    <rect id="Rectangle_1889" data-name="Rectangle 1889" width="3.411" height="3.411" transform="translate(519.075 394.632)" fill="rgba(0,0,0,0.1)"/>
    <rect id="Rectangle_1890" data-name="Rectangle 1890" width="3.411" height="3.411" transform="translate(537.747 353.386)" fill="rgba(0,0,0,0.1)"/>
    <rect id="Rectangle_1891" data-name="Rectangle 1891" width="3.411" height="3.411" transform="translate(537.747 374.009)" fill="rgba(0,0,0,0.1)"/>
    <rect id="Rectangle_1892" data-name="Rectangle 1892" width="3.411" height="3.411" transform="translate(537.747 394.632)" fill="rgba(0,0,0,0.1)"/>
    <rect id="Rectangle_1893" data-name="Rectangle 1893" width="3.411" height="3.411" transform="translate(556.419 353.386)" fill="rgba(0,0,0,0.1)"/>
    <rect id="Rectangle_1894" data-name="Rectangle 1894" width="3.411" height="3.411" transform="translate(556.419 374.009)" fill="rgba(0,0,0,0.1)"/>
    <rect id="Rectangle_1895" data-name="Rectangle 1895" width="3.411" height="3.411" transform="translate(556.419 394.632)" fill="rgba(0,0,0,0.1)"/>
    <rect id="Rectangle_1896" data-name="Rectangle 1896" width="3.411" height="3.411" transform="translate(575.092 353.386)" fill="rgba(0,0,0,0.1)"/>
    <rect id="Rectangle_1897" data-name="Rectangle 1897" width="3.411" height="3.411" transform="translate(575.092 374.009)" fill="rgba(0,0,0,0.1)"/>
    <rect id="Rectangle_1898" data-name="Rectangle 1898" width="3.411" height="3.411" transform="translate(575.092 394.632)" fill="rgba(0,0,0,0.1)"/>
    <rect id="Rectangle_1899" data-name="Rectangle 1899" width="3.411" height="3.411" transform="translate(593.764 353.386)" fill="rgba(0,0,0,0.1)"/>
    <rect id="Rectangle_1900" data-name="Rectangle 1900" width="3.411" height="3.411" transform="translate(593.764 374.009)" fill="rgba(0,0,0,0.1)"/>
    <rect id="Rectangle_1901" data-name="Rectangle 1901" width="3.411" height="3.411" transform="translate(593.764 394.632)" fill="rgba(0,0,0,0.1)"/>
  </g>
</svg>
