<svg xmlns="http://www.w3.org/2000/svg" width="62" height="53.733" viewBox="0 0 62 53.733"><defs><style>.a{fill:#ffbf48;}</style></defs><g transform="translate(0 -0.021)"><path class="a" d="M54.1,2.5A15.647,15.647,0,0,0,42.1.426,16.251,16.251,0,0,0,31,9.59,16.252,16.252,0,0,0,19.9.426,15.646,15.646,0,0,0,7.9,2.509,16.6,16.6,0,0,0,.587,13.136c-3.552,16.577,9.638,29.974,23.167,36.99l6.772,3.513a1.035,1.035,0,0,0,.951,0l6.772-3.513c13.528-7.013,26.719-20.413,23.166-36.991A16.588,16.588,0,0,0,54.1,2.5ZM37.3,48.291,31,51.556l-6.3-3.264C11.853,41.629-.7,29.009,2.608,13.569A14.539,14.539,0,0,1,9.014,4.253,13.582,13.582,0,0,1,19.434,2.439,14.337,14.337,0,0,1,30,12.921a1.033,1.033,0,0,0,2,0A14.338,14.338,0,0,1,42.574,2.439,13.6,13.6,0,0,1,52.988,4.25a14.543,14.543,0,0,1,6.406,9.319c3.309,15.44-9.245,28.06-22.1,34.723Zm0,0" transform="translate(0 0)"/><path class="a" d="M51.938,36.483a1.033,1.033,0,0,0,.463-2.014,11.605,11.605,0,0,0-2.6-.3,12.258,12.258,0,0,0-11.743,9.847,1.033,1.033,0,0,0,2.021.433A10.18,10.18,0,0,1,49.8,36.238a9.577,9.577,0,0,1,2.136.245Zm0,0" transform="translate(-33.43 -30.016)"/><path class="a" d="M148.189,162.172a3.1,3.1,0,1,0,3.1,3.1A3.1,3.1,0,0,0,148.189,162.172Zm0,4.133a1.033,1.033,0,1,1,1.033-1.033A1.033,1.033,0,0,1,148.189,166.3Zm0,0" transform="translate(-127.521 -142.517)"/><path class="a" d="M318.857,162.172a3.1,3.1,0,1,0,3.1,3.1A3.1,3.1,0,0,0,318.857,162.172Zm0,4.133a1.033,1.033,0,1,1,1.033-1.033A1.033,1.033,0,0,1,318.857,166.3Zm0,0" transform="translate(-277.524 -142.517)"/><path class="a" d="M209.722,221.9h-12.4a1.033,1.033,0,0,0-1.033,1.033,13.465,13.465,0,0,0,1.4,5.725,6.541,6.541,0,0,0,11.655.008,13.473,13.473,0,0,0,1.408-5.733,1.033,1.033,0,0,0-1.033-1.033Zm-1.108,2.066a11.732,11.732,0,0,1-.692,2.853,12.7,12.7,0,0,0-8.8,0,11.712,11.712,0,0,1-.692-2.853Zm-1.756,4.71a4.241,4.241,0,0,1-.6.589c-.043.034-.087.063-.129.1a4.019,4.019,0,0,1-.63.382c-.035.017-.068.037-.1.053a4.13,4.13,0,0,1-.786.251c-.062.014-.126.024-.19.035a4.828,4.828,0,0,1-1.8,0c-.064-.011-.128-.022-.191-.036a4.168,4.168,0,0,1-.783-.249c-.037-.017-.072-.039-.109-.057a3.828,3.828,0,0,1-.62-.375c-.046-.035-.1-.066-.14-.1a4.318,4.318,0,0,1-.591-.582c-.014-.016-.026-.034-.039-.05a11.243,11.243,0,0,1,6.744,0c-.011.016-.023.032-.035.047Zm0,0" transform="translate(-172.522 -195.015)"/><path class="a" d="M120.734,230.833l-1.033,1.033a1.033,1.033,0,1,0,1.461,1.461l1.033-1.033a1.033,1.033,0,0,0-1.461-1.461Zm0,0" transform="translate(-104.929 -202.609)"/><path class="a" d="M154.867,230.833l-1.033,1.033a1.033,1.033,0,1,0,1.461,1.461l1.033-1.033a1.033,1.033,0,0,0-1.461-1.461Zm0,0" transform="translate(-134.929 -202.609)"/><path class="a" d="M368.812,230.833a1.033,1.033,0,0,0-1.461,1.461l1.033,1.033a1.033,1.033,0,0,0,1.461-1.461Zm0,0" transform="translate(-322.615 -202.609)"/><path class="a" d="M334.68,230.833a1.033,1.033,0,0,0-1.461,1.461l1.033,1.033a1.033,1.033,0,0,0,1.461-1.461Zm0,0" transform="translate(-292.616 -202.609)"/><path class="a" d="M36.223,146.139a1.033,1.033,0,1,1-1.033-1.033A1.033,1.033,0,0,1,36.223,146.139Zm0,0" transform="translate(-30.02 -127.517)"/></g></svg>