<svg xmlns="http://www.w3.org/2000/svg" xmlns:xlink="http://www.w3.org/1999/xlink" width="432.231" height="496.881" viewBox="0 0 432.231 496.881"><defs><style>.a{fill:url(#a);}</style><linearGradient id="a" x1="0.685" y1="0.114" x2="0.416" y2="1.047" gradientUnits="objectBoundingBox"><stop offset="0" stop-color="#fff"/><stop offset="1" stop-color="#fff"/></linearGradient></defs><g transform="translate(-393.8 -183.475)"><path class="a" d="M428.7,547.315l169.311,97.808a7.244,7.244,0,0,0,7.41,0L755.714,558.43l52.979,31.244L601.716,329.1,523.79,427.525h83.853L653.09,486.8H476.739Z" transform="translate(8.2 34.214)"/><path class="a" d="M609.916,267.606l216.116,272.8V311.446a7.411,7.411,0,0,0-3.7-6.422L613.621,184.494a7.245,7.245,0,0,0-7.41,0L397.5,305.025a7.411,7.411,0,0,0-3.7,6.422V540.405Z" transform="translate(0 0)"/></g></svg>