<svg xmlns="http://www.w3.org/2000/svg" xmlns:xlink="http://www.w3.org/1999/xlink" width="49.018" height="56.35" viewBox="0 0 49.018 56.35"><defs><style>.a{fill:url(#a);}.b{fill:#1da9f7;}</style><linearGradient id="a" x1="0.685" y1="0.114" x2="0.416" y2="1.047" gradientUnits="objectBoundingBox"><stop offset="0" stop-color="#faac1e"/><stop offset="1" stop-color="#faac1e"/></linearGradient></defs><g transform="translate(-393.8 -183.475)"><path class="a" d="M428.7,353.847l19.2,11.092a.821.821,0,0,0,.84,0l17.044-9.832,6.008,3.543L448.321,329.1l-8.837,11.162h9.51l5.154,6.723h-20Z" transform="translate(-30.012 -125.23)"/><path class="b" d="M418.309,193.016l24.509,30.938V197.988a.84.84,0,0,0-.42-.728l-23.669-13.669a.822.822,0,0,0-.84,0L394.22,197.26a.84.84,0,0,0-.42.728v25.966Z" transform="translate(0 0)"/></g></svg>