<svg xmlns="http://www.w3.org/2000/svg" width="64" height="64" viewBox="0 0 64 64"><g transform="translate(0 -0.01)"><g transform="translate(0 0.01)"><g transform="translate(0 0)"><path d="M62.4,21.351,42.657,1.612a5.485,5.485,0,0,0-7.749,0L4.1,32.417a5.486,5.486,0,0,0,0,7.749l4.952,4.953L3.619,50.557a1.25,1.25,0,0,0,1.768,1.768l5.438-5.438,2.265,2.265L.366,61.876a1.25,1.25,0,0,0,1.768,1.768L14.858,50.919,23.843,59.9a5.486,5.486,0,0,0,7.749,0L62.4,29.1a5.48,5.48,0,0,0,0-7.749ZM26.809,58.865a2.957,2.957,0,0,1-1.2-.728L5.873,38.4a2.979,2.979,0,0,1-.767-2.88h21.7ZM22.291,33.018,26,29.312a1.25,1.25,0,1,0-1.768-1.768l-5.475,5.475H15.113l11.3-11.3a1.25,1.25,0,0,0-1.768-1.768L11.578,33.018H7.039L35.51,4.546V30.039a2.983,2.983,0,0,1-2.979,2.979Zm38.337-5.686-30.8,30.8a2.974,2.974,0,0,1-.515.41V35.519h3.221a5.486,5.486,0,0,0,5.479-5.48V26.817H52.338L45.1,34.051a1.25,1.25,0,0,0,1.768,1.768l9-9H61.04A3,3,0,0,1,60.627,27.332ZM38.01,24.317V2.613a2.979,2.979,0,0,1,2.879.767L60.627,23.119a2.963,2.963,0,0,1,.732,1.2Z" transform="translate(0 -0.01)"/></g></g><g transform="translate(27.277 16.486)"><path d="M220.975,132.507a1.32,1.32,0,1,0,.387.934A1.325,1.325,0,0,0,220.975,132.507Z" transform="translate(-218.72 -132.12)"/></g><g transform="translate(0.005 52.84)"><path d="M2.295,427.807a1.32,1.32,0,0,0-1.868,0,1.321,1.321,0,1,0,1.868,1.868,1.32,1.32,0,0,0,0-1.868Z" transform="translate(-0.04 -427.42)"/></g><g transform="translate(8.523 55.369)"><path d="M72.783,446.955a1.321,1.321,0,0,0-1.868,0l-6,6a1.321,1.321,0,0,0,1.868,1.868l6-6A1.321,1.321,0,0,0,72.783,446.955Z" transform="translate(-64.53 -446.568)"/></g></g></svg>