<svg xmlns="http://www.w3.org/2000/svg" width="80.257" height="80.257" viewBox="0 0 80.257 80.257"><defs><style>.a{fill:#e95557;}</style></defs><g transform="translate(0)"><g transform="translate(0)"><path class="a" d="M79.637,71.324l-1.145-1.145a1.176,1.176,0,1,0-1.663,1.662l.979.979L72.82,77.808l-8.479-8.479,4.988-4.988L73.285,68.3a1.176,1.176,0,0,0,1.663-1.663l-4.785-4.785,0,0-3.325-3.325,0,0L63.9,55.585a2.116,2.116,0,0,0-2.993,0l-.166.166-4.207-4.208A31.639,31.639,0,0,0,62.764,38.47h8.284a1.176,1.176,0,1,0,0-2.351H63.181q.155-1.122.231-2.267H76.651a1.176,1.176,0,0,0,0-2.351H63.482q-.008-1.141-.095-2.267h7.661a1.176,1.176,0,0,0,0-2.351H63.118a31.358,31.358,0,0,0-6.474-14.827A1.176,1.176,0,0,0,54.8,13.515a29.085,29.085,0,0,1,6.333,18.227A29.39,29.39,0,1,1,51.5,9.986a1.176,1.176,0,1,0,1.581-1.74,31.743,31.743,0,1,0-27.34,54.667v7.931a1.176,1.176,0,1,0,2.351,0V63.274q1.122.129,2.267.179V76.374a1.176,1.176,0,1,0,2.351,0V63.468q1.144-.035,2.267-.148v7.525a1.176,1.176,0,1,0,2.351,0V62.991a31.618,31.618,0,0,0,14.21-6.459l4.208,4.207-.166.166a2.116,2.116,0,0,0,0,2.993l2.936,2.935,0,0,3.325,3.325,0,0,9.475,9.474a2.116,2.116,0,0,0,2.993,0l5.32-5.32a2.116,2.116,0,0,0,0-2.993Zm-24.645-18,4.084,4.085-1.663,1.663-4.085-4.084q.862-.8,1.663-1.663Zm7.687,14.338L61.016,66,66,61.016l1.663,1.663ZM62.4,57.413l1.94,1.94-4.988,4.988-1.94-1.94Z" transform="translate(0)"/><path class="a" d="M40.66,78.56a27.577,27.577,0,0,0,16.372,5.519,27.04,27.04,0,0,0,0-54.079,26.72,26.72,0,0,0-19.056,7.93,27.318,27.318,0,0,0-7.984,19.1,26.427,26.427,0,0,0,6.8,18,1.176,1.176,0,1,0,1.748-1.572,24.081,24.081,0,0,1-6.2-16.4,24.978,24.978,0,0,1,7.3-17.463,24.384,24.384,0,0,1,17.39-7.238,24.688,24.688,0,0,1,.014,49.377,25.233,25.233,0,0,1-14.973-5.047A1.176,1.176,0,0,0,40.66,78.56Z" transform="translate(-25.289 -25.297)"/><path class="a" d="M112.07,68.5h-8.151a1.8,1.8,0,0,0-1.8,1.8v4.154h-7.6a1.8,1.8,0,0,0-1.8,1.8V88.878H91.138a1.176,1.176,0,1,0,0,2.351h33.713a1.176,1.176,0,0,0,0-2.351h-1.573V82.216a1.8,1.8,0,0,0-1.8-1.8h-7.6V70.3A1.8,1.8,0,0,0,112.07,68.5ZM95.062,76.808h7.054v12.07H95.062Zm9.405-5.957h7.054V88.878h-7.054Zm16.459,11.913v6.113h-7.054V82.764Z" transform="translate(-75.86 -57.763)"/><path class="a" d="M142.565,238.457H137.03l-2.514-6.427a1.176,1.176,0,0,0-2.2.02l-3.436,9.265-2.4-6.807a1.176,1.176,0,0,0-2.135-.182l-2.306,4.131h-5.52a1.176,1.176,0,1,0,0,2.351h6.21a1.176,1.176,0,0,0,1.027-.6l1.374-2.46,2.616,7.416a1.176,1.176,0,0,0,1.1.785h.01a1.176,1.176,0,0,0,1.1-.767l3.493-9.419,1.682,4.3a1.176,1.176,0,0,0,1.095.747h6.337a1.176,1.176,0,1,0,0-2.351Z" transform="translate(-97.264 -195.028)"/></g></g></svg>