<svg xmlns="http://www.w3.org/2000/svg" width="80.781" height="80.781" viewBox="0 0 80.781 80.781"><defs><style>.a{fill:#ffbf48;}</style></defs><g transform="translate(-1 -1)"><path class="a" d="M81.781,42.694A18.264,18.264,0,0,0,67.449,24.885V7.515A6.522,6.522,0,0,0,60.934,1H27.058a6.522,6.522,0,0,0-6.515,6.515V21.847H13.012l-.786,3.148-2.78-1.669L2.478,30.29l1.669,2.783L1,33.858v9.853l3.148.786L2.478,47.28l6.967,6.965,2.78-1.669.787,3.147h7.532V75.267a6.522,6.522,0,0,0,6.515,6.515H60.934a6.522,6.522,0,0,0,6.515-6.515V60.5A18.264,18.264,0,0,0,81.781,42.694Zm-2.606,0a15.519,15.519,0,0,1-1.7,7.054,6.5,6.5,0,0,0-4.537-4.092l-5.489-1.373V43.97a6.521,6.521,0,0,0,2.606-5.184V36.18a6.515,6.515,0,0,0-7.093-6.49,6.7,6.7,0,0,0-5.936,6.758v2.336a6.521,6.521,0,0,0,2.606,5.184v.311l-5.489,1.373a6.5,6.5,0,0,0-4.537,4.092,15.628,15.628,0,1,1,29.57-7.053ZM59.632,24.885a18.092,18.092,0,0,0-2.606.791V21.847H30.967V40.088H45.508A18.064,18.064,0,0,0,59.632,60.5V63.54H28.361v-44.3h31.27Zm-13.563,12.6h-12.5V24.453H54.42V26.92A18.3,18.3,0,0,0,46.068,37.482ZM27.058,3.606H60.934a3.914,3.914,0,0,1,3.909,3.909v3.909H23.15V7.515A3.914,3.914,0,0,1,27.058,3.606ZM20.544,44.742a6.515,6.515,0,1,1,0-11.914Zm-5.5,8.375-.635-2.539-.264-.7-1.488-.6L9.848,50.965,5.76,46.875l1.689-2.813L6.8,42.472l-3.191-.8V35.894l3.187-.8.655-1.59L5.76,30.695l4.089-4.09,2.812,1.689,1.59-.646.8-3.195h5.5v5.609a9.121,9.121,0,1,0,0,17.446v5.609ZM60.934,79.175H27.058a3.914,3.914,0,0,1-3.909-3.909V71.358H64.843v3.909A3.914,3.914,0,0,1,60.934,79.175Zm3.909-10.423H23.15V14.029H64.843v10.49c-.433-.031-.863-.066-1.3-.066s-.87.035-1.3.066V16.635H25.756V66.146H62.237V60.868c.433.031.863.066,1.3.066s.87-.035,1.3-.066Zm-1.3-10.423A15.591,15.591,0,0,1,51.814,53V51.974a3.906,3.906,0,0,1,2.96-3.793l7.463-1.864V42.524l-.648-.377a3.867,3.867,0,0,1-1.958-3.363V36.449a4.083,4.083,0,0,1,3.556-4.163,3.909,3.909,0,0,1,4.262,3.893v2.606a3.867,3.867,0,0,1-1.958,3.363l-.648.377v3.793l7.463,1.864a3.906,3.906,0,0,1,2.96,3.793V53A15.591,15.591,0,0,1,63.54,58.329Z" transform="translate(0 0)"/><path class="a" d="M38,5h2.606V7.606H38Z" transform="translate(11.208 1.212)"/><path class="a" d="M28,5H38.423V7.606H28Z" transform="translate(8.179 1.212)"/><path class="a" d="M30,57H40.423v2.606H30Z" transform="translate(8.785 16.964)"/><path class="a" d="M44,57h2.606v2.606H44Z" transform="translate(13.026 16.964)"/><path class="a" d="M22,57h2.606v2.606H22Z" transform="translate(6.361 16.964)"/><path class="a" d="M24,33H35.726v2.606H24Z" transform="translate(6.967 9.694)"/><path class="a" d="M24,37H35.726v2.606H24Z" transform="translate(6.967 10.905)"/><path class="a" d="M24,41H35.726v2.606H24Z" transform="translate(6.967 12.117)"/><path class="a" d="M24,45H35.726v2.606H24Z" transform="translate(6.967 13.329)"/><path class="a" d="M57.909,23.241a3.9,3.9,0,0,0,1.3-7.578V5H56.606V15.663a3.9,3.9,0,0,0,1.3,7.578Zm0-5.212a1.3,1.3,0,1,1-1.3,1.3A1.3,1.3,0,0,1,57.909,18.029Z" transform="translate(16.055 1.212)"/><path class="a" d="M56,1h2.606V3.606H56Z" transform="translate(16.661 0)"/><path class="a" d="M11.909,45a3.9,3.9,0,0,0-1.3,7.578V63.241h2.606V52.578A3.9,3.9,0,0,0,11.909,45Zm0,5.212a1.3,1.3,0,1,1,1.3-1.3A1.3,1.3,0,0,1,11.909,50.212Z" transform="translate(2.12 13.329)"/><path class="a" d="M10,61h2.606v2.606H10Z" transform="translate(2.726 18.175)"/></g></svg>