<svg xmlns="http://www.w3.org/2000/svg" xmlns:xlink="http://www.w3.org/1999/xlink" width="200.023" height="70" viewBox="0 0 200.023 70"><defs><style>.a{fill:url(#a);}.b{fill:#1da9f7;}.c{fill:#222;font-size:28px;font-family:Montserrat-Arabic-SemiBold, Montserrat-Arabic;font-weight:600;}.d{font-size:27px;font-family:Montserrat-Arabic-Light, Montserrat-Arabic;font-weight:300;}</style><linearGradient id="a" x1="0.685" y1="0.114" x2="0.416" y2="1.047" gradientUnits="objectBoundingBox"><stop offset="0" stop-color="#faac1e"/><stop offset="1" stop-color="#faac1e"/></linearGradient></defs><g transform="translate(-253.8 -182.475)"><path class="a" d="M428.7,359.4l23.512,13.582a1.006,1.006,0,0,0,1.029,0l20.871-12.039,7.357,4.339L452.726,329.1,441.9,342.768h11.644L459.86,351H435.371Z" transform="translate(-28.915 -120.651)"/><path class="b" d="M423.811,195.158l30.011,37.883V201.246a1.029,1.029,0,0,0-.515-.892l-28.982-16.738a1.006,1.006,0,0,0-1.029,0l-28.982,16.738a1.029,1.029,0,0,0-.514.892v31.795Z"/><text class="c" transform="translate(383.8 212.475)"><tspan x="-127.064" y="0">أصول تك</tspan><tspan y="0"></tspan><tspan class="d"><tspan x="-129.681" y="33">ASOL TEC</tspan></tspan></text></g></svg>