<svg xmlns="http://www.w3.org/2000/svg" width="63.691" height="62.634" viewBox="0 0 63.691 62.634"><defs><style>.a{fill:#1da9f7;}</style></defs><g transform="translate(0 -5.246)"><g transform="translate(0 5.246)"><g transform="translate(0 0)"><path class="a" d="M95.619,48.315c2.623,3.7,5.242,7.006,6.977,9.136.253.31.489.6.719.875H98.078a1.061,1.061,0,1,0,0,2.123h16.984a1.061,1.061,0,1,0,0-2.123h-5.237c.229-.277.466-.565.72-.875,1.734-2.123,4.352-5.438,6.976-9.136a93.266,93.266,0,0,0,7.012-11.3c2.168-4.257,3.267-7.79,3.267-10.5a21.216,21.216,0,0,0-6.217-15.032,1.061,1.061,0,1,0-1.5,1.5,19.1,19.1,0,0,1,5.6,13.532c0,2.376-1.021,5.586-3.036,9.54a91.159,91.159,0,0,1-6.853,11.04c-2.588,3.651-5.175,6.921-6.889,9.023-.57.7-1.083,1.316-1.52,1.839a1.075,1.075,0,0,1-1.618,0c-.437-.522-.95-1.14-1.52-1.839-1.714-2.1-4.3-5.371-6.889-9.023A91.159,91.159,0,0,1,90.5,36.049c-2.017-3.954-3.036-7.164-3.036-9.54A19.113,19.113,0,0,1,114.011,8.877a1.062,1.062,0,0,0,.829-1.955,21.238,21.238,0,0,0-29.5,19.588c0,2.713,1.1,6.247,3.267,10.509A93.2,93.2,0,0,0,95.619,48.315Z" transform="translate(-74.724 -5.246)"/><path class="a" d="M181.276,84.208a1.061,1.061,0,0,0,0-2.123,10.615,10.615,0,1,0,7.506,3.109,1.062,1.062,0,1,0-1.5,1.5,8.492,8.492,0,1,1-6-2.487Z" transform="translate(-149.43 -72.526)"/><path class="a" d="M63.291,377.028l-6.528-11.677a3.3,3.3,0,0,0-2.888-1.668H46.309a1.061,1.061,0,1,0,0,2.123h7.565a1.177,1.177,0,0,1,1.037.58l6.526,11.677a.955.955,0,0,1-.01.981,1.168,1.168,0,0,1-1.028.563H3.291a1.168,1.168,0,0,1-1.027-.563.956.956,0,0,1-.01-.981l6.526-11.677a1.176,1.176,0,0,1,1.036-.58h7.565a1.061,1.061,0,1,0,0-2.123H9.818a3.3,3.3,0,0,0-2.89,1.668L.4,377.028a3.079,3.079,0,0,0,.033,3.09,3.27,3.27,0,0,0,2.859,1.611H60.4a3.269,3.269,0,0,0,2.858-1.611A3.078,3.078,0,0,0,63.291,377.028Z" transform="translate(0 -319.095)"/><path class="a" d="M358.361,406.351h-4.246a1.068,1.068,0,0,0-.589.178l-3.185,2.123a1.062,1.062,0,1,0,1.178,1.766l2.914-1.945h3.928a1.062,1.062,0,0,0,0-2.123Z" transform="translate(-306.347 -356.455)"/><path class="a" d="M366.937,458.612A1.061,1.061,0,0,0,368,459.674h8.492a1.061,1.061,0,0,0,0-2.123H368A1.061,1.061,0,0,0,366.937,458.612Z" transform="translate(-321.292 -401.286)"/><path class="a" d="M93.829,410.6a1.062,1.062,0,0,0,.59-1.945l-3.185-2.123a1.068,1.068,0,0,0-.59-.178H86.4a1.061,1.061,0,1,0,0,2.123h3.928l2.917,1.945A1.06,1.06,0,0,0,93.829,410.6Z" transform="translate(-74.721 -356.454)"/><path class="a" d="M60.8,457.551a1.061,1.061,0,1,0,0,2.123h8.492a1.061,1.061,0,1,0,0-2.123Z" transform="translate(-52.306 -401.286)"/></g></g></g></svg>