<svg xmlns="http://www.w3.org/2000/svg" width="64.466" height="64.464" viewBox="0 0 64.466 64.464"><g transform="translate(0 -0.005)"><g transform="translate(0 0.005)"><g transform="translate(0 0)"><path d="M61.241,15.047H40.828V4.3a4.3,4.3,0,0,0-4.3-4.3H4.3A4.3,4.3,0,0,0,0,4.3V60.172a4.3,4.3,0,0,0,4.3,4.3H36.53a4.3,4.3,0,0,0,4.3-4.3V45.13H61.241a3.32,3.32,0,0,0,3.223-3.4V18.449A3.32,3.32,0,0,0,61.241,15.047ZM38.679,60.172a2.151,2.151,0,0,1-2.149,2.149H4.3a2.151,2.151,0,0,1-2.149-2.149V4.3A2.151,2.151,0,0,1,4.3,2.154H36.53A2.151,2.151,0,0,1,38.679,4.3V15.047H36.53v-8.6A2.151,2.151,0,0,0,34.381,4.3h-4.3a2.151,2.151,0,0,0-2.149,2.149V8.6H12.893V6.451A2.151,2.151,0,0,0,10.744,4.3h-4.3A2.151,2.151,0,0,0,4.3,6.451V58.023a2.151,2.151,0,0,0,2.149,2.149H34.381a2.151,2.151,0,0,0,2.149-2.149V45.13h2.149ZM24.711,45.13h1.074v6.446A2.148,2.148,0,0,0,29.454,53.1q.038-.038.072-.08l4.855-5.946V58.023H6.446V6.451h4.3V8.6a2.151,2.151,0,0,0,2.149,2.149H27.935A2.151,2.151,0,0,0,30.084,8.6V6.451h4.3v8.6h-9.67a3.32,3.32,0,0,0-3.223,3.4V41.728A3.32,3.32,0,0,0,24.711,45.13Zm36.53-2.149H35.455c-.018,0-.033.009-.05.01a1.245,1.245,0,0,0-.741.352c-.012.013-.029.019-.041.033l-6.689,8.191V44.056a1.074,1.074,0,0,0-1.074-1.074H24.711a1.175,1.175,0,0,1-1.074-1.253V18.449A1.175,1.175,0,0,1,24.711,17.2h36.53a1.175,1.175,0,0,1,1.074,1.253V41.728A1.175,1.175,0,0,1,61.241,42.981Z" transform="translate(0 -0.005)"/><path d="M129.075,36.264a1.348,1.348,0,0,0,.2-.022.664.664,0,0,0,.2-.065.814.814,0,0,0,.193-.1l.162-.129a1.089,1.089,0,0,0,0-1.526l-.162-.129a.815.815,0,0,0-.193-.1.653.653,0,0,0-.2-.064.911.911,0,0,0-.419,0,.677.677,0,0,0-.193.064.819.819,0,0,0-.194.1l-.161.129a1.089,1.089,0,0,0,0,1.526A1.107,1.107,0,0,0,129.075,36.264Z" transform="translate(-111.885 -29.818)"/><path d="M163.208,36.287h2.149a1.074,1.074,0,1,0,0-2.149h-2.149a1.074,1.074,0,1,0,0,2.149Z" transform="translate(-141.72 -29.84)"/><path d="M290.727,153.741a7.529,7.529,0,0,0-9.127,7.353,1.074,1.074,0,1,0,2.149,0,5.354,5.354,0,0,1,1.986-4.171,5.413,5.413,0,0,1,4.554-1.079,5.376,5.376,0,0,1-.4,10.567,2.155,2.155,0,0,0-1.845,2.119v1.158a1.074,1.074,0,1,0,2.149,0v-1.151a7.524,7.524,0,0,0,.532-14.8Z" transform="translate(-246.145 -134.235)"/><path d="M334.637,307.552a1.243,1.243,0,0,0-.355-.226,1.079,1.079,0,0,0-.817,0,1.1,1.1,0,0,0-.354.226,1.237,1.237,0,0,0-.226.354,1.073,1.073,0,0,0-.086.409,1.425,1.425,0,0,0,.022.215.68.68,0,0,0,.064.194.82.82,0,0,0,.1.194l.129.161a1.131,1.131,0,0,0,.763.312.9.9,0,0,0,.408-.086,1.25,1.25,0,0,0,.355-.226l.129-.161a.817.817,0,0,0,.1-.194.7.7,0,0,0,.065-.194,1.493,1.493,0,0,0,.022-.215,1.074,1.074,0,0,0-.086-.409A1.257,1.257,0,0,0,334.637,307.552Z" transform="translate(-290.898 -268.562)"/></g></g></g></svg>