<svg xmlns="http://www.w3.org/2000/svg" xmlns:xlink="http://www.w3.org/1999/xlink" width="379.199" height="435.917" viewBox="0 0 379.199 435.917"><defs><style>.a{fill:url(#a);}</style><linearGradient id="a" x1="0.685" y1="0.114" x2="0.416" y2="1.047" gradientUnits="objectBoundingBox"><stop offset="0" stop-color="#fff"/><stop offset="1" stop-color="#fff"/></linearGradient></defs><g transform="translate(-393.8 -183.475)"><path class="a" d="M428.7,520.542l148.538,85.807a6.355,6.355,0,0,0,6.5,0l131.854-76.056L762.07,557.7,580.488,329.1l-68.365,86.349h73.565l39.87,52H470.845Z" transform="translate(2.912 12.149)"/><path class="a" d="M583.4,257.284,773,496.613V295.745a6.5,6.5,0,0,0-3.25-5.634L586.65,184.369a6.356,6.356,0,0,0-6.5,0L397.05,290.111a6.5,6.5,0,0,0-3.25,5.634V496.613Z" transform="translate(0 0)"/></g></svg>