<svg xmlns="http://www.w3.org/2000/svg" width="64.115" height="64.096" viewBox="0 0 64.115 64.096"><defs><style>.a{fill:#e95557;}</style></defs><g transform="translate(0 -0.079)"><g transform="translate(0 0.079)"><g transform="translate(0 0)"><path class="a" d="M390.932,352.376h0a1.013,1.013,0,0,0,.175-.072,1.1,1.1,0,0,0,.216-.089,1.043,1.043,0,0,0,.143-.142,1.07,1.07,0,0,0,.147-.147,1.085,1.085,0,0,0,.084-.2,1.041,1.041,0,0,0,.077-.182,1.1,1.1,0,0,0,0-.214,1.01,1.01,0,0,0,0-.209h0a5.416,5.416,0,0,1-.1-1.022,5.337,5.337,0,0,1,4.007-5.167,1.069,1.069,0,1,0-.534-2.069,7.474,7.474,0,0,0-5.61,7.236c0,.138.013.278.021.417a9.609,9.609,0,0,0-6.833,9.189c0,.085.01.168.013.253a9.242,9.242,0,0,0-2.578,2.32,1.069,1.069,0,0,0,1.705,1.289,7.016,7.016,0,0,1,2.447-2.053c.006,0,.01-.009.016-.012a1.046,1.046,0,0,0,.2-.154,1.092,1.092,0,0,0,.128-.106q.1-.176.2-.356a1.1,1.1,0,0,0,.021-.158,1.045,1.045,0,0,0,.026-.256c0-.007,0-.012,0-.019-.024-.246-.038-.495-.038-.747A7.469,7.469,0,0,1,390.932,352.376Z" transform="translate(-332.374 -299.91)"/><path class="a" d="M457.231,451.049h0a7.841,7.841,0,0,0-6.422,6.377,1.069,1.069,0,0,0,.888,1.223,1.1,1.1,0,0,0,.169.013,1.069,1.069,0,0,0,1.055-.9,5.73,5.73,0,0,1,4.632-4.6,1.069,1.069,0,1,0-.321-2.113Z" transform="translate(-394.345 -394.566)"/><path class="a" d="M13.746,359.959c0-.085.013-.167.013-.253a9.608,9.608,0,0,0-6.833-9.189c.008-.139.021-.28.021-.417a7.474,7.474,0,0,0-5.61-7.236A1.069,1.069,0,1,0,.8,344.933h0A5.338,5.338,0,0,1,4.809,350.1a5.419,5.419,0,0,1-.1,1.022h0a1.01,1.01,0,0,0,0,.209,1.1,1.1,0,0,0,0,.214,1.049,1.049,0,0,0,.077.182,1.082,1.082,0,0,0,.084.195,1.064,1.064,0,0,0,.147.147,1.044,1.044,0,0,0,.143.142,1.1,1.1,0,0,0,.216.089,1.01,1.01,0,0,0,.175.072h0a7.469,7.469,0,0,1,6.063,7.332c0,.252-.014.5-.038.747,0,.007,0,.012,0,.019a1.045,1.045,0,0,0,.026.256,1.1,1.1,0,0,0,.021.158q.095.18.2.356a1.093,1.093,0,0,0,.128.106,1.042,1.042,0,0,0,.2.154c.006,0,.01.009.016.012a7.014,7.014,0,0,1,2.447,2.053,1.069,1.069,0,0,0,1.705-1.289A9.239,9.239,0,0,0,13.746,359.959Z" transform="translate(0 -299.908)"/><path class="a" d="M1.229,451.049a1.069,1.069,0,1,0-.321,2.113,5.73,5.73,0,0,1,4.632,4.6,1.069,1.069,0,0,0,1.055.9,1.1,1.1,0,0,0,.169-.013,1.069,1.069,0,0,0,.888-1.223A7.841,7.841,0,0,0,1.229,451.049Z" transform="translate(0 -394.566)"/><path class="a" d="M153.041,56.6a1.068,1.068,0,0,0,.622-.971V39.6a1.069,1.069,0,0,0-.264-.7l-7.216-8.246V15.08c.1-.934.6-8.426-9.025-14.841h0a1.069,1.069,0,0,0-.387-.159q-.205,0-.41,0a1.069,1.069,0,0,0-.386.159h0c-9.622,6.415-9.128,13.907-9.025,14.841V30.647l-7.216,8.246a1.069,1.069,0,0,0-.264.7V55.626a1.068,1.068,0,0,0,1.764.811l6.641-5.692,2.673,3.341a2.837,2.837,0,0,0-.878,1.155,2.8,2.8,0,0,0,.616,3.094l5.526,5.526a1.068,1.068,0,0,0,1.511,0l5.526-5.526a2.838,2.838,0,0,0-1-4.661l2.713-3.391h.16l7.18,6.154A1.069,1.069,0,0,0,153.041,56.6Zm-26.092-7.874-5.343,4.58V40l5.343-6.106Zm14.388,8.1-4.771,4.771L131.8,56.824a.7.7,0,0,1,.5-1.2h8.549a.7.7,0,0,1,.5,1.2Zm-2.078-3.336h-6.453l-2.565-3.206h11.583Zm4.788-5.343h-14.96V43.872h14.96Zm0-17.1V41.734h-14.96V16.088h14.96Zm-14.985-17.1c.089-1.992,1.036-6.935,7.505-11.508,6.5,4.591,7.433,9.507,7.511,11.508ZM151.526,53.3l-5.343-4.58V33.893L151.526,40Z" transform="translate(-104.509 -0.079)"/><path class="a" d="M218.678,189.812a5.343,5.343,0,1,0-5.343-5.343A5.343,5.343,0,0,0,218.678,189.812Zm0-8.549a3.206,3.206,0,1,1-3.206,3.206A3.206,3.206,0,0,1,218.678,181.263Z" transform="translate(-186.62 -156.705)"/></g></g></g></svg>