<svg xmlns="http://www.w3.org/2000/svg" width="78.333" height="78.333" viewBox="0 0 78.333 78.333"><defs><style>.a{fill:#1da9f7;}</style></defs><path class="a" d="M78.333,39.167A13.851,13.851,0,0,0,70.051,26.5,13.83,13.83,0,0,0,64.5,0H13.831A13.83,13.83,0,0,0,8.282,26.5a13.829,13.829,0,0,0,0,25.335,13.83,13.83,0,0,0,5.549,26.5H64.5a13.83,13.83,0,0,0,5.549-26.5A13.85,13.85,0,0,0,78.333,39.167ZM2.327,13.831a11.517,11.517,0,0,1,11.5-11.5H64.5a11.5,11.5,0,0,1,0,23.009H13.831A11.518,11.518,0,0,1,2.327,13.831ZM76.007,64.5a11.517,11.517,0,0,1-11.5,11.5H13.831a11.5,11.5,0,0,1,0-23.009H64.5A11.518,11.518,0,0,1,76.007,64.5ZM64.5,50.671H13.831a11.5,11.5,0,0,1,0-23.009H64.5a11.5,11.5,0,1,1,0,23.009Z"/><g transform="translate(11.324 7.394)"><path class="a" d="M117.68,48.328h-42.5a1.163,1.163,0,1,0,0,2.327h42.5a1.163,1.163,0,1,0,0-2.327Z" transform="translate(-74.015 -48.328)"/></g><g transform="translate(37.073 12.668)"><path class="a" d="M260.234,82.8H243.481a1.163,1.163,0,1,0,0,2.327h16.752a1.163,1.163,0,1,0,0-2.327Z" transform="translate(-242.318 -82.799)"/></g><g transform="translate(11.324 12.668)"><path class="a" d="M97.05,82.8H75.178a1.163,1.163,0,1,0,0,2.327H97.05a1.163,1.163,0,0,0,0-2.327Z" transform="translate(-74.015 -82.799)"/></g><g transform="translate(11.324 17.942)"><path class="a" d="M117.68,117.27h-42.5a1.163,1.163,0,1,0,0,2.327h42.5a1.163,1.163,0,1,0,0-2.327Z" transform="translate(-74.015 -117.27)"/></g><g transform="translate(58.22 7.549)"><path class="a" d="M386.818,49.342a6.282,6.282,0,1,0,6.282,6.282A6.289,6.289,0,0,0,386.818,49.342Zm0,10.237a3.955,3.955,0,1,1,3.955-3.956A3.96,3.96,0,0,1,386.818,59.579Z" transform="translate(-380.536 -49.342)"/></g><g transform="translate(48.862 32.729)"><path class="a" d="M325.5,213.925h-4.964a1.163,1.163,0,0,0,0,2.327H325.5a1.163,1.163,0,0,0,0-2.327Z" transform="translate(-319.37 -213.925)"/></g><g transform="translate(11.324 32.729)"><path class="a" d="M108.838,213.925H75.178a1.163,1.163,0,0,0,0,2.327h33.66a1.163,1.163,0,1,0,0-2.327Z" transform="translate(-74.015 -213.925)"/></g><g transform="translate(11.324 38.003)"><path class="a" d="M117.68,248.4h-42.5a1.163,1.163,0,1,0,0,2.327h42.5a1.163,1.163,0,1,0,0-2.327Z" transform="translate(-74.015 -248.396)"/></g><g transform="translate(11.324 43.277)"><path class="a" d="M117.68,282.867h-42.5a1.163,1.163,0,1,0,0,2.327h42.5a1.163,1.163,0,1,0,0-2.327Z" transform="translate(-74.015 -282.867)"/></g><g transform="translate(58.22 32.885)"><path class="a" d="M386.818,214.939a6.282,6.282,0,1,0,6.282,6.282A6.289,6.289,0,0,0,386.818,214.939Zm0,10.237a3.955,3.955,0,1,1,3.955-3.955A3.96,3.96,0,0,1,386.818,225.176Z" transform="translate(-380.536 -214.939)"/></g><g transform="translate(11.324 58.065)"><path class="a" d="M117.68,379.522h-42.5a1.163,1.163,0,1,0,0,2.327h42.5a1.163,1.163,0,1,0,0-2.327Z" transform="translate(-74.015 -379.522)"/></g><g transform="translate(23.268 63.339)"><path class="a" d="M183.8,413.993H153.247a1.163,1.163,0,1,0,0,2.327h30.558a1.163,1.163,0,1,0,0-2.327Z" transform="translate(-152.084 -413.993)"/></g><g transform="translate(11.324 63.339)"><path class="a" d="M83.244,413.993H75.178a1.163,1.163,0,1,0,0,2.327h8.066a1.163,1.163,0,0,0,0-2.327Z" transform="translate(-74.015 -413.993)"/></g><g transform="translate(11.324 68.613)"><path class="a" d="M117.68,448.464h-42.5a1.163,1.163,0,1,0,0,2.327h42.5a1.163,1.163,0,1,0,0-2.327Z" transform="translate(-74.015 -448.464)"/></g><g transform="translate(58.22 58.22)"><path class="a" d="M386.818,380.536a6.282,6.282,0,1,0,6.282,6.282A6.289,6.289,0,0,0,386.818,380.536Zm0,10.238a3.955,3.955,0,1,1,3.955-3.955A3.96,3.96,0,0,1,386.818,390.774Z" transform="translate(-380.536 -380.536)"/></g></svg>