<svg xmlns="http://www.w3.org/2000/svg" width="431.233" height="335.023" viewBox="0 0 431.233 335.023">
  <g id="Group_2269" data-name="Group 2269" transform="translate(-383.931 -13.594)">
    <g id="Group_2268" data-name="Group 2268" transform="translate(155.679 13.594)">
      <g id="Group_1970" data-name="Group 1970" transform="translate(566.734 97.265)">
        <path id="Path_1770" data-name="Path 1770" d="M384.984,53.547a.6.6,0,0,1-.258-1.135l12.366-5.88a.6.6,0,1,1,.511,1.076l-12.364,5.88A.572.572,0,0,1,384.984,53.547Z" transform="translate(-384.388 -46.473)" fill="#2c3742"/>
      </g>
      <g id="Group_1974" data-name="Group 1974" transform="translate(656.626 6.784)">
        <path id="Path_1774" data-name="Path 1774" d="M423.89,22.166a.6.6,0,0,1-.594-.537L422.075,9.2a.6.6,0,1,1,1.188-.117l1.221,12.433a.6.6,0,0,1-.534.651Z" transform="translate(-422.072 -8.543)" fill="#2c3742"/>
      </g>
      <g id="Group_1978" data-name="Group 1978" transform="translate(324.109 323.137)">
        <path id="Path_1778" data-name="Path 1778" d="M290.338,146.286a.575.575,0,0,1-.289-.076l-7.068-3.931a.6.6,0,0,1,.582-1.04l7.066,3.931a.6.6,0,0,1-.291,1.116Z" transform="translate(-282.676 -141.162)" fill="#2c3742"/>
      </g>
      <g id="Group_1984" data-name="Group 1984" transform="translate(453.372 287.415)">
        <path id="Path_1784" data-name="Path 1784" d="M337.461,133.973a.6.6,0,0,1-.405-1.035l7.135-6.591a.6.6,0,1,1,.809.875l-7.135,6.593A.593.593,0,0,1,337.461,133.973Z" transform="translate(-336.865 -126.187)" fill="#2c3742"/>
      </g>
      <g id="Group_1985" data-name="Group 1985" transform="translate(425.288 15.981)">
        <path id="Path_1785" data-name="Path 1785" d="M348.885,32.032a.591.591,0,0,1-.372-.131l-23.2-18.442a.6.6,0,1,1,.742-.933l23.2,18.442a.6.6,0,0,1-.37,1.064Z" transform="translate(-325.092 -12.398)" fill="#2c3742"/>
      </g>
      <g id="Group_1986" data-name="Group 1986" transform="translate(350.172 0.543)">
        <path id="Path_1786" data-name="Path 1786" d="M294.2,16.9a.612.612,0,0,1-.172-.026.6.6,0,0,1-.4-.742l2.929-9.78a.6.6,0,0,1,1.143.344l-2.929,9.778A.593.593,0,0,1,294.2,16.9Z" transform="translate(-293.602 -5.926)" fill="#2c3742"/>
      </g>
      <g id="Group_1988" data-name="Group 1988" transform="translate(511.223 90.226)">
        <path id="Path_1788" data-name="Path 1788" d="M361.713,53.461a.6.6,0,0,1-.439-1l8.048-8.745a.6.6,0,1,1,.878.809l-8.048,8.745A.6.6,0,0,1,361.713,53.461Z" transform="translate(-361.117 -43.523)" fill="#2c3742"/>
      </g>
      <g id="Group_1996" data-name="Group 1996" transform="translate(494.629 263.212)">
        <path id="Path_1796" data-name="Path 1796" d="M358.177,163.172a.6.6,0,0,1-.594-.553l-3.421-45.936a.6.6,0,0,1,.551-.639.59.59,0,0,1,.639.551l3.421,45.936a.6.6,0,0,1-.551.639Z" transform="translate(-354.16 -116.041)" fill="#2c3742"/>
      </g>
      <g id="Group_1997" data-name="Group 1997" transform="translate(447.994 326.989)">
        <path id="Path_1797" data-name="Path 1797" d="M335.206,148.666a.6.6,0,0,1-.083-1.188l32.561-4.695a.6.6,0,0,1,.169,1.181l-32.561,4.694A.523.523,0,0,1,335.206,148.666Z" transform="translate(-334.61 -142.777)" fill="#2c3742"/>
      </g>
      <g id="Group_1998" data-name="Group 1998" transform="translate(318.023 118.393)">
        <path id="Path_1798" data-name="Path 1798" d="M306.4,79.09a.6.6,0,0,1-.394-.148L280.328,56.374a.6.6,0,0,1,.787-.9l25.679,22.568a.6.6,0,0,1-.394,1.045Z" transform="translate(-280.125 -55.331)" fill="#2c3742"/>
      </g>
      <g id="Group_1999" data-name="Group 1999" transform="translate(267.297 207.555)">
        <path id="Path_1799" data-name="Path 1799" d="M269.781,112.883a.6.6,0,0,1-.525-.31L258.932,93.59a.6.6,0,1,1,1.047-.57L270.3,112a.6.6,0,0,1-.239.809A.584.584,0,0,1,269.781,112.883Z" transform="translate(-258.86 -92.709)" fill="#2c3742"/>
      </g>
      <g id="Group_2001" data-name="Group 2001" transform="translate(594.048 269.476)">
        <path id="Path_1801" data-name="Path 1801" d="M400.944,128.373a.591.591,0,0,1-.527-.317l-4.508-8.514a.6.6,0,0,1,1.052-.558l4.508,8.514a.595.595,0,0,1-.525.875Z" transform="translate(-395.839 -118.667)" fill="#2c3742"/>
      </g>
      <g id="Group_2003" data-name="Group 2003" transform="translate(565.21 155.598)">
        <path id="Path_1803" data-name="Path 1803" d="M423.945,97.5a.607.607,0,0,1-.322-.093l-39.6-25.378a.6.6,0,0,1,.644-1l39.6,25.378a.6.6,0,0,1-.322,1.1Z" transform="translate(-383.749 -70.928)" fill="#2c3742"/>
      </g>
      <g id="Group_2004" data-name="Group 2004" transform="translate(228.419 181.44)">
        <path id="Path_1804" data-name="Path 1804" d="M256.727,88.531a.582.582,0,0,1-.227-.045L242.93,82.909a.6.6,0,0,1,.456-1.1l13.568,5.577a.6.6,0,0,1-.227,1.15Z" transform="translate(-242.561 -81.761)" fill="#2c3742"/>
      </g>
      <g id="Group_2007" data-name="Group 2007" transform="translate(604.814 225.012)">
        <path id="Path_1807" data-name="Path 1807" d="M410.288,119.046a.594.594,0,0,1-.527-.317L400.42,100.9a.6.6,0,0,1,1.057-.556l9.341,17.829a.6.6,0,0,1-.253.806A.606.606,0,0,1,410.288,119.046Z" transform="translate(-400.351 -100.027)" fill="#2c3742"/>
      </g>
      <g id="Group_2011" data-name="Group 2011" transform="translate(371.798 229.841)">
        <path id="Path_1811" data-name="Path 1811" d="M308.462,117.558a.6.6,0,0,1-.56-.394l-5.2-14.312a.6.6,0,0,1,1.121-.408l5.2,14.315a.593.593,0,0,1-.355.763A.621.621,0,0,1,308.462,117.558Z" transform="translate(-302.668 -102.051)" fill="#2c3742"/>
      </g>
      <g id="Group_2013" data-name="Group 2013" transform="translate(483.125 6.37)">
        <path id="Path_1813" data-name="Path 1813" d="M349.934,38.783a.6.6,0,0,1-.582-.725l6.481-29.221A.6.6,0,1,1,357,9.094l-6.481,29.221A.6.6,0,0,1,349.934,38.783Z" transform="translate(-349.338 -8.369)" fill="#2c3742"/>
      </g>
      <g id="Group_2015" data-name="Group 2015" transform="translate(611.311 309.984)">
        <path id="Path_1815" data-name="Path 1815" d="M410.677,142.761a.6.6,0,0,1-.384-.141l-7.006-5.921a.6.6,0,1,1,.77-.911l7.006,5.921a.6.6,0,0,1-.386,1.052Z" transform="translate(-403.075 -135.648)" fill="#2c3742"/>
      </g>
      <g id="Group_2022" data-name="Group 2022" transform="translate(479.089 70.432)">
        <path id="Path_1822" data-name="Path 1822" d="M348.242,47.35a.6.6,0,0,1-.425-1.016l10.8-10.932a.6.6,0,1,1,.849.84l-10.8,10.932A.6.6,0,0,1,348.242,47.35Z" transform="translate(-347.646 -35.225)" fill="#2c3742"/>
      </g>
      <g id="Group_2023" data-name="Group 2023" transform="translate(250.746 292.464)">
        <path id="Path_1823" data-name="Path 1823" d="M252.517,136.415a.6.6,0,0,1-.51-.906l4.2-6.918a.6.6,0,0,1,1.021.618l-4.2,6.918A.594.594,0,0,1,252.517,136.415Z" transform="translate(-251.921 -128.304)" fill="#2c3742"/>
      </g>
      <g id="Group_2024" data-name="Group 2024" transform="translate(278.284 320.853)">
        <path id="Path_1824" data-name="Path 1824" d="M272.441,144.139a.6.6,0,0,1-.184-.029l-8.38-2.741a.6.6,0,0,1,.372-1.135l8.378,2.741a.6.6,0,0,1-.186,1.164Z" transform="translate(-263.465 -140.205)" fill="#2c3742"/>
      </g>
      <g id="Group_2026" data-name="Group 2026" transform="translate(389.756 190.154)">
        <path id="Path_1826" data-name="Path 1826" d="M310.794,100.85a.482.482,0,0,1-.1-.01.6.6,0,0,1-.487-.689l2.476-14.241a.588.588,0,0,1,.689-.484.6.6,0,0,1,.484.689l-2.474,14.239A.6.6,0,0,1,310.794,100.85Z" transform="translate(-310.196 -85.414)" fill="#2c3742"/>
      </g>
      <g id="Group_2028" data-name="Group 2028" transform="translate(448.737 0.794)">
        <path id="Path_1828" data-name="Path 1828" d="M344.158,8.313c-.026,0-.05,0-.076,0l-8.638-1.088a.6.6,0,0,1-.518-.666.589.589,0,0,1,.665-.518l8.64,1.085a.6.6,0,0,1-.074,1.19Z" transform="translate(-334.922 -6.031)" fill="#2c3742"/>
      </g>
      <g id="Group_2031" data-name="Group 2031" transform="translate(457.743 203.465)">
        <path id="Path_1831" data-name="Path 1831" d="M365.361,95.2l-.072,0-26.063-3.018a.6.6,0,0,1-.525-.661.607.607,0,0,1,.661-.525l26.065,3.015a.6.6,0,0,1-.067,1.19Z" transform="translate(-338.697 -90.994)" fill="#2c3742"/>
      </g>
      <g id="Group_2032" data-name="Group 2032" transform="translate(269.825 139.582)">
        <path id="Path_1832" data-name="Path 1832" d="M271.988,111.1a.593.593,0,0,1-.577-.451L259.937,64.957a.6.6,0,1,1,1.159-.291l11.471,45.693a.6.6,0,0,1-.434.725A.606.606,0,0,1,271.988,111.1Z" transform="translate(-259.92 -64.213)" fill="#2c3742"/>
      </g>
      <g id="Group_2034" data-name="Group 2034" transform="translate(339.965 254.352)">
        <path id="Path_1834" data-name="Path 1834" d="M302.163,121.387a.592.592,0,0,1-.322-.093L289.6,113.424a.6.6,0,1,1,.647-1l12.242,7.867a.6.6,0,0,1-.322,1.1Z" transform="translate(-289.323 -112.327)" fill="#2c3742"/>
      </g>
      <g id="Group_2038" data-name="Group 2038" transform="translate(367.751 122.913)">
        <path id="Path_1838" data-name="Path 1838" d="M327.739,70.32a.61.61,0,0,1-.248-.052l-26.17-11.906a.6.6,0,1,1,.494-1.085l26.17,11.906a.6.6,0,0,1-.246,1.138Z" transform="translate(-300.971 -57.225)" fill="#2c3742"/>
      </g>
      <g id="Group_2040" data-name="Group 2040" transform="translate(603.319 138.811)">
        <path id="Path_1840" data-name="Path 1840" d="M400.319,66.366a.6.6,0,0,1-.091-1.186L408.5,63.9a.6.6,0,1,1,.184,1.178l-8.273,1.286C400.381,66.363,400.35,66.366,400.319,66.366Z" transform="translate(-399.725 -63.89)" fill="#2c3742"/>
      </g>
      <g id="Group_2049" data-name="Group 2049" transform="translate(365.344 157.505)">
        <path id="Path_1849" data-name="Path 1849" d="M300.56,84.179a.65.65,0,0,1-.1-.007.594.594,0,0,1-.491-.685l1.849-11.259a.6.6,0,0,1,1.178.193L301.147,83.68A.6.6,0,0,1,300.56,84.179Z" transform="translate(-299.962 -71.727)" fill="#2c3742"/>
      </g>
      <g id="Group_2056" data-name="Group 2056" transform="translate(475.828 111.138)">
        <path id="Path_1856" data-name="Path 1856" d="M350.764,64.64a.591.591,0,0,1-.561-.4l-3.891-11.159a.6.6,0,1,1,1.124-.394l3.891,11.159a.594.594,0,0,1-.365.759A.566.566,0,0,1,350.764,64.64Z" transform="translate(-346.279 -52.289)" fill="#2c3742"/>
      </g>
      <g id="Group_2057" data-name="Group 2057" transform="translate(627.349 76.388)">
        <path id="Path_1857" data-name="Path 1857" d="M419.188,49.5a.594.594,0,0,1-.458-.215L409.938,38.7a.6.6,0,0,1,.916-.763l8.793,10.584a.6.6,0,0,1-.458.978Z" transform="translate(-409.799 -37.722)" fill="#2c3742"/>
      </g>
      <g id="Group_2059" data-name="Group 2059" transform="translate(383.064 79.499)">
        <path id="Path_1859" data-name="Path 1859" d="M307.987,42.95a.6.6,0,0,1-.208-1.157l7.433-2.731a.6.6,0,1,1,.413,1.119l-7.433,2.734A.619.619,0,0,1,307.987,42.95Z" transform="translate(-307.391 -39.026)" fill="#2c3742"/>
      </g>
      <g id="Group_2060" data-name="Group 2060" transform="translate(312.726 165.972)">
        <path id="Path_1860" data-name="Path 1860" d="M298.9,86.534a.59.59,0,0,1-.265-.062l-20.4-10.066a.6.6,0,1,1,.525-1.069L299.17,85.4a.6.6,0,0,1-.265,1.131Z" transform="translate(-277.904 -75.277)" fill="#2c3742"/>
      </g>
      <g id="Group_2061" data-name="Group 2061" transform="translate(351.504 97.09)">
        <path id="Path_1861" data-name="Path 1861" d="M294.756,53.355a.587.587,0,0,1-.437-.193.594.594,0,0,1,.033-.842l6.243-5.761a.6.6,0,0,1,.809.875L295.161,53.2A.59.59,0,0,1,294.756,53.355Z" transform="translate(-294.16 -46.4)" fill="#2c3742"/>
      </g>
      <g id="Group_2066" data-name="Group 2066" transform="translate(228.441 1.972)">
        <path id="Path_1866" data-name="Path 1866" d="M257.7,25.9a.6.6,0,0,1-.468-.224L242.7,7.493a.6.6,0,1,1,.93-.744l14.53,18.186a.6.6,0,0,1-.093.84A.608.608,0,0,1,257.7,25.9Z" transform="translate(-242.571 -6.525)" fill="#2c3742"/>
      </g>
      <g id="Group_2067" data-name="Group 2067" transform="translate(329.437 200.975)">
        <path id="Path_1867" data-name="Path 1867" d="M285.5,112.446a.59.59,0,0,1-.484-.25.6.6,0,0,1,.138-.833l29.944-21.3a.6.6,0,0,1,.692.973l-29.944,21.3A.6.6,0,0,1,285.5,112.446Z" transform="translate(-284.91 -89.95)" fill="#2c3742"/>
      </g>
      <g id="Group_2070" data-name="Group 2070" transform="translate(556.322 224.261)">
        <path id="Path_1870" data-name="Path 1870" d="M383.818,107.3a3.792,3.792,0,1,1,3.654-4.8h0a3.792,3.792,0,0,1-3.654,4.8Zm0-6.393a2.546,2.546,0,0,0-.692.1,2.6,2.6,0,1,0,3.194,1.818h0a2.6,2.6,0,0,0-2.5-1.913Z" transform="translate(-380.023 -99.712)" fill="#2c3742"/>
      </g>
      <g id="Group_2071" data-name="Group 2071" transform="translate(618.843 192.286)">
        <path id="Path_1871" data-name="Path 1871" d="M412.123,98.09a5.889,5.889,0,1,1,3.984-1.551A5.874,5.874,0,0,1,412.123,98.09ZM412.116,87.5a4.724,4.724,0,1,0,.208,0C412.254,87.5,412.185,87.5,412.116,87.5Z" transform="translate(-406.233 -86.308)" fill="#2c3742"/>
      </g>
      <g id="Group_2074" data-name="Group 2074" transform="translate(399.678 157.276)">
        <path id="Path_1874" data-name="Path 1874" d="M318.922,80.765h-.072a4.573,4.573,0,0,1-4.494-4.64h0a4.575,4.575,0,0,1,4.568-4.494h.069a4.567,4.567,0,0,1-.072,9.134Zm-3.373-4.621a3.38,3.38,0,0,0,3.32,3.428,3.33,3.33,0,0,0,3.428-3.32,3.375,3.375,0,1,0-6.748-.107Z" transform="translate(-314.356 -71.631)" fill="#2c3742"/>
      </g>
      <g id="Group_2076" data-name="Group 2076" transform="translate(621.416 30.886)">
        <path id="Path_1876" data-name="Path 1876" d="M416.826,37.673c-.062,0-.124,0-.188,0a9.523,9.523,0,0,1-9.325-9.7h0a9.512,9.512,0,1,1,9.513,9.7ZM408.506,28a8.32,8.32,0,1,0,8.48-8.156A8.33,8.33,0,0,0,408.506,28Z" transform="translate(-407.311 -18.647)" fill="#2c3742"/>
      </g>
      <g id="Group_2079" data-name="Group 2079" transform="translate(394.583 264.294)">
        <path id="Path_1879" data-name="Path 1879" d="M317.38,126.82a5.159,5.159,0,1,1,1.882-.355A5.173,5.173,0,0,1,317.38,126.82Zm0-9.131a3.972,3.972,0,1,0,1.589.334A3.946,3.946,0,0,0,317.38,117.689Z" transform="translate(-312.22 -116.494)" fill="#2c3742"/>
      </g>
      <g id="Group_2080" data-name="Group 2080" transform="translate(230.937 259.222)">
        <path id="Path_1880" data-name="Path 1880" d="M247.123,121.376a3.5,3.5,0,0,1-2.4-6.059,3.426,3.426,0,0,1,2.509-.947,3.5,3.5,0,0,1-.112,7.006Zm0-5.813a2.311,2.311,0,0,0-.074,4.621,2.217,2.217,0,0,0,1.658-.623,2.313,2.313,0,0,0-1.508-4Z" transform="translate(-243.617 -114.368)" fill="#2c3742"/>
      </g>
      <g id="Group_2081" data-name="Group 2081" transform="translate(504.817 217.895)">
        <path id="Path_1881" data-name="Path 1881" d="M371.669,123.465a13.2,13.2,0,1,1,6.5-1.72h0A13.141,13.141,0,0,1,371.669,123.465Zm-.041-25.228a12.048,12.048,0,1,0,3.211.437A12.138,12.138,0,0,0,371.629,98.237Zm6.247,22.991h0Z" transform="translate(-358.432 -97.044)" fill="#2c3742"/>
      </g>
      <g id="Group_2082" data-name="Group 2082" transform="translate(429.379 82.427)">
        <path id="Path_1882" data-name="Path 1882" d="M337.463,61.59a10.667,10.667,0,1,1,9.988-6.88h0A10.694,10.694,0,0,1,337.463,61.59Zm.024-20.142a9.471,9.471,0,1,0,3.354.615A9.491,9.491,0,0,0,337.487,41.448ZM346.893,54.5h0Z" transform="translate(-326.807 -40.253)" fill="#2c3742"/>
      </g>
      <g id="Group_2084" data-name="Group 2084" transform="translate(506.234 178.267)">
        <path id="Path_1884" data-name="Path 1884" d="M362.278,86.934a3.265,3.265,0,1,1,.234-.01C362.433,86.929,362.354,86.934,362.278,86.934Zm0-5.31c-.05,0-.1,0-.15,0h0a2.075,2.075,0,1,0,.153,0Zm-.193-.589h0Z" transform="translate(-359.026 -80.431)" fill="#2c3742"/>
      </g>
      <g id="Group_2091" data-name="Group 2091" transform="translate(284.285 263.836)">
        <path id="Path_1891" data-name="Path 1891" d="M280.362,145.072a14.381,14.381,0,1,1,10.679-4.73h0A14.366,14.366,0,0,1,280.362,145.072Zm.021-27.578c-.224,0-.448.007-.675.017a13.2,13.2,0,1,0,10.446,22.032h0a13.2,13.2,0,0,0-9.771-22.048ZM290.6,139.94h0Z" transform="translate(-265.981 -116.303)" fill="#2c3742"/>
      </g>
      <g id="Group_2102" data-name="Group 2102" transform="translate(429.995 131.527)">
        <path id="Path_1902" data-name="Path 1902" d="M333.735,74.172a6.637,6.637,0,0,1-4.582-1.82h0a6.671,6.671,0,0,1,4.4-11.514,6.672,6.672,0,0,1,5.031,11.254A6.654,6.654,0,0,1,333.735,74.172Zm-3.764-2.686a5.479,5.479,0,1,0,7.531-7.96,5.479,5.479,0,0,0-7.531,7.96Z" transform="translate(-327.065 -60.837)" fill="#2c3742"/>
      </g>
      <g id="Group_2105" data-name="Group 2105" transform="translate(535.121 175.021)">
        <path id="Path_1905" data-name="Path 1905" d="M381.835,100.441q-.329,0-.658-.021a10.605,10.605,0,1,1,.658.021Zm-.029-20.178A9.491,9.491,0,1,0,391.3,90.325h0a9.489,9.489,0,0,0-8.9-10.045C382.2,80.268,382,80.263,381.807,80.263Z" transform="translate(-371.135 -79.07)" fill="#2c3742"/>
      </g>
      <g id="Group_2106" data-name="Group 2106" transform="translate(270.564 28.832)">
        <path id="Path_1906" data-name="Path 1906" d="M270.868,39.1A10.657,10.657,0,0,1,263,21.274h0a10.655,10.655,0,1,1,8.389,17.81C271.213,39.093,271.039,39.1,270.868,39.1Zm-6.989-17.022a9.471,9.471,0,0,0,.637,13.365,9.3,9.3,0,0,0,6.815,2.452,9.462,9.462,0,1,0-7.452-15.818Z" transform="translate(-260.229 -17.785)" fill="#2c3742"/>
      </g>
      <g id="Group_2107" data-name="Group 2107" transform="translate(405.015 306.786)">
        <path id="Path_1907" data-name="Path 1907" d="M326.349,153.857a9.8,9.8,0,1,1,1.386-.1A10.083,10.083,0,0,1,326.349,153.857Zm.038-18.358a8.693,8.693,0,0,0-1.217.086,8.54,8.54,0,1,0,1.217-.086Z" transform="translate(-316.593 -134.308)" fill="#2c3742"/>
      </g>
      <g id="Group_2108" data-name="Group 2108" transform="translate(452.423 233.496)">
        <path id="Path_1908" data-name="Path 1908" d="M346.833,124.333a10.4,10.4,0,1,1,3.118-.479A10.34,10.34,0,0,1,346.833,124.333Zm0-19.558a9.182,9.182,0,1,0,8.766,6.431A9.151,9.151,0,0,0,346.838,104.775Z" transform="translate(-336.467 -103.583)" fill="#2c3742"/>
      </g>
      <g id="Group_2110" data-name="Group 2110" transform="translate(408.914 219.52)">
        <path id="Path_1910" data-name="Path 1910" d="M326.747,114.8a8.534,8.534,0,1,1,7.218-3.955A8.479,8.479,0,0,1,326.747,114.8Zm.029-15.88a7.386,7.386,0,0,0-1.61.179,7.289,7.289,0,1,0,1.61-.179Z" transform="translate(-318.228 -97.725)" fill="#2c3742"/>
      </g>
      <g id="Group_2112" data-name="Group 2112" transform="translate(401.849 104.294)">
        <path id="Path_1912" data-name="Path 1912" d="M319.622,58.134a4.362,4.362,0,0,1-4.351-4.141h0a4.35,4.35,0,0,1,4.136-4.566,4.286,4.286,0,0,1,3.139,1.121,4.357,4.357,0,0,1-2.71,7.581C319.765,58.131,319.694,58.134,319.622,58.134Zm-3.161-4.2a3.165,3.165,0,1,0,5.286-2.5,3.214,3.214,0,0,0-2.28-.816,3.164,3.164,0,0,0-3.006,3.316Z" transform="translate(-315.266 -49.42)" fill="#2c3742"/>
      </g>
      <g id="Group_2113" data-name="Group 2113" transform="translate(559.404 289.68)">
        <path id="Path_1913" data-name="Path 1913" d="M391.675,147.826a10.343,10.343,0,1,1,5.995-1.918A10.346,10.346,0,0,1,391.675,147.826Zm-.026-19.5a9.152,9.152,0,1,0,7.469,3.838A9.1,9.1,0,0,0,391.648,128.328Z" transform="translate(-381.315 -127.137)" fill="#2c3742"/>
      </g>
      <g id="Group_2116" data-name="Group 2116" transform="translate(425.749 179.766)">
        <path id="Path_1916" data-name="Path 1916" d="M330.483,91.454a5.206,5.206,0,0,1-5.1-4.172h0a5.2,5.2,0,1,1,5.1,4.172Zm-3.924-4.408a4,4,0,1,0,3.134-4.714,4.006,4.006,0,0,0-3.134,4.714Z" transform="translate(-325.285 -81.059)" fill="#2c3742"/>
      </g>
      <g id="Group_2117" data-name="Group 2117" transform="translate(389.07 2.418)">
        <path id="Path_1917" data-name="Path 1917" d="M319.2,25.306a9.3,9.3,0,1,1,8.95-6.76h0A9.315,9.315,0,0,1,319.2,25.306ZM319.2,7.9a8.106,8.106,0,1,0,7.81,10.319h0A8.121,8.121,0,0,0,319.2,7.9Zm8.385,10.482h0Z" transform="translate(-309.909 -6.712)" fill="#2c3742"/>
      </g>
      <g id="Group_2120" data-name="Group 2120" transform="translate(570.262 41.883)">
        <path id="Path_1920" data-name="Path 1920" d="M398.965,49.485a13.113,13.113,0,1,1,7.29-24.024h0a13.11,13.11,0,0,1-7.29,24.024ZM399,24.458a11.91,11.91,0,1,0,6.591,2h0A11.853,11.853,0,0,0,399,24.458Z" transform="translate(-385.867 -23.257)" fill="#2c3742"/>
      </g>
      <g id="Group_2121" data-name="Group 2121" transform="translate(307.29 2.414)">
        <path id="Path_1921" data-name="Path 1921" d="M280.564,16.592a4.794,4.794,0,0,1-.966-.1,4.942,4.942,0,0,1-3.876-5.811h0a4.939,4.939,0,1,1,4.842,5.909Zm-3.674-5.675A3.747,3.747,0,1,0,281.3,7.978a3.752,3.752,0,0,0-4.408,2.939Z" transform="translate(-275.625 -6.711)" fill="#2c3742"/>
      </g>
      <g id="Group_2122" data-name="Group 2122" transform="translate(463.252 154.584)">
        <path id="Path_1922" data-name="Path 1922" d="M351.212,90.909a10.205,10.205,0,0,1-9.418-14.119,10.195,10.195,0,1,1,9.418,14.119ZM351.2,71.7a9.005,9.005,0,1,0,8.342,5.57A8.947,8.947,0,0,0,351.2,71.7Z" transform="translate(-341.007 -70.502)" fill="#2c3742"/>
      </g>
      <g id="Group_2123" data-name="Group 2123" transform="translate(603.353 99.428)">
        <path id="Path_1923" data-name="Path 1923" d="M404.9,57.711a5.177,5.177,0,1,1,1.689-.286A5.159,5.159,0,0,1,404.9,57.711Zm0-9.136a4,4,0,0,0-1.3.217,3.973,3.973,0,1,0,1.3-.217Z" transform="translate(-399.739 -47.38)" fill="#2c3742"/>
      </g>
      <g id="Group_2131" data-name="Group 2131" transform="translate(648.872 309.907)">
        <path id="Path_1931" data-name="Path 1931" d="M423.379,144.711a4.549,4.549,0,0,1-4.43-5.615A4.5,4.5,0,0,1,421,136.284a4.55,4.55,0,0,1,6.252,1.51h0a4.544,4.544,0,0,1-3.872,6.918Zm-.014-7.9a3.352,3.352,0,1,0,2.867,1.6h0A3.353,3.353,0,0,0,423.365,136.811Z" transform="translate(-418.821 -135.616)" fill="#2c3742"/>
      </g>
      <g id="Group_2134" data-name="Group 2134" transform="translate(452.399 55.465)">
        <path id="Path_1934" data-name="Path 1934" d="M340.123,36.3a3.659,3.659,0,0,1-2.161-.7v0a3.674,3.674,0,1,1,2.161.706Zm-1.458-1.67a2.481,2.481,0,1,0-.541-3.466,2.483,2.483,0,0,0,.541,3.466Z" transform="translate(-336.457 -28.951)" fill="#2c3742"/>
      </g>
      <g id="Group_2139" data-name="Group 2139" transform="translate(641.71 212.967)">
        <path id="Path_1939" data-name="Path 1939" d="M424.724,112.755a8.886,8.886,0,1,1,4.163-1.042h0A8.833,8.833,0,0,1,424.724,112.755ZM424.7,96.171a7.7,7.7,0,1,0,3.626,14.489h0A7.7,7.7,0,0,0,424.7,96.171Zm3.9,15.014h0Z" transform="translate(-415.819 -94.977)" fill="#2c3742"/>
      </g>
      <g id="Group_2141" data-name="Group 2141" transform="translate(228.252 61.402)">
        <path id="Path_1941" data-name="Path 1941" d="M257.852,62.208a15.385,15.385,0,1,1,15.362-16.562h0A15.381,15.381,0,0,1,259.052,62.16C258.651,62.191,258.251,62.208,257.852,62.208Zm.033-29.577q-.544,0-1.095.043a14.188,14.188,0,1,0,15.236,13.063h0A14.213,14.213,0,0,0,257.886,32.631Z" transform="translate(-242.492 -31.439)" fill="#2c3742"/>
      </g>
      <g id="Group_2144" data-name="Group 2144" transform="translate(319.799 43.151)">
        <path id="Path_1944" data-name="Path 1944" d="M284.74,31.514a3.983,3.983,0,0,1-.711-.067,3.825,3.825,0,1,1,.711.067Zm-.014-6.534a2.667,2.667,0,1,0,.494.045A2.881,2.881,0,0,0,284.726,24.98Z" transform="translate(-280.869 -23.788)" fill="#2c3742"/>
      </g>
      <g id="Group_2146" data-name="Group 2146" transform="translate(520.225 2.712)">
        <path id="Path_1946" data-name="Path 1946" d="M369.066,15.19a4.177,4.177,0,0,1-.374-8.337h0a4.176,4.176,0,0,1,.754,8.318C369.319,15.183,369.192,15.19,369.066,15.19Zm.007-7.161c-.091,0-.181,0-.274.012h0a2.983,2.983,0,1,0,2.562,4.881,2.983,2.983,0,0,0-2.288-4.892Zm-.329-.582h0Z" transform="translate(-364.891 -6.836)" fill="#2c3742"/>
      </g>
      <g id="Group_2150" data-name="Group 2150" transform="translate(358.521 35.335)">
        <path id="Path_1950" data-name="Path 1950" d="M305.787,37.879a8.688,8.688,0,0,1-8.487-10.52h0a8.682,8.682,0,1,1,8.487,10.52Zm-7.321-10.269a7.49,7.49,0,1,0,8.9-5.735,7.5,7.5,0,0,0-8.9,5.735Z" transform="translate(-297.102 -20.511)" fill="#2c3742"/>
      </g>
      <g id="Group_2151" data-name="Group 2151" transform="translate(512.369 44.873)">
        <path id="Path_1951" data-name="Path 1951" d="M366.019,33.36a4.424,4.424,0,1,1,4.246-3.177v0A4.436,4.436,0,0,1,366.019,33.36Zm0-7.657a3.231,3.231,0,1,0,3.1,4.143h0a3.23,3.23,0,0,0-3.1-4.143Zm3.669,4.313h0Z" transform="translate(-361.597 -24.51)" fill="#2c3742"/>
      </g>
      <g id="Group_2157" data-name="Group 2157" transform="translate(504.279 135.268)">
        <path id="Path_1957" data-name="Path 1957" d="M362.659,71.317a4.455,4.455,0,0,1-3.392-7.347h0a4.46,4.46,0,1,1,3.392,7.347Zm-2.483-6.574a3.269,3.269,0,1,0,4.6-.367,3.273,3.273,0,0,0-4.6.367Z" transform="translate(-358.206 -62.405)" fill="#2c3742"/>
      </g>
      <g id="Group_2160" data-name="Group 2160" transform="translate(533.979 121.525)">
        <path id="Path_1960" data-name="Path 1960" d="M378.935,73.2a8.293,8.293,0,0,1-8.11-6.631h0a8.279,8.279,0,1,1,9.761,6.464A8.318,8.318,0,0,1,378.935,73.2Zm.019-15.367a7.235,7.235,0,0,0-1.427.143,7.089,7.089,0,0,0-5.534,8.354h0a7.083,7.083,0,1,0,6.961-8.5Z" transform="translate(-370.657 -56.644)" fill="#2c3742"/>
      </g>
      <g id="Group_2169" data-name="Group 2169" transform="translate(628.662)">
        <path id="Path_1969" data-name="Path 1969" d="M412.744,8.624a.605.605,0,0,1-.415-.167l-1.8-1.734a.593.593,0,0,1-.017-.842.6.6,0,0,1,.844-.017l1.8,1.732a.6.6,0,0,1-.413,1.028Z" transform="translate(-410.349 -5.699)" fill="#2c3742"/>
      </g>
      <g id="Group_2170" data-name="Group 2170" transform="translate(579.407 128.958)">
        <path id="Path_1970" data-name="Path 1970" d="M390.689,61.917a.6.6,0,0,1-.551-.37l-.394-.966a.6.6,0,0,1,1.1-.448l.394.964a.6.6,0,0,1-.327.778A.625.625,0,0,1,390.689,61.917Z" transform="translate(-389.701 -59.76)" fill="#2c3742"/>
      </g>
      <g id="Group_2171" data-name="Group 2171" transform="translate(262.408 252.702)">
        <path id="Path_1971" data-name="Path 1971" d="M258.241,114.278a.594.594,0,0,1-.515-.3l-.837-1.45a.6.6,0,0,1,1.035-.6l.835,1.453a.6.6,0,0,1-.219.813A.582.582,0,0,1,258.241,114.278Z" transform="translate(-256.81 -111.635)" fill="#2c3742"/>
      </g>
      <g id="Group_2175" data-name="Group 2175" transform="translate(430.662 269.781)">
        <path id="Path_1975" data-name="Path 1975" d="M328.715,122.4a.6.6,0,0,1-.568-.413l-.773-2.409a.6.6,0,1,1,1.133-.367l.773,2.409a.6.6,0,0,1-.565.78Z" transform="translate(-327.345 -118.795)" fill="#2c3742"/>
      </g>
      <g id="Group_2185" data-name="Group 2185" transform="translate(412.334 54.534)">
        <path id="Path_1985" data-name="Path 1985" d="M322.141,30.077a.514.514,0,0,1-.1-.01l-1.882-.322a.6.6,0,0,1-.487-.689.594.594,0,0,1,.689-.487l1.882.322a.6.6,0,0,1-.1,1.186Z" transform="translate(-319.661 -28.56)" fill="#2c3742"/>
      </g>
      <g id="Group_2187" data-name="Group 2187" transform="translate(345.693 71.873)">
        <path id="Path_1987" data-name="Path 1987" d="M292.32,37.58a.6.6,0,0,1-.272-1.126l1.083-.561a.6.6,0,0,1,.549,1.062l-1.085.558A.6.6,0,0,1,292.32,37.58Z" transform="translate(-291.724 -35.829)" fill="#2c3742"/>
      </g>
      <g id="Group_2189" data-name="Group 2189" transform="translate(544.905 87.49)">
        <path id="Path_1989" data-name="Path 1989" d="M377.023,43.712a.386.386,0,0,1-.074,0l-1.188-.143a.6.6,0,0,1,.143-1.183l1.188.143a.6.6,0,0,1-.069,1.188Z" transform="translate(-375.237 -42.376)" fill="#2c3742"/>
      </g>
      <g id="Group_2195" data-name="Group 2195" transform="translate(372.145 286.973)">
        <path id="Path_1995" data-name="Path 1995" d="M303.411,129.318a.584.584,0,0,1-.336-.1.59.59,0,0,1-.155-.828l1.455-2.123a.6.6,0,0,1,.983.673l-1.455,2.123A.6.6,0,0,1,303.411,129.318Z" transform="translate(-302.814 -126.002)" fill="#2c3742"/>
      </g>
      <g id="Group_2207" data-name="Group 2207" transform="translate(270.844 0.301)">
        <path id="Path_2007" data-name="Path 2007" d="M261.557,7.679a.593.593,0,0,1-.437-.191l-.615-.661a.6.6,0,1,1,.873-.811l.615.658a.6.6,0,0,1-.437,1Z" transform="translate(-260.347 -5.825)" fill="#2c3742"/>
      </g>
      <g id="Group_2209" data-name="Group 2209" transform="translate(543.661 58.278)">
        <path id="Path_2009" data-name="Path 2009" d="M375.652,31.972a.6.6,0,0,1-.53-.322L374.784,31a.6.6,0,0,1,1.057-.551l.339.649a.6.6,0,0,1-.527.873Z" transform="translate(-374.715 -30.13)" fill="#2c3742"/>
      </g>
      <g id="Group_2220" data-name="Group 2220" transform="translate(292.405 79.972)">
        <path id="Path_2020" data-name="Path 2020" d="M269.981,42.2a.55.55,0,0,1-.124-.014.6.6,0,0,1-.458-.708l.384-1.777a.6.6,0,1,1,1.166.25l-.384,1.777A.6.6,0,0,1,269.981,42.2Z" transform="translate(-269.385 -39.224)" fill="#2c3742"/>
      </g>
      <g id="Group_2222" data-name="Group 2222" transform="translate(340.938 293.417)">
        <path id="Path_2022" data-name="Path 2022" d="M290.58,130.735a.6.6,0,0,1-.57-.425l-.253-.84a.6.6,0,0,1,1.14-.344l.253.837a.6.6,0,0,1-.4.744A.613.613,0,0,1,290.58,130.735Z" transform="translate(-289.731 -128.703)" fill="#2c3742"/>
      </g>
      <g id="Group_2223" data-name="Group 2223" transform="translate(308.161 201.713)">
        <path id="Path_2023" data-name="Path 2023" d="M276.586,91.837a.6.6,0,0,1-.36-1.071l.5-.382a.6.6,0,0,1,.723.947l-.5.382A.585.585,0,0,1,276.586,91.837Z" transform="translate(-275.99 -90.26)" fill="#2c3742"/>
      </g>
      <g id="Group_2224" data-name="Group 2224" transform="translate(529.042 301.479)">
        <path id="Path_2024" data-name="Path 2024" d="M369.183,134.306a.6.6,0,0,1-.537-.856l.5-1.031a.6.6,0,0,1,1.076.52l-.5,1.03A.6.6,0,0,1,369.183,134.306Z" transform="translate(-368.587 -132.083)" fill="#2c3742"/>
      </g>
      <g id="Group_2227" data-name="Group 2227" transform="translate(583.836 205.927)">
        <path id="Path_2027" data-name="Path 2027" d="M392.153,93.459a.6.6,0,0,1-.236-1.143l.558-.241a.6.6,0,1,1,.472,1.095l-.558.241A.581.581,0,0,1,392.153,93.459Z" transform="translate(-391.557 -92.026)" fill="#2c3742"/>
      </g>
      <g id="Group_2235" data-name="Group 2235" transform="translate(239.927 224.953)">
        <path id="Path_2035" data-name="Path 2035" d="M248.464,101.5a.6.6,0,0,1-.32-.093l-.482-.305a.6.6,0,1,1,.639-1.007l.479.305a.6.6,0,0,1-.317,1.1Z" transform="translate(-247.386 -100.002)" fill="#2c3742"/>
      </g>
      <g id="Group_2238" data-name="Group 2238" transform="translate(549.034 26.305)">
        <path id="Path_2038" data-name="Path 2038" d="M377.562,18.388a.545.545,0,0,1-.15-.021.6.6,0,0,1-.425-.728l.124-.468a.591.591,0,0,1,.728-.425.6.6,0,0,1,.425.73l-.124.468A.6.6,0,0,1,377.562,18.388Z" transform="translate(-376.968 -16.726)" fill="#2c3742"/>
      </g>
      <g id="Group_2246" data-name="Group 2246" transform="translate(304.069 235.25)">
        <path id="Path_2046" data-name="Path 2046" d="M274.871,106.678a.588.588,0,0,1-.384-.141.594.594,0,0,1-.072-.84l.978-1.166a.6.6,0,0,1,.914.77l-.98,1.164A.59.59,0,0,1,274.871,106.678Z" transform="translate(-274.275 -104.319)" fill="#2c3742"/>
      </g>
      <g id="Group_2247" data-name="Group 2247" transform="translate(529.062 272.67)">
        <path id="Path_2047" data-name="Path 2047" d="M369.794,122.2a.6.6,0,0,1-.51-.289l-.6-1a.6.6,0,1,1,1.019-.618l.6,1a.6.6,0,0,1-.2.818A.588.588,0,0,1,369.794,122.2Z" transform="translate(-368.595 -120.006)" fill="#2c3742"/>
      </g>
      <g id="Group_2248" data-name="Group 2248" transform="translate(319.469 87.162)">
        <path id="Path_2048" data-name="Path 2048" d="M281.325,43.607a.6.6,0,0,1-.115-1.181l.892-.177a.6.6,0,1,1,.234,1.169l-.895.177A.486.486,0,0,1,281.325,43.607Z" transform="translate(-280.731 -42.238)" fill="#2c3742"/>
      </g>
      <g id="Group_2252" data-name="Group 2252" transform="translate(594.312 332.618)">
        <path id="Path_2052" data-name="Path 2052" d="M396.567,147.542a.6.6,0,0,1-.6-.587l-.021-1.212a.6.6,0,0,1,.587-.606.613.613,0,0,1,.606.587l.021,1.209a.6.6,0,0,1-.584.608Z" transform="translate(-395.949 -145.137)" fill="#2c3742"/>
      </g>
      <g id="Group_2254" data-name="Group 2254" transform="translate(565.86 3.362)">
        <path id="Path_2054" data-name="Path 2054" d="M386.844,8.525l-.06,0L384.559,8.3a.6.6,0,1,1,.119-1.186l2.226.222a.6.6,0,0,1-.06,1.19Z" transform="translate(-384.022 -7.108)" fill="#2c3742"/>
      </g>
      <g id="Group_2257" data-name="Group 2257" transform="translate(299.617 139.499)">
        <path id="Path_2057" data-name="Path 2057" d="M274.186,66.717a.6.6,0,0,1-.448-.2l-1.181-1.348a.6.6,0,1,1,.9-.785l1.181,1.345a.6.6,0,0,1-.052.842A.61.61,0,0,1,274.186,66.717Z" transform="translate(-272.409 -64.179)" fill="#2c3742"/>
      </g>
      <g id="Group_2258" data-name="Group 2258" transform="translate(280.702 109.591)">
        <path id="Path_2058" data-name="Path 2058" d="M265.607,53.163a.6.6,0,0,1-.315-.091l-.532-.329a.6.6,0,0,1,.63-1.014l.532.329a.6.6,0,0,1-.315,1.1Z" transform="translate(-264.479 -51.641)" fill="#2c3742"/>
      </g>
      <g id="Group_2263" data-name="Group 2263" transform="translate(597.915 5.28)">
        <path id="Path_2063" data-name="Path 2063" d="M398.057,11.395a.6.6,0,0,1-.522-.887l1.274-2.29a.6.6,0,0,1,1.042.58l-1.271,2.29A.6.6,0,0,1,398.057,11.395Z" transform="translate(-397.46 -7.912)" fill="#2c3742"/>
      </g>
      <g id="Group_2264" data-name="Group 2264" transform="translate(556.471 261.47)">
        <path id="Path_2064" data-name="Path 2064" d="M382.489,116.607l-.033,0-1.808-.1a.6.6,0,1,1,.069-1.19l1.808.1a.6.6,0,0,1-.036,1.193Z" transform="translate(-380.086 -115.311)" fill="#2c3742"/>
      </g>
      <g id="Group_2267" data-name="Group 2267" transform="translate(583.682 242.74)">
        <path id="Path_2067" data-name="Path 2067" d="M392.519,109.885a.6.6,0,0,1-.563-.4l-.429-1.236a.593.593,0,0,1,.367-.759.6.6,0,0,1,.759.367l.429,1.236a.6.6,0,0,1-.367.759A.623.623,0,0,1,392.519,109.885Z" transform="translate(-391.493 -107.459)" fill="#2c3742"/>
      </g>
    </g>
  </g>
</svg>
