<svg xmlns="http://www.w3.org/2000/svg" width="326.947" height="42" viewBox="0 0 326.947 42">
  <defs>
    <style>
      .cls-1 {
        fill: #ffbf48;
      }
    </style>
  </defs>
  <g id="Group_1555" data-name="Group 1555" transform="translate(419.897 -657.421) rotate(90)">
    <path id="Path_248" data-name="Path 248" class="cls-1" d="M657.421,95.349l42,42v-2.4l-42-42Z" transform="translate(0 0)"/>
    <path id="Path_249" data-name="Path 249" class="cls-1" d="M657.421,108.162l42,42v-2.4l-42-42Z" transform="translate(0 8.921)"/>
    <path id="Path_250" data-name="Path 250" class="cls-1" d="M657.421,120.975l42,42v-2.4l-42-42Z" transform="translate(0 17.843)"/>
    <path id="Path_251" data-name="Path 251" class="cls-1" d="M657.421,133.788l42,42v-2.4l-42-42Z" transform="translate(0 26.764)"/>
    <path id="Path_252" data-name="Path 252" class="cls-1" d="M657.421,146.6l42,42v-2.4l-42-42Z" transform="translate(0 35.686)"/>
    <path id="Path_253" data-name="Path 253" class="cls-1" d="M657.421,159.414l42,42v-2.4l-42-42Z" transform="translate(0 44.607)"/>
    <path id="Path_254" data-name="Path 254" class="cls-1" d="M657.421,172.227l42,42v-2.4l-42-42Z" transform="translate(0 53.529)"/>
    <path id="Path_255" data-name="Path 255" class="cls-1" d="M657.421,185.04l42,42v-2.4l-42-42Z" transform="translate(0 62.45)"/>
    <path id="Path_256" data-name="Path 256" class="cls-1" d="M657.421,197.853l42,42v-2.4l-42-42Z" transform="translate(0 71.372)"/>
    <path id="Path_257" data-name="Path 257" class="cls-1" d="M657.421,210.666l42,42v-2.4l-42-42Z" transform="translate(0 80.293)"/>
    <path id="Path_258" data-name="Path 258" class="cls-1" d="M657.421,223.479l42,42v-2.4l-42-42Z" transform="translate(0 89.215)"/>
    <path id="Path_259" data-name="Path 259" class="cls-1" d="M657.421,236.292l42,42v-2.4l-42-42Z" transform="translate(0 98.136)"/>
    <path id="Path_260" data-name="Path 260" class="cls-1" d="M657.421,249.105l42,42v-2.4l-42-42Z" transform="translate(0 107.058)"/>
    <path id="Path_261" data-name="Path 261" class="cls-1" d="M657.421,261.918l42,42v-2.4l-42-42Z" transform="translate(0 115.979)"/>
  </g>
</svg>
