<svg xmlns="http://www.w3.org/2000/svg" width="64.502" height="62.357" viewBox="0 0 64.502 62.357"><defs><style>.a{fill:#222;}</style></defs><g transform="translate(-0.001 -0.492)"><path class="a" d="M12.947,40.4a1.215,1.215,0,0,1,.314.976L11.079,59.058a3.376,3.376,0,0,0,4.8,3.457l15.843-7.529a1.221,1.221,0,0,1,1.056,0l15.844,7.529a3.377,3.377,0,0,0,4.8-3.457L51.241,41.372a1.221,1.221,0,0,1,.315-.977l12.05-13.033a3.37,3.37,0,0,0-1.835-5.6L44.517,18.409a1.22,1.22,0,0,1-.843-.617L35.217,2.253a3.379,3.379,0,0,0-5.932,0L20.828,17.792a1.22,1.22,0,0,1-.843.617L2.731,21.766A3.369,3.369,0,0,0,.9,27.362ZM2.211,24.7a1.2,1.2,0,0,1,.93-.82L20.4,20.519a3.364,3.364,0,0,0,2.32-1.7L31.174,3.281a1.267,1.267,0,0,1,2.155,0L41.785,18.82a3.364,3.364,0,0,0,2.321,1.7L61.36,23.877a1.219,1.219,0,0,1,.666,2.026L49.976,38.936a3.363,3.363,0,0,0-.871,2.7l2.182,17.687a1.2,1.2,0,0,1-.5,1.138,1.21,1.21,0,0,1-1.247.113L33.7,53.044a3.368,3.368,0,0,0-2.9,0L14.957,60.573a1.216,1.216,0,0,1-1.247-.113,1.2,1.2,0,0,1-.5-1.138l2.182-17.687a3.363,3.363,0,0,0-.871-2.7L2.476,25.9A1.194,1.194,0,0,1,2.211,24.7Zm0,0" transform="translate(0)"/><path class="a" d="M213.313,283.165a5.376,5.376,0,0,0,10.751,0,1.075,1.075,0,0,0-1.075-1.075h-8.6a1.075,1.075,0,0,0-1.075,1.075Zm8.416,1.075a3.225,3.225,0,0,1-6.082,0Zm0,0" transform="translate(-186.438 -246.121)"/><path class="a" d="M1.292,17.683,4.738,19l1.013,3.655a1.076,1.076,0,0,0,1.9.35l2.121-2.886,3.571.262a1.075,1.075,0,0,0,.97-1.674l-2.122-3.144,1.235-3.478A1.075,1.075,0,0,0,12.119,10.7l-3.42.985L5.847,9.28a1.075,1.075,0,0,0-1.767.815l-.025,3.727L1.084,15.782a1.076,1.076,0,0,0,.208,1.9ZM5.718,15.3a1.075,1.075,0,0,0,.483-.89L6.214,12.4l1.537,1.294a1.075,1.075,0,0,0,.99.211l1.961-.564-.717,2.018a1.075,1.075,0,0,0,.122.961L11.3,18.078l-1.956-.144a1.079,1.079,0,0,0-.945.436L7.232,19.951l-.566-2.044a1.073,1.073,0,0,0-.652-.716l-2-.767Zm0,0" transform="translate(-0.525 -7.46)"/><path class="a" d="M10.908,306.369a1.069,1.069,0,0,0-1.08-.3l-2.47.711L5.3,305.046a1.075,1.075,0,0,0-1.767.814l-.019,2.7-2.144,1.415a1.075,1.075,0,0,0,.207,1.9l2.5.958.735,2.655a1.075,1.075,0,0,0,.842.77,1.028,1.028,0,0,0,.194.018,1.075,1.075,0,0,0,.866-.439l1.529-2.08,2.574.189a1.075,1.075,0,0,0,.97-1.674l-1.541-2.284.9-2.523a1.073,1.073,0,0,0-.23-1.1Zm-3.1,5.2a1.083,1.083,0,0,0-.945.436l-.57.775L6,311.735a1.074,1.074,0,0,0-.652-.717l-1.053-.4.877-.579a1.074,1.074,0,0,0,.483-.89l.007-.979.75.631a1.071,1.071,0,0,0,.99.211l1.01-.291-.377,1.063a1.077,1.077,0,0,0,.122.961l.606.9Zm0,0" transform="translate(-0.77 -265.964)"/><path class="a" d="M429.251,315.836a1.075,1.075,0,0,0,.866.439,1.037,1.037,0,0,0,.195-.018,1.076,1.076,0,0,0,.842-.77l.735-2.655,2.5-.957a1.075,1.075,0,0,0,.208-1.9l-2.144-1.415-.019-2.7a1.075,1.075,0,0,0-1.767-.814l-2.063,1.737-2.47-.711a1.075,1.075,0,0,0-1.311,1.393l.9,2.523-1.54,2.284a1.075,1.075,0,0,0,.97,1.674l2.574-.189Zm-1.325-6.056-.377-1.062,1.009.291a1.077,1.077,0,0,0,.99-.211l.75-.631.007.98a1.074,1.074,0,0,0,.483.89l.877.579-1.054.4a1.075,1.075,0,0,0-.652.717l-.289,1.044L429.1,312a1.075,1.075,0,0,0-.866-.438l-.079,0-.959.07.606-.9A1.077,1.077,0,0,0,427.926,309.779Zm0,0" transform="translate(-370.576 -265.964)"/><path class="a" d="M402.817,11.85l3.571-.262,2.121,2.885a1.075,1.075,0,0,0,1.9-.349l1.013-3.655,3.446-1.321a1.075,1.075,0,0,0,.208-1.9l-2.97-1.961-.026-3.727a1.075,1.075,0,0,0-1.767-.815l-2.851,2.4-3.42-.985a1.075,1.075,0,0,0-1.311,1.392l1.235,3.478-2.122,3.145a1.075,1.075,0,0,0,.97,1.673Zm3.359-5.025-.717-2.017,1.961.564a1.071,1.071,0,0,0,.99-.211l1.537-1.294.014,2.009a1.075,1.075,0,0,0,.483.89l1.7,1.124-2,.767a1.074,1.074,0,0,0-.651.717l-.566,2.044-1.162-1.58A1.075,1.075,0,0,0,406.9,9.4l-.079,0-1.956.144,1.187-1.759a1.073,1.073,0,0,0,.122-.96Zm0,0" transform="translate(-351.058 0)"/><path class="a" d="M60.791,197.056a1.083,1.083,0,0,0,.178-.015l1.613-.269a1.075,1.075,0,0,0-.354-2.121l-1.613.269a1.075,1.075,0,0,0,.176,2.135Zm0,0" transform="translate(-52.192 -169.688)"/><path class="a" d="M205.373,101.768a1.075,1.075,0,0,0,1.443-.481l2.688-5.376a1.075,1.075,0,1,0-1.923-.962l-2.688,5.376a1.076,1.076,0,0,0,.481,1.442Zm0,0" transform="translate(-178.979 -82.039)"/><path class="a" d="M242.71,55.072a1.075,1.075,0,0,0,1.443-.481l.672-1.344a1.075,1.075,0,0,0-1.923-.962l-.672,1.344A1.075,1.075,0,0,0,242.71,55.072Zm0,0" transform="translate(-211.611 -44.749)"/><path class="a" d="M187.715,219.2a1.075,1.075,0,0,0,1.075,1.075h4.3a1.073,1.073,0,0,0,.75-1.842,3.179,3.179,0,0,0,.324-1.383,3.225,3.225,0,1,0-6.45,0,3.181,3.181,0,0,0,.324,1.383,1.069,1.069,0,0,0-.324.767Zm3.225-3.225a1.075,1.075,0,1,1-1.075,1.075A1.075,1.075,0,0,1,190.94,215.974Zm0,0" transform="translate(-164.064 -186.456)"/><path class="a" d="M273.047,219.2a1.075,1.075,0,0,0,1.075,1.075h4.3a1.073,1.073,0,0,0,.751-1.842,3.186,3.186,0,0,0,.324-1.383,3.225,3.225,0,1,0-6.45,0,3.188,3.188,0,0,0,.324,1.383A1.069,1.069,0,0,0,273.047,219.2Zm3.225-3.225a1.075,1.075,0,1,1-1.075,1.075A1.075,1.075,0,0,1,276.272,215.974Zm0,0" transform="translate(-238.646 -186.456)"/></g></svg>