<svg xmlns="http://www.w3.org/2000/svg" width="17.702" height="20.35" viewBox="0 0 17.702 20.35"><defs><style>.a{fill:#fff;}</style></defs><g transform="translate(-393.8 -183.475)"><path class="a" d="M428.7,338.037l6.934,4.006a.3.3,0,0,0,.3,0l6.155-3.551,2.17,1.28L435.786,329.1l-3.191,4.031h3.434l1.861,2.428h-7.222Z" transform="translate(-33.135 -138.26)"/><path class="a" d="M402.651,186.921l8.851,11.173v-9.377a.3.3,0,0,0-.152-.263l-8.548-4.936a.3.3,0,0,0-.3,0l-8.548,4.936a.3.3,0,0,0-.152.263v9.377Z"/></g></svg>