<svg xmlns="http://www.w3.org/2000/svg" width="42" height="42" viewBox="0 0 42 42"><defs><style>.a{fill:#fff;}</style></defs><path class="a" d="M21,42a21,21,0,1,1,16.058-7.465,21.221,21.221,0,0,1-2.478,2.484A21.006,21.006,0,0,1,21,42ZM21,2.625A18.376,18.376,0,0,0,6.949,32.842a18.59,18.59,0,0,0,2.17,2.175,18.377,18.377,0,0,0,23.763,0,18.589,18.589,0,0,0,2.17-2.176A18.376,18.376,0,0,0,21,2.625Z"/><path class="a" d="M167.875,79.75a7.875,7.875,0,1,1,7.875-7.875A7.884,7.884,0,0,1,167.875,79.75Zm0-13.125a5.25,5.25,0,1,0,5.25,5.25A5.256,5.256,0,0,0,167.875,66.625Z" transform="translate(-146.875 -58.75)"/><path class="a" d="M107.169,242.956a1.314,1.314,0,0,1-1.274-1.632,11.823,11.823,0,0,0-11.285-14.7h-.346a11.823,11.823,0,0,0-11.285,14.7,1.312,1.312,0,0,1-2.546.639A14.441,14.441,0,0,1,94.233,224h.409a14.448,14.448,0,0,1,13.8,17.962A1.313,1.313,0,0,1,107.169,242.956Z" transform="translate(-73.438 -205.625)"/></svg>