<svg xmlns="http://www.w3.org/2000/svg" xmlns:xlink="http://www.w3.org/1999/xlink" width="635.279" height="399.519" viewBox="0 0 635.279 399.519">
  <defs>
    <radialGradient id="radial-gradient" cx="0.5" cy="0.5" r="0.5" gradientTransform="translate(0)" gradientUnits="objectBoundingBox">
      <stop offset="0.233" stop-color="#687686"/>
      <stop offset="0.414" stop-color="#8e99a5" stop-opacity="0.745"/>
      <stop offset="0.814" stop-color="#dfe2e5" stop-opacity="0.212"/>
      <stop offset="1" stop-color="#fff" stop-opacity="0"/>
    </radialGradient>
    <radialGradient id="radial-gradient-2" cx="0.5" cy="0.5" r="0.5" gradientTransform="matrix(1, 0, 0, 1, 0, 0)" xlink:href="#radial-gradient"/>
  </defs>
  <g id="Group_1544" data-name="Group 1544" transform="translate(-181.443 -148.497)">
    <g id="Group_1543" data-name="Group 1543" transform="translate(181.443 149.004)">
      <g id="Group_1522" data-name="Group 1522" transform="translate(55.548 107.057)">
        <path id="Path_172" data-name="Path 172" d="M745.945,249.57h0A17.151,17.151,0,0,1,763.1,232.417H450.573A17.152,17.152,0,0,0,433.42,249.57h0a17.152,17.152,0,0,0,17.153,17.151H763.1A17.151,17.151,0,0,1,745.945,249.57Z" transform="translate(-353.294 -201.423)" fill="#e7f2fe"/>
        <path id="Path_173" data-name="Path 173" d="M806.409,274.176H788.5a10.516,10.516,0,0,1-10.516-10.516h0a10.517,10.517,0,0,0-10.516-10.516H485.15a10.517,10.517,0,0,1,10.516,10.516h0a10.517,10.517,0,0,1-10.516,10.516H466.384a19.565,19.565,0,0,0-19.566,19.564h0a19.566,19.566,0,0,0,19.566,19.566H806.409a19.566,19.566,0,0,0,19.566-19.566h0A19.564,19.564,0,0,0,806.409,274.176Z" transform="translate(-344.518 -187.847)" fill="#e7f2fe"/>
        <path id="Path_174" data-name="Path 174" d="M828.715,305.014H419.27a22.417,22.417,0,0,1,22.417,22.417h0a22.417,22.417,0,0,1-22.417,22.417H828.715a22.418,22.418,0,0,0,22.419-22.417h0A22.418,22.418,0,0,0,828.715,305.014Z" transform="translate(-362.562 -153.87)" fill="#e7f2fe"/>
        <path id="Path_175" data-name="Path 175" d="M752.41,229.393h-9.435a7.852,7.852,0,0,1-7.852-7.851h0a7.852,7.852,0,0,0-7.853-7.851H501.559a7.852,7.852,0,0,0-7.853,7.851h0a7.852,7.852,0,0,0,7.853,7.851H534.5a7.646,7.646,0,0,1,7.646,7.646h0a7.646,7.646,0,0,1-7.646,7.645H752.41a7.645,7.645,0,0,0,7.644-7.645h0A7.645,7.645,0,0,0,752.41,229.393Z" transform="translate(-313.805 -213.69)" fill="#e7f2fe"/>
        <path id="Path_176" data-name="Path 176" d="M423.323,352.583h12.636A10.516,10.516,0,0,1,446.475,363.1h0a10.516,10.516,0,0,0,10.516,10.516H798.724A10.516,10.516,0,0,0,809.24,363.1h0a10.516,10.516,0,0,0-10.516-10.516H754.6a10.24,10.24,0,0,1-10.24-10.24h0A10.24,10.24,0,0,1,754.6,332.1H423.323a10.24,10.24,0,0,0-10.24,10.24h0A10.24,10.24,0,0,0,423.323,352.583Z" transform="translate(-366.615 -136.126)" fill="#e7f2fe"/>
        <path id="Path_177" data-name="Path 177" d="M808.646,302.336A12.842,12.842,0,0,1,821.488,289.5H397.849a12.842,12.842,0,1,0,0,25.684H821.488A12.842,12.842,0,0,1,808.646,302.336Z" transform="translate(-385.006 -164.036)" fill="#e7f2fe"/>
      </g>
      <path id="Path_178" data-name="Path 178" d="M924.142,388.125c0,5.218-118.452,9.45-264.569,9.45S395,393.343,395,388.125s118.452-9.449,264.571-9.449S924.142,382.906,924.142,388.125Z" transform="translate(-322.91 1.437)" fill="#e7f2fe"/>
      <g id="Group_1530" data-name="Group 1530" transform="translate(202.343 31.755)">
        <path id="Path_179" data-name="Path 179" d="M619.677,378.111v16.141h-5.25l-1.312-3.019-3.229,3.019H591.068s.707-2.938,1.625-3.332,13.465-6.643,13.992-7.3,3.28-7.087,3.28-7.087Z" transform="translate(-396.825 -31.72)" fill="#133a50"/>
        <path id="Path_180" data-name="Path 180" d="M599.8,378.111v16.141h-5.25l-1.312-3.019-1.574,3.019H571.191s.707-2.938,1.625-3.332,13.467-6.643,13.992-7.3,3.28-7.087,3.28-7.087Z" transform="translate(-409.845 -31.72)" fill="#133a50"/>
        <path id="Path_181" data-name="Path 181" d="M608.672,198.684a25.736,25.736,0,0,0,2.1,10.887c.985,2.711,10.246,5.864,10.246,5.864s-28,31.116-38.815,30.919,4.725-29.342,4.725-29.342,4.531-2.756,5.518-5.713,1.576-9.659,1.576-9.659L606.7,185.416Z" transform="translate(-405.137 -156.908)" fill="#fec4ad"/>
        <path id="Path_182" data-name="Path 182" d="M586.4,174.779c-1.839,1.183-4.992,3.679-5.124,5.518s-.788,7.226-.525,10.379.394,11.3.919,14.976.99,8.671,1.875,9.328,9.687.92,11.526,0,10.9-9.985,10.509-17.866c0,0,3.482,1.642,6.241-5.453.718-1.85-5.466-8.939-6.228-11.1-1.852-5.255-12.494-3.81-15.383-4.2S586.4,174.779,586.4,174.779Z" transform="translate(-403.622 -163.876)" fill="#fec4ad"/>
        <path id="Path_183" data-name="Path 183" d="M582.032,184.612s1.051-2.5,3.153-1.445,6.569,1.708,9.985,1.445a23.659,23.659,0,0,0,6.7-1.7s0,4.856.92,6.17,3.022,2.89,3.153,4.467a21.806,21.806,0,0,1,0,3.153s2.1-2.759,3.81-2.233,1.708,3.414,0,4.728a28.483,28.483,0,0,1-3.416,2.234,21.037,21.037,0,0,0,.394,3.941c.394,1.708,1.183,4.6,1.183,4.6s3.677-9.985,6.7-14.056,4.467-12.481-1.445-15.633a9.66,9.66,0,0,0-8.277-9.328c-8.277-1.445-15.5.657-19.049-.526s-4.467-2.233-4.467-2.233-3.021,6.043-1.312,9.985A24.559,24.559,0,0,1,582.032,184.612Z" transform="translate(-404.377 -168.191)" fill="#7b2b1a"/>
        <path id="Path_184" data-name="Path 184" d="M623.831,267.487s4.922,32,5.041,62.828-2.853,127.712-2.853,127.712h-13.29s-12.116-93.805-17.1-113.621-14.622-81.1-14.622-81.1Z" transform="translate(-403.414 -105.89)" fill="#133a50"/>
        <path id="Path_185" data-name="Path 185" d="M602.885,299.059s.819,50.278.321,59.526-3.31,99.482-3.31,99.482-12.453.314-12.453,0S575.7,363.206,574.181,340.418s-.629-53.111-2.65-56.263,5.452-20.986,5.452-20.986l17.628,4.4Z" transform="translate(-409.849 -105.977)" fill="#133a50"/>
        <path id="Path_186" data-name="Path 186" d="M620.055,201.3l17.573,9.5s4.449,17.909,4.2,25.2-10.309,79.6-10.309,79.6-25.15,3.055-37.8,0-21.371-5.852-21.371-5.852,4.366-70.572,5.362-77.859,3.487-21.861,3.487-21.861l9.9-5.112,5.49,4.232Z" transform="translate(-409.085 -146.506)" fill="#396283"/>
        <path id="Path_187" data-name="Path 187" d="M585.04,207.416l2.1,7.087,3.675.262,5.512-8.4-8.047-.328Z" transform="translate(-400.774 -143.401)" fill="#133a50"/>
        <path id="Path_188" data-name="Path 188" d="M608.17,199.1,587,210.582l8.574,7.152,14.89-15Z" transform="translate(-399.492 -147.945)" fill="#aebfde"/>
        <path id="Path_189" data-name="Path 189" d="M589.733,208.816l-6.912,5.578,1.422-9.809,2.253-2.79Z" transform="translate(-402.227 -146.179)" fill="#aebfde"/>
        <path id="Path_190" data-name="Path 190" d="M609.579,230.317l-16.861-1.655v-3.712l16.861,1.655Z" transform="translate(-395.744 -131.013)" fill="#aebfde"/>
        <path id="Path_191" data-name="Path 191" d="M598.561,183.744c-.055-.634-2.243-.874-3.81-.887s-5.75-.05-6.683.435-.945.914-1.4.9-.419-.427-1.344-.927-2.028-.334-3.6-.348a8.02,8.02,0,0,0-2.135.132c-.46.139-.386.753-.3,1.769a17.206,17.206,0,0,0,.766,3.633c.472,1.471,1.018,1.915,2.823,1.882,2.617-.048,2.468-2.565,2.823-3.618s.563-1.19.955-1.187.64.146.98,1.2.354,3.406,2.934,3.85c3.38.581,5.01-.28,5.769-2.168,1.031-2.559.887-2.585,1.178-2.794.134-.1.914-.3.975-.649A5.224,5.224,0,0,0,598.561,183.744Zm-13.824,3.883c-.276,1.336-.526,2.3-2.233,2.286-1.589-.013-1.938-1.149-2.183-2.042-.452-1.655-.372-3-.043-3.391s.513-.521,2.469-.4,2,.026,2.2.824A8.494,8.494,0,0,1,584.736,187.626Zm11.315-.116a3.281,3.281,0,0,1-3.7,2.668c-3.078-.043-3.5-1.178-3.762-2.519a8.483,8.483,0,0,1-.171-2.726c.214-.793.866-.824,2.822-.917s4.566-.177,4.889.223S596.58,185.88,596.052,187.51ZM607.8,185.6s-1.319-2.132-2.633-2.208c-2.771-.159-8.446-.417-8.446-.417l1.683,2.2,6.656.369a1.487,1.487,0,0,1,.533-.137c.389.048,1.173.928,1.173.928A3.725,3.725,0,0,1,607.8,185.6Z" transform="translate(-404.583 -158.589)" fill="#21295b"/>
        <g id="Group_1523" data-name="Group 1523" transform="translate(14.947 183.218)">
          <path id="Path_192" data-name="Path 192" d="M496.31,394.571c1.307-14.246,1.693-26.851.591-32.783-4.707-25.3-14.167-82.894-14.167-82.894l31.5,1.6s1.115,79.847,1.393,82.726c.677,7-3.777,32.993-6,50.733-1.667,13.282-1.359,23.063-.69,25.386,1.564,5.428,12.942,13.617,12.942,13.617a5.4,5.4,0,0,1-4.205,3.638c-2.456.564-8.265-3.341-10.278-4.245-4.9-2.2-9.48-7.363-9.48-7.363C501.353,435.575,494.745,411.628,496.31,394.571Z" transform="translate(-482.734 -278.895)" fill="#fec1b2"/>
          <path id="Path_193" data-name="Path 193" d="M491.9,379.316s1.776-.8,3.977,1.182c2.977,2.688,7.2,6.158,10.619,7.628,5.937,2.555,9.367-.839,9.367-.839a43.339,43.339,0,0,1,6.708,3.438c4.672,2.848-3.585,4.316-14.885,2.732-2.478-.348-9.632-4.023-10.508-4.07-.9-.048-1.408,2.807-2.151,2.807-1.312,0-1.524.262-1.524.262l-1.448-7.345Z" transform="translate(-476.728 -213.222)" fill="#133a50"/>
        </g>
        <g id="Group_1524" data-name="Group 1524" transform="translate(0.271 178.045)">
          <path id="Path_194" data-name="Path 194" d="M478.48,393.8c2.963-14,6.076-27.953,5.672-33.974-1.721-25.671-5.758-56.617-5-81.78.21-7.044,29.484,4.5,29.484,4.5S500.8,362,500.743,364.889c-.146,7.029-7.024,32.361-11.307,49.72-3.206,12.994-4.042,22.745-3.649,25.13.919,5.574,11.264,15.038,11.264,15.038a5.4,5.4,0,0,1-4.6,3.121c-2.5.273-7.818-4.283-9.71-5.417-4.609-2.762-8.555-8.419-8.555-8.419C478.7,435.113,474.933,410.559,478.48,393.8Z" transform="translate(-473.659 -275.769)" fill="#fec1b2"/>
          <path id="Path_195" data-name="Path 195" d="M474.389,377.483s1.857-.593,3.811,1.639c2.643,3.015,6.436,6.956,9.654,8.815,5.6,3.231,9.4.262,9.4.262a43.445,43.445,0,0,1,6.259,4.2c4.306,3.376-4.063,3.869-15.1.976-2.418-.634-9.1-5.121-9.96-5.27-.89-.152-1.726,2.623-2.464,2.537-1.3-.154-1.544.083-1.544.083l-.579-7.464Z" transform="translate(-473.866 -209.191)" fill="#133a50"/>
        </g>
        <path id="Path_196" data-name="Path 196" d="M515.674,317.795c-.569.25,7.036,42.074,6.455,42.233-19.106,5.245-46.457-1.417-48.218-1.321,2.641-10.567,4.882-47.33,2.348-57.722-4.4-18.051,1.845-33.756,10.592-42.777s23.783-7.055,23.783-7.055l4,26.4s5.091,9.223,5.38,19.438c.106,3.719-.172,11.079-.68,19.155C518.113,316.7,516.9,317.255,515.674,317.795Z" transform="translate(-473.566 -113.968)" fill="#133a50"/>
        <path id="Path_197" data-name="Path 197" d="M517.165,237.223c-12.125,2.58-27.23-5.275-37.218-13.376l4.1-13.922,17.411-23.836s10.678-.235,12.649,11.491-1.645,20.921,2.655,37.567A19.724,19.724,0,0,1,517.165,237.223Z" transform="translate(-469.612 -156.467)" fill="#382728"/>
        <g id="Group_1525" data-name="Group 1525" transform="translate(27.442 65.615)">
          <path id="Path_198" data-name="Path 198" d="M536.2,227.239c1.635-.74,3.891-3.631,4.838-5.414.438-.828,1.928-2.046,2.062-3.29a19.3,19.3,0,0,1,1.394-5.006c.635-1.129,1.4-2.737,2.239-2.635s.892.819.571,1.7a10.5,10.5,0,0,0,.091,3.967c.167.374,2.271-1.177,3.611-2.857s2.259-4.546,3.017-5.518,1.94.379,1.94.379,1.4.172,1.811.861a9.52,9.52,0,0,1,1.062,2.243c.194.733-.306,1.433.108,2.123a2.391,2.391,0,0,1,0,2.613c-.617.988-5.379,7.057-6.355,8.072s-9.012,5.313-11.9,8.08c0,0-.513.329-2.064-1.491A17.306,17.306,0,0,1,536.2,227.239Z" transform="translate(-460.208 -207.837)" fill="#fec1b2"/>
          <path id="Path_199" data-name="Path 199" d="M496.828,216.92c-5.493-.156-9.179,9.917-4.2,17.752s28.716,19.334,43.976,21.3c1.438.185,2.349.288,5.382-1.266,10.756-5.51,25.492-19.365,34.721-28.738a18.33,18.33,0,0,1-7.954-6.936s-27.339,21.141-31.995,21.459c0,0-7.479-2.059-21.613-12.762C504.961,220.011,502.67,217.084,496.828,216.92Z" transform="translate(-490.284 -201.888)" fill="#ffbf48"/>
        </g>
        <path id="Path_200" data-name="Path 200" d="M501.682,221.911c-1.837,0-4.925-2.545-2.231-8.53l-11.511-3.828s-2.574,7.712-5.943,12.227,10.945,32.207,19.217,33.554,11.157-9.041,11.157-9.041L506.5,225.9Z" transform="translate(-468.599 -141.098)" fill="#fec1b2"/>
        <path id="Path_201" data-name="Path 201" d="M504.207,215.78c-2.774,2.231-5.445,10.245-5.346,14.544l-17.71,3.644a196.149,196.149,0,0,0,5.7-20.026c1.763-8.614-.073-12.251-.073-12.251Z" transform="translate(-468.823 -146.247)" fill="#fec1b2"/>
        <path id="Path_202" data-name="Path 202" d="M509.158,192.67a16.682,16.682,0,0,1,2.818,7.972c.161,1.733-.612,3.464.467,5.01s4.753,4.128,5.136,5.031-2.173,2.8-2.433,3.446-1.24,5.86-1.678,8.5-6.407,2.784-10.336,1.826-9.72-4.285-11.953-5.592-5.48-8.5-5.48-8.5l-2.908-14.131a11.609,11.609,0,0,1,11.16-7.8C502.78,188.395,506.843,189.707,509.158,192.67Z" transform="translate(-467.749 -154.925)" fill="#fec1b2"/>
        <path id="Path_203" data-name="Path 203" d="M499.056,213.937c-1.969.415-3.423,11.567-.329,18.977-9.238,2.832-13.7-.056-20.524-3.469-2.363-3.411-5.6-28.845,5.145-37.888,17.929-15.087,28.091.889,28.091.889S507.828,210.253,499.056,213.937Z" transform="translate(-472.307 -157.133)" fill="#382728"/>
        <path id="Path_204" data-name="Path 204" d="M489.065,350.941c-4.417-8.326-11.721-58.323-11.236-66.492.8-13.409,8.244-21.213,18.743-24.488,8.3-2.587,20.787,2.418,20.787,2.418l3.7,20.287s8.439,46.483,11.895,67.5C532.116,350.648,503.906,360.212,489.065,350.941Z" transform="translate(-471.015 -108.566)" fill="#133a50"/>
        <path id="Path_205" data-name="Path 205" d="M487.875,216.521a32.636,32.636,0,0,1,10.847,7.926c5.1,5.64,12.184,12.6,14.025,11.784s-2.881-16.426-6.177-18.884l5.644,1.837s4.887,13.311,7.509,17.767,6.6,10.612,6.417,16.554-3.886,14.384-3.345,19.473-.132,31.23-.132,31.23a77.5,77.5,0,0,1-24.506,3.343c-12.691-.561-20.047-3.128-24.125-.563,0,0,5.854-21.4,7.347-33.9,1.094-9.164-1.9-17.82-4.118-27.962s-4.79-15.8-1.364-21.016S487.875,216.521,487.875,216.521Z" transform="translate(-473.487 -136.534)" fill="#ffb200"/>
        <path id="Path_206" data-name="Path 206" d="M502.517,260.6c-11.4-11.458-18.748-25.9-24.445-40.97a12.392,12.392,0,0,0-2.176,2.451c-3.426,5.217-.854,10.875,1.364,21.016s5.212,18.8,4.118,27.962c-1.491,12.5-7.347,33.9-7.347,33.9,4.078-2.565,11.435,0,24.125.563a77.5,77.5,0,0,0,24.506-3.343s.124-24.771-.06-33.579C514.955,265.4,508.5,266.608,502.517,260.6Z" transform="translate(-473.487 -134.499)" fill="#ffbf48"/>
        <path id="Path_207" data-name="Path 207" d="M500.428,188.572c2.532,3.106,2.378,7.86.257,11.257s-5.87,5.536-9.763,6.486" transform="translate(-462.424 -154.841)" fill="none" stroke="#382728" stroke-miterlimit="10" stroke-width="0.224"/>
        <g id="Group_1526" data-name="Group 1526" transform="translate(0 81.621)">
          <path id="Path_208" data-name="Path 208" d="M523.4,249.628c1.839.386,5.533-.667,7.434-1.589.882-.429,2.893-.538,3.775-1.5a20.209,20.209,0,0,1,4.272-3.373c1.235-.561,2.875-1.448,3.52-.842s.248,1.243-.568,1.791a11,11,0,0,0-2.375,3.409c-.089.419,2.646.409,4.818-.184s4.72-2.448,5.96-2.8,1.405,1.519,1.405,1.519,1.076,1.01,1,1.845a9.916,9.916,0,0,1-.487,2.554c-.29.74-1.143,1.023-1.221,1.86a2.5,2.5,0,0,1-1.615,2.209c-1.132.453-8.906,2.641-10.357,2.9s-10.9-1.077-15.056-.526c0,0-.637-.038-.823-2.535A18.04,18.04,0,0,1,523.4,249.628Z" transform="translate(-441.385 -201.389)" fill="#fec1b2"/>
          <path id="Path_209" data-name="Path 209" d="M485.919,217.749c-5.591-1.357-11.574,3.03-12.2,12.73s23.046,27.26,34.732,38.347c1.1,1.044,1.807,1.695,5.332,2.254a397.688,397.688,0,0,0,44.56,5.061s.323-4.826.872-10.778c0,0-32.352-4.335-41.578-10.081,0,0-6.554-4.2-12.3-14.938C499.029,228.55,493.747,219.649,485.919,217.749Z" transform="translate(-473.703 -217.508)" fill="#ffbf48"/>
        </g>
        <g id="Group_1528" data-name="Group 1528" transform="translate(196.058 64.19)">
          <path id="Path_210" data-name="Path 210" d="M610.837,277.9s-1.458,4.457-1.983,5.682,3.85,2.974,3.85,2.974l1.749-5.424Z" transform="translate(-581.261 -160.516)" fill="#fec4ad"/>
          <g id="Group_1527" data-name="Group 1527" transform="translate(0 122.134)">
            <rect id="Rectangle_1863" data-name="Rectangle 1863" width="69.884" height="53.894" transform="translate(0 6.171)" fill="#1d567a"/>
            <path id="Path_211" data-name="Path 211" d="M662.049,300.916l-35.83,6.218-34.054-6.218V286.11h69.884Z" transform="translate(-592.165 -277.274)" fill="#cfcfcf" style="mix-blend-mode: multiply;isolation: isolate"/>
            <path id="Path_212" data-name="Path 212" d="M662.049,299.306l-35.83,6.218-34.054-6.218V284.5h69.884Z" transform="translate(-592.165 -278.329)" fill="#1d567a"/>
            <path id="Path_213" data-name="Path 213" d="M605.031,289.844s4.449-7.108,6.3-8.136c2.362-1.312,14.043-1.182,15.223,0s6.3,8.4,6.3,8.4" transform="translate(-583.737 -280.771)" fill="none" stroke="#364469" stroke-miterlimit="10" stroke-width="1.417"/>
            <rect id="Rectangle_1864" data-name="Rectangle 1864" width="9.476" height="15.102" transform="translate(29.02 21.273)" fill="#133a50"/>
          </g>
          <path id="Path_214" data-name="Path 214" d="M614.989,272.91l-2.026,5.253-2.928,3.012.7,4.7.29,5.71,8.924-1.051a10.264,10.264,0,0,0,.981-4.752,47.9,47.9,0,0,1,.165-6.5c.217-1.357.929-5.3.929-5.3Z" transform="translate(-580.459 -163.787)" fill="#fec4ad"/>
          <path id="Path_215" data-name="Path 215" d="M616.494,318.887l11.158,1.091s3.884-40.826,3.813-42.91.549-49.568-5.136-60.556c-4.6-8.9-11.741-10.859-17.76-8.775s-3.5,15.9-3.5,15.9l9.167,53.787Z" transform="translate(-584.053 -206.976)" fill="#396283"/>
          <path id="Path_216" data-name="Path 216" d="M617.35,270.263a8.366,8.366,0,0,1-5.875-1.006l.482,8.846,11.158,1.091s.4-4.194.938-9.953C621.814,269.538,619.578,269.867,617.35,270.263Z" transform="translate(-579.516 -166.191)" fill="#aebfde"/>
        </g>
        <g id="Group_1529" data-name="Group 1529" transform="translate(93.263 64.102)">
          <path id="Path_217" data-name="Path 217" d="M534.241,241.8a18.845,18.845,0,0,0-.851,3.8l2.656,1.129,2.017-1.357,3.186.228Z" transform="translate(-527.869 -184.076)" fill="#fec4ad"/>
          <path id="Path_218" data-name="Path 218" d="M549.805,244l-6.37.629-4.566-1.339-1.912,1.339-6.9,7.989,8.23,3.729h4.194s2.549-2.891,4.035-3.348,5.852-1.708,5.852-1.708Z" transform="translate(-530.054 -183.1)" fill="#fec4ad"/>
          <path id="Path_219" data-name="Path 219" d="M538.9,268.339l4.171,9.922s48.259-10.787,50.081-12.229,29.771-35.178,29.771-35.178-2.127-16.434-8.2-20.183a23.548,23.548,0,0,0-11.239-3.749l-23.836,43.251Z" transform="translate(-524.262 -206.923)" fill="#396283"/>
          <path id="Path_220" data-name="Path 220" d="M548.761,241.375l-9.864,4.4,4.171,9.922s3.835-.857,9.382-2.12Q550.506,247.5,548.761,241.375Z" transform="translate(-524.262 -184.356)" fill="#aebfde"/>
        </g>
        <path id="Path_221" data-name="Path 221" d="M588.413,211.152s-4.462,50.92-5.248,56.695,5.248,12.073,5.248,12.073,4.988-7.611,5.25-9.975-1.574-58.53-1.574-58.53Z" transform="translate(-402.048 -140.05)" fill="#133a50"/>
      </g>
      <g id="Group_1531" data-name="Group 1531" transform="translate(567.47 226.292)">
        <path id="Path_222" data-name="Path 222" d="M684.379,408.024c1.314-10.509,14.013-26.275,14.452-36.785s-7.883-12.262-7.883-12.262.73-16.5-5.255-23.715c-4.507-5.437-9.634-2.56-9.634-2.56s-6.878-24.777-19.27-18.831c-10.948,5.255,3.067,21.9,3.942,24.086s-6.777,3.047-1.46,14.743c2.919,6.423,11.532,11.532,11.532,11.532s-5.986,6.277-2.628,12.7c4.94,9.452,11.387,24.086,11.387,33.283Z" transform="translate(-652.628 -279.907)" fill="#53aac4"/>
        <path id="Path_223" data-name="Path 223" d="M663.346,327.619s8.174,10.218,13.138,50.506c4.065,32.993,4.379,40,4.379,40l3.5-8.174S676.484,342.8,663.346,327.619Z" transform="translate(-645.608 -270.299)" fill="#4894ab"/>
        <path id="Path_224" data-name="Path 224" d="M691.925,333.194c8.322-20.582,12.262-43.353,3.942-39.85-12.355,5.2-12.262,38.536-12.262,38.536s-7.883,7.007-10.509,29.342c-.45,3.821-.8,8.343-1.063,13.2-4.128.381-7.459,5.453-6.383,20.519.746,10.437,8.758,46.419,8.758,46.419s.877-10.948,11.387-35.034,2.628-29.34,2.628-29.34C697.87,342.436,691.925,333.194,691.925,333.194Z" transform="translate(-644.233 -292.985)" fill="#84f9ff"/>
        <path id="Path_225" data-name="Path 225" d="M669.745,412.064c3.161-39.6,18.488-106.162,18.488-106.162S675.1,375.094,670.4,421.981Z" transform="translate(-641.417 -284.524)" fill="#72e2e8"/>
        <path id="Path_226" data-name="Path 226" d="M669.855,384.286c2.031-7.587,1.114-17.378,2.284-23.074s5.612-3.8,5.612-3.8-.192-8.535,3.707-13.856,8.734-2.259,8.734-2.259,4.209-9.126,11.448-11.079,10.357,4.892,4.369,11.421l-5.988,6.529s5.036.993,4.591,7.944-11.555,7.516-11.555,7.516,5.563,4.316-1.15,9.589-12.126,7.009-15.805,14.155C676.1,387.371,669.4,385.969,669.855,384.286Z" transform="translate(-641.359 -268.819)" fill="#61c3e2"/>
        <path id="Path_227" data-name="Path 227" d="M670.578,385.935a128.683,128.683,0,0,1,22.255-44.389s-18.459,26.29-20.211,51.4Z" transform="translate(-640.871 -261.176)" fill="#53aac4"/>
        <path id="Path_228" data-name="Path 228" d="M706.6,360.41H659.087v3.649h2.868l5.677,40.143h30.423l5.677-40.143H706.6Z" transform="translate(-648.398 -248.82)" fill="#43899e"/>
      </g>
      <g id="Group_1533" data-name="Group 1533" transform="translate(115.511)">
        <path id="Path_229" data-name="Path 229" d="M517.234,152.544l1.43,37.131a3.68,3.68,0,0,1-2.751,3.7l-22.955,5.973a3.674,3.674,0,0,0-2.344,5.256c1.256,2.378,3.3,5.023,6.385,5.8,0,0-11.395,2.158-17.123-3.547a3.99,3.99,0,0,0-3.482-.834l-32.718,9.023A3.68,3.68,0,0,1,439.3,212.9l-17.782-43.08a3.68,3.68,0,0,1,2.759-5.026l88.637-15.736A3.681,3.681,0,0,1,517.234,152.544Z" transform="translate(-421.237 -149.004)" fill="none" stroke="#ff4d52" stroke-miterlimit="10" stroke-width="1"/>
        <g id="Group_1532" data-name="Group 1532" transform="translate(37.104 29.631)">
          <path id="Path_230" data-name="Path 230" d="M446.619,178.464a2.963,2.963,0,0,1-.748-5.831,2.92,2.92,0,0,1,.753-.1,2.964,2.964,0,0,1,.748,5.831A2.922,2.922,0,0,1,446.619,178.464Z" transform="translate(-443.656 -163.222)" fill="#ff4d52"/>
          <path id="Path_231" data-name="Path 231" d="M457.378,175.652a2.965,2.965,0,0,1-.748-5.834,3.058,3.058,0,0,1,.751-.1,2.965,2.965,0,0,1,0,5.93Z" transform="translate(-436.608 -165.065)" fill="#ff4d52"/>
          <path id="Path_232" data-name="Path 232" d="M468.137,172.838a2.967,2.967,0,1,1,.751-.1A2.963,2.963,0,0,1,468.137,172.838Z" transform="translate(-429.561 -166.908)" fill="#ff4d52"/>
        </g>
      </g>
      <g id="Group_1535" data-name="Group 1535" transform="translate(460.411 11.517)">
        <path id="Path_233" data-name="Path 233" d="M631.24,159.4l-1.605,47.392a3.55,3.55,0,0,0,2.387,3.476l26.227,9.081a3.525,3.525,0,0,1,2.268,4.275c-.793,2.757-2.557,6.426-6.415,7.529,0,0,11.3,2.64,17.331-4.338a3.607,3.607,0,0,1,3.808-1l35.274,11.057a3.553,3.553,0,0,0,4.4-2.176l19.786-54.48a3.551,3.551,0,0,0-2.635-4.694l-96.574-19.485A3.551,3.551,0,0,0,631.24,159.4Z" transform="translate(-629.633 -155.963)" fill="none" stroke="#11cfe7" stroke-miterlimit="10" stroke-width="1"/>
        <g id="Group_1534" data-name="Group 1534" transform="translate(25.859 42.255)">
          <path id="Path_234" data-name="Path 234" d="M646.683,186.994a2.964,2.964,0,0,1,2.382-5.376,3.04,3.04,0,0,1,.7.306,2.964,2.964,0,0,1-2.382,5.376A2.9,2.9,0,0,1,646.683,186.994Z" transform="translate(-645.258 -181.494)" fill="#11cfe7"/>
          <path id="Path_235" data-name="Path 235" d="M657.344,190.16a2.972,2.972,0,1,1,.693.306A2.965,2.965,0,0,1,657.344,190.16Z" transform="translate(-638.274 -179.421)" fill="#11cfe7"/>
          <path id="Path_236" data-name="Path 236" d="M668.006,193.325a2.964,2.964,0,0,1,2.38-5.376,2.875,2.875,0,0,1,.7.306,2.965,2.965,0,0,1-3.075,5.069Z" transform="translate(-631.292 -177.347)" fill="#11cfe7"/>
        </g>
      </g>
      <g id="Group_1538" data-name="Group 1538" transform="translate(456.736 109.59)">
        <circle id="Ellipse_3" data-name="Ellipse 3" cx="37.05" cy="37.05" r="37.05" transform="translate(9.977 33.056)" fill="url(#radial-gradient)" style="mix-blend-mode: multiply;isolation: isolate"/>
        <g id="Group_1537" data-name="Group 1537" transform="translate(0 0)">
          <circle id="Ellipse_4" data-name="Ellipse 4" cx="35.749" cy="35.749" r="35.749" transform="matrix(0.951, -0.31, 0.31, 0.951, 0, 22.15)" fill="#fff"/>
          <circle id="Ellipse_5" data-name="Ellipse 5" cx="30.978" cy="30.978" r="30.978" transform="translate(14.087 14.087)" fill="#ffbf48"/>
          <g id="Group_1536" data-name="Group 1536" transform="translate(28.36 31.483)">
            <path id="Path_237" data-name="Path 237" d="M657.346,261.928a2.912,2.912,0,0,1-2.108-.905l-9.892-10.413a2.908,2.908,0,0,1,4.219-4.005l7.759,8.168,18.2-19.6a2.909,2.909,0,0,1,4.263,3.959L659.48,261a2.916,2.916,0,0,1-2.117.93Z" transform="translate(-644.548 -234.243)" fill="#fff"/>
          </g>
        </g>
      </g>
      <g id="Group_1540" data-name="Group 1540" transform="translate(0 278.679)">
        <rect id="Rectangle_1865" data-name="Rectangle 1865" width="147.723" height="62.807" rx="9.372" fill="#e95557"/>
        <g id="Group_1539" data-name="Group 1539" transform="translate(21.747 21.901)">
          <path id="Path_238" data-name="Path 238" d="M372.155,336.663l1.871,5.387,5.7.115-4.545,3.444,1.653,5.458-4.68-3.258-4.68,3.258,1.653-5.458-4.545-3.444,5.7-.115Z" transform="translate(-364.583 -336.663)" fill="#ffb200"/>
          <path id="Path_239" data-name="Path 239" d="M385.612,336.663l1.871,5.387,5.7.115-4.545,3.444,1.653,5.458-4.68-3.258-4.68,3.258,1.653-5.458-4.545-3.444,5.7-.115Z" transform="translate(-355.768 -336.663)" fill="#ffb200"/>
          <path id="Path_240" data-name="Path 240" d="M399.069,336.663l1.871,5.387,5.7.115-4.545,3.444,1.653,5.458-4.68-3.258-4.68,3.258,1.653-5.458-4.545-3.444,5.7-.115Z" transform="translate(-346.954 -336.663)" fill="#ffb200"/>
          <path id="Path_241" data-name="Path 241" d="M412.525,336.663l1.871,5.387,5.7.115-4.545,3.444,1.653,5.458-4.68-3.258-4.68,3.258,1.653-5.458-4.545-3.444,5.7-.115Z" transform="translate(-338.139 -336.663)" fill="#ffb200"/>
          <path id="Path_242" data-name="Path 242" d="M425.982,336.663l1.871,5.387,5.7.115-4.545,3.444,1.653,5.458-4.68-3.258-4.68,3.258,1.653-5.458-4.545-3.444,5.7-.115Z" transform="translate(-329.325 -336.663)" fill="#133a50"/>
        </g>
      </g>
      <g id="Group_1542" data-name="Group 1542" transform="translate(102.112 226.05)">
        <circle id="Ellipse_6" data-name="Ellipse 6" cx="29.105" cy="29.105" r="29.105" transform="translate(9.161 27.291)" fill="url(#radial-gradient-2)" style="mix-blend-mode: multiply;isolation: isolate"/>
        <g id="Group_1541" data-name="Group 1541" transform="translate(0 0)">
          <circle id="Ellipse_7" data-name="Ellipse 7" cx="28.083" cy="28.083" r="28.083" transform="matrix(0.385, -0.923, 0.923, 0.385, 0, 51.845)" fill="#fff"/>
          <circle id="Ellipse_8" data-name="Ellipse 8" cx="24.336" cy="24.336" r="24.336" transform="translate(7.422 54.775) rotate(-76.632)" fill="#71e7fd"/>
          <path id="Path_243" data-name="Path 243" d="M428.782,311.71l7.771,8.18L452.5,302.712" transform="translate(-402.895 -274.371)" fill="none" stroke="#fff" stroke-linecap="round" stroke-linejoin="round" stroke-width="2.761"/>
        </g>
      </g>
    </g>
  </g>
</svg>
