<svg xmlns="http://www.w3.org/2000/svg" width="81" height="81" viewBox="0 0 81 81"><defs><style>.a{fill:#1da9f7;}</style></defs><path class="a" d="M54.455,176.939l12.535-12.554a1.35,1.35,0,1,0-1.912-1.907L51.59,175.987a1.348,1.348,0,0,0,0,1.908l13.5,13.5A1.35,1.35,0,1,0,67,189.483Z" transform="translate(-43.096 -136.44)"/><path class="a" d="M360.707,162.546a1.35,1.35,0,1,0-1.909,1.909L371.343,177l-12.535,12.554a1.351,1.351,0,0,0,1.912,1.909l13.488-13.509a1.348,1.348,0,0,0,0-1.908Z" transform="translate(-301.702 -136.498)"/><path class="a" d="M282.9,162.183a1.346,1.346,0,0,0-1.681.9l-8.1,27a1.353,1.353,0,0,0,.906,1.682,1.379,1.379,0,0,0,.387.057,1.351,1.351,0,0,0,1.293-.963l8.1-27A1.351,1.351,0,0,0,282.9,162.183Z" transform="translate(-229.866 -136.476)"/><path class="a" d="M63.45,0H17.55A17.57,17.57,0,0,0,0,17.55v45.9A17.57,17.57,0,0,0,17.55,81h45.9A17.57,17.57,0,0,0,81,63.45V17.55A17.57,17.57,0,0,0,63.45,0ZM78.3,63.45A14.868,14.868,0,0,1,63.45,78.3H17.55A14.868,14.868,0,0,1,2.7,63.45V17.55A14.868,14.868,0,0,1,17.55,2.7h45.9A14.868,14.868,0,0,1,78.3,17.55v45.9Z"/><path class="a" d="M190,332.8h-9.45a1.35,1.35,0,1,0,0,2.7H190a1.35,1.35,0,1,0,0-2.7Z" transform="translate(-150.851 -280.15)"/></svg>