<svg xmlns="http://www.w3.org/2000/svg" width="80.631" height="80.631" viewBox="0 0 80.631 80.631"><defs><style>.a{fill:#e95557;}</style></defs><g transform="translate(-1 -1)"><path class="a" d="M19,45h1.568v1.568H19Z" transform="translate(5.719 13.979)"/><path class="a" d="M23,45h1.568v1.568H23Z" transform="translate(6.99 13.979)"/><path class="a" d="M15,45h1.568v1.568H15Z" transform="translate(4.448 13.979)"/><path class="a" d="M75.128,11.4H37.748A19.5,19.5,0,1,0,11.4,37.748V59.522a6.51,6.51,0,0,0,6.5,6.5H36.065a7.423,7.423,0,0,1-2.986,5.2H29.611a6.51,6.51,0,0,0-6.5,6.5,3.906,3.906,0,0,0,3.9,3.9H66.025a3.906,3.906,0,0,0,3.9-3.9,6.51,6.51,0,0,0-6.5-6.5H59.957a7.423,7.423,0,0,1-2.986-5.2H75.128a6.51,6.51,0,0,0,6.5-6.5V17.906A6.51,6.51,0,0,0,75.128,11.4ZM19.207,39.949c.432.029.861.066,1.3.066a19.469,19.469,0,0,0,15.57-7.8h9.14v-10.4H39.949c.029-.432.066-.861.066-1.3s-.038-.869-.066-1.3H73.828V53.02H19.207Zm8.6-28.577a11.752,11.752,0,0,0-1.646-1.107l1.994-4.816a17.023,17.023,0,0,1,3.341,2.234Zm-4.05-2.1a11.6,11.6,0,0,0-1.947-.391V3.667a16.789,16.789,0,0,1,3.946.778ZM19.207,8.88a11.648,11.648,0,0,0-6,2.492L9.522,7.683a16.81,16.81,0,0,1,9.685-4.016Zm1.3,2.524a9.1,9.1,0,1,1-9.1,9.1A9.115,9.115,0,0,1,20.507,11.4ZM33.332,9.522a16.927,16.927,0,0,1,2.234,3.341L30.75,14.857a11.866,11.866,0,0,0-1.107-1.646Zm4.016,9.685H32.135a11.6,11.6,0,0,0-.391-1.947l4.826-2A16.723,16.723,0,0,1,37.348,19.207Zm-5.212,2.6h5.212a16.789,16.789,0,0,1-.778,3.946l-4.826-2A11.6,11.6,0,0,0,32.135,21.808Zm7.487,2.6h2.994v5.2H37.748A19.376,19.376,0,0,0,39.622,24.409ZM3.6,20.507A16.812,16.812,0,0,1,7.683,9.522l3.688,3.688a11.7,11.7,0,1,0,19.38,12.948l4.816,1.994A16.894,16.894,0,0,1,3.6,20.507ZM67.325,77.729a1.3,1.3,0,0,1-1.3,1.3H27.01a1.3,1.3,0,0,1-1.3-1.3,3.906,3.906,0,0,1,3.9-3.9H63.424A3.906,3.906,0,0,1,67.325,77.729Zm-11.017-6.5H36.726a10.01,10.01,0,0,0,1.94-5.2h15.7a10.02,10.02,0,0,0,1.939,5.2Zm22.721-11.7a3.906,3.906,0,0,1-3.9,3.9H17.906a3.906,3.906,0,0,1-3.9-3.9V38.877a19.234,19.234,0,0,0,2.6.745v13.4a2.6,2.6,0,0,0,2.6,2.6H73.828a2.6,2.6,0,0,0,2.6-2.6V19.207a2.6,2.6,0,0,0-2.6-2.6H39.622a19.234,19.234,0,0,0-.745-2.6H75.128a3.906,3.906,0,0,1,3.9,3.9Z" transform="translate(0 0)"/><path class="a" d="M47,23.272h6.272V17H47Zm1.568-4.7H51.7V21.7H48.568Z" transform="translate(22.087 6.032)"/><path class="a" d="M43.272,17H37v6.272h6.272ZM41.7,21.7H38.568V18.568H41.7Z" transform="translate(13.573 6.032)"/><path class="a" d="M27.192,33h-4.7v1.568H17v1.568h5.488V37.7h4.7V36.136h19.6V34.568h-19.6Zm-1.568,3.136H24.056V34.568h1.568Z" transform="translate(28.566 11.387)"/><path class="a" d="M37,27H51.112v1.568H37Z" transform="translate(24.246 8.261)"/><path class="a" d="M37,31h1.568v1.568H37Z" transform="translate(11.438 9.531)"/><path class="a" d="M41,31H51.976v1.568H41Z" transform="translate(23.383 9.531)"/></g></svg>