<svg xmlns="http://www.w3.org/2000/svg" width="80.547" height="80.546" viewBox="0 0 80.547 80.546"><defs><style>.a{fill:#ffbf48;}</style></defs><g transform="translate(-1 -1)"><path class="a" d="M76.52,31.6a9.045,9.045,0,0,0,5.026-8.134V16.59a9.105,9.105,0,0,0-8.539-9.077L69.919,4.425A11.612,11.612,0,0,0,61.652,1H55.666a9.2,9.2,0,0,0-5.745,16.377l2.21,1.768a60.077,60.077,0,0,0-.465,6.539v1.3h2.6v.905a6.89,6.89,0,0,0,6.889,6.889h.352c.186,0,.369-.04.553-.055v4.705l-2.414.483a2.6,2.6,0,0,0-1.462.857l-1.56,1.82a25.934,25.934,0,0,0-3.935,6.219L45.17,56.325v-4.9A17.95,17.95,0,0,0,27.223,33.478h-.24V32.135a7.867,7.867,0,0,0,6.77-4.939,14.236,14.236,0,0,0,1.025-5.319V16.59a6.436,6.436,0,0,0-.542-2.581,10.056,10.056,0,0,0,3.14-7.274A5.735,5.735,0,0,0,31.641,1H21.183a12.408,12.408,0,0,0-8.86,3.73,13.266,13.266,0,0,0-3.528,9.261,11.028,11.028,0,0,0,3.93,8.455,7.513,7.513,0,0,0,2.185,4.7l.381.379v5.973A14.66,14.66,0,0,0,1,48.16v11.3A14.268,14.268,0,0,0,6.2,70.476v11.07H37.376V73.751h3.491a11.615,11.615,0,0,0,8.268-3.425l1.234-1.234V81.546H81.547V48.878A11.5,11.5,0,0,0,75.188,38.59l-1.437-.718v-4.89ZM51.544,15.348A6.6,6.6,0,0,1,55.666,3.6h5.986a9.037,9.037,0,0,1,6.431,2.663l3.831,3.832h.538a6.5,6.5,0,0,1,6.5,6.5v6.875a6.459,6.459,0,0,1-3.591,5.81l-2.593,1.3A7.06,7.06,0,0,1,71.443,27.9a10.272,10.272,0,0,1-.257-1.52,5.747,5.747,0,0,0,2.566-4.592,5.2,5.2,0,0,0-5.2-5.2h-.177a5.06,5.06,0,0,0-1.59-2.418,10.954,10.954,0,0,0-7.327-2.779,14.741,14.741,0,0,0-5.777,1.436l-.569.285-.125.622c-.166.831-.31,1.64-.438,2.419ZM62.555,43.871h-1.8l0-1.533,2.849-.569ZM61.13,58.752,59.5,55.819l1.113-9.35h1.7l1.856,8.353A24.53,24.53,0,0,1,61.13,58.752Zm4.9-7.541-1.3-5.871,2.108-4.216,2.406-.481-2.247,7.865A24.971,24.971,0,0,1,66.031,51.21ZM64.657,34.284l4.152-.83L68.3,30.906,62.346,32.1a4.328,4.328,0,0,1-.841.082h-.352a4.292,4.292,0,0,1-4.291-4.291v-3.5H54.3A68.791,68.791,0,0,1,55.41,14.9a11.471,11.471,0,0,1,4.051-.913,8.386,8.386,0,0,1,5.61,2.131,2.238,2.238,0,0,1,.886,1.767v1.3h2.6a2.6,2.6,0,0,1,2.6,2.6,3.535,3.535,0,0,1-1.88,2.735l-.718.36v.8a12,12,0,0,0,.364,2.83A9.713,9.713,0,0,0,71.153,32.7v4.913l-6.5,1.3Zm-6.5,10.55v.26l-.816,6.848-1.755-3.159A23.276,23.276,0,0,1,58.162,44.834Zm-15.59,6.592v7.5l-.7.7a3.927,3.927,0,0,1-2.758,1.142H37.376V52.965h-2.6V60.76H24.384V57.12l8.257-20.055a15.347,15.347,0,0,1,9.931,14.361Zm-5.2,15.97a3.762,3.762,0,0,1-3.732,3.757H29.581v-7.8h3.905A3.945,3.945,0,0,1,37.376,67.4Zm-12.5-31.319-1.3,2.6H21.29l-1.3-2.6Zm1.665,8.967-.811-4.867L27.774,36.1a15.376,15.376,0,0,1,2.349.257Zm-9.46-8.967,2.05,4.1-.646,3.871-3.718-7.9c.3-.023.6-.07.909-.07Zm4.5,5.2h1.7L24.67,49.6,23,53.643l-2.57-5.462Zm10.592-19.4a11.649,11.649,0,0,1-.839,4.353,5.331,5.331,0,0,1-7.907,2.457L21.207,27.2l-1.441,2.162,2.227,1.485a7.916,7.916,0,0,0,2.39,1.057v1.572h-6.5V26.445L16.745,25.3a4.946,4.946,0,0,1-1.455-3.517,1.3,1.3,0,0,1,1.3-1.3h1.3v-3.9a3.9,3.9,0,0,1,3.9-3.9h6.5a3.9,3.9,0,0,1,3.9,3.9ZM13.435,19.5a8.368,8.368,0,0,1-2.042-5.511,10.675,10.675,0,0,1,2.85-7.509A9.76,9.76,0,0,1,21.183,3.6H31.641a3.136,3.136,0,0,1,3.136,3.136A7.435,7.435,0,0,1,32.7,11.858a6.452,6.452,0,0,0-4.42-1.764h-6.5a6.5,6.5,0,0,0-6.5,6.5v1.521A3.912,3.912,0,0,0,13.435,19.5ZM3.6,59.461V48.16a12.054,12.054,0,0,1,8.525-11.541l9.663,20.535V60.76H13.991V52.965h-2.6V60.76a2.6,2.6,0,0,0,2.59,2.6h13v7.8H15.29A11.706,11.706,0,0,1,3.6,59.461ZM34.777,78.948H8.795V72.174a14.181,14.181,0,0,0,6.5,1.577H34.777ZM47.3,68.49a9.035,9.035,0,0,1-6.431,2.663H38.714a6.492,6.492,0,0,0-.081-7.795h.486a6.548,6.548,0,0,0,4.6-1.9l7.211-7.211a25.821,25.821,0,0,0-.56,5.254v5.921ZM52.965,59.5a23.37,23.37,0,0,1,1.324-7.709l4.889,8.8c-.178.151-.346.31-.529.457l-.487.391V78.948h-5.2Zm21.06-18.583a8.906,8.906,0,0,1,4.922,7.964v30.07H71.153V58.162h-2.6V78.948H60.76V62.675a27.214,27.214,0,0,0,8.731-13.452l2.615-9.152.164-.032Z" transform="translate(0 0)"/><ellipse class="a" cx="1.5" cy="1" rx="1.5" ry="1" transform="translate(63 71.546)"/><circle class="a" cx="1.5" cy="1.5" r="1.5" transform="translate(63 65.546)"/></g></svg>