<svg xmlns="http://www.w3.org/2000/svg" width="48.421" height="48.421" viewBox="0 0 48.421 48.421"><defs><style>.a{fill:#fff;}</style></defs><g transform="translate(0 0.001)"><path class="a" d="M8.516,37.445a3.948,3.948,0,0,0-1.908.487,22.329,22.329,0,0,1,22.047-35.6A.946.946,0,0,0,29.029.479,24.39,24.39,0,0,0,24.21,0a24.21,24.21,0,0,0-19,39.214,3.974,3.974,0,1,0,3.306-1.769Zm1.471,5.443a2.08,2.08,0,1,1,.61-1.471A2.066,2.066,0,0,1,9.987,42.888Zm0,0" transform="translate(0)"/><path class="a" d="M222.017,38.225a3.964,3.964,0,1,0-1.4,1.283,22.329,22.329,0,0,1-22,35.607.946.946,0,0,0-.371,1.855,24.407,24.407,0,0,0,4.774.471,24.21,24.21,0,0,0,19-39.215Zm-4.777-.731a2.081,2.081,0,1,1,1.471.609A2.067,2.067,0,0,1,217.241,37.494Zm0,0" transform="translate(-178.808 -29.02)"/><path class="a" d="M87.3,107.478a.946.946,0,0,0,.946.946h5.913a.946.946,0,0,0,.946-.946v-1.833a14.81,14.81,0,0,0,3.549-1.471l1.294,1.294a.945.945,0,0,0,1.338,0l4.18-4.183a.946.946,0,0,0,0-1.337l-1.293-1.293a14.81,14.81,0,0,0,1.471-3.549h1.826a.946.946,0,0,0,.946-.946V88.247a.946.946,0,0,0-.946-.946h-1.827a14.812,14.812,0,0,0-1.471-3.549l1.286-1.286a.946.946,0,0,0,0-1.338l-4.183-4.18a.946.946,0,0,0-1.337,0l-1.284,1.284A14.81,14.81,0,0,0,95.1,76.762V74.946A.946.946,0,0,0,94.154,74H88.241a.946.946,0,0,0-.946.946v1.817a14.8,14.8,0,0,0-3.549,1.471l-1.284-1.284a.946.946,0,0,0-1.337,0l-4.183,4.18a.945.945,0,0,0,0,1.338l1.286,1.286A14.807,14.807,0,0,0,76.756,87.3H74.933a.946.946,0,0,0-.946.945l0,5.913a.945.945,0,0,0,.946.946h1.826a14.809,14.809,0,0,0,1.471,3.549l-1.293,1.293a.946.946,0,0,0,0,1.337l4.18,4.183a.946.946,0,0,0,.669.277h0a.946.946,0,0,0,.669-.277l1.294-1.294a14.822,14.822,0,0,0,3.549,1.471Zm-3.178-5.293a.946.946,0,0,0-1.182.126l-1.151,1.151-2.843-2.845,1.15-1.151a.945.945,0,0,0,.126-1.182,12.944,12.944,0,0,1-1.791-4.323.946.946,0,0,0-.925-.747H75.876l0-4.022H77.5a.946.946,0,0,0,.925-.747,12.946,12.946,0,0,1,1.791-4.323.945.945,0,0,0-.126-1.182L78.948,81.8l2.845-2.843L82.934,80.1a.946.946,0,0,0,1.182.126,12.939,12.939,0,0,1,4.323-1.791.946.946,0,0,0,.747-.925V75.891h4.022v1.615a.945.945,0,0,0,.747.925,12.95,12.95,0,0,1,4.323,1.791A.945.945,0,0,0,99.46,80.1l1.142-1.142,2.845,2.843L102.3,82.94a.945.945,0,0,0-.126,1.182,12.954,12.954,0,0,1,1.791,4.323.945.945,0,0,0,.925.747h1.625v4.022h-1.625a.946.946,0,0,0-.925.747,12.943,12.943,0,0,1-1.791,4.323.946.946,0,0,0,.126,1.182l1.15,1.15-2.843,2.845L99.46,102.31a.946.946,0,0,0-1.182-.126,12.953,12.953,0,0,1-4.323,1.791.946.946,0,0,0-.747.925v1.632H89.186V104.9a.946.946,0,0,0-.747-.925,12.946,12.946,0,0,1-4.323-1.791Zm0,0" transform="translate(-66.988 -67.002)"/><path class="a" d="M189,181.185A7.814,7.814,0,1,0,181.186,189,7.823,7.823,0,0,0,189,181.185Zm-13.737,0a5.923,5.923,0,1,1,5.923,5.923A5.929,5.929,0,0,1,175.263,181.185Zm0,0" transform="translate(-156.976 -156.976)"/><path class="a" d="M339.024,19.7a.947.947,0,1,0-.668-.277A.953.953,0,0,0,339.024,19.7Zm0,0" transform="translate(-306.106 -16.125)"/><path class="a" d="M155.3,474.359a.946.946,0,1,0,.669.277A.953.953,0,0,0,155.3,474.359Zm0,0" transform="translate(-139.761 -429.499)"/></g></svg>