<svg xmlns="http://www.w3.org/2000/svg" width="47.93" height="47.93" viewBox="0 0 47.93 47.93"><defs><style>.a{fill:#fff;}</style></defs><path class="a" d="M42.7,0a5.228,5.228,0,0,0-4.6,7.721L29.54,16.287a6.925,6.925,0,0,0-8.536,0L14.321,9.6a3.44,3.44,0,0,0,.494-1.759,3.486,3.486,0,1,0-3.486,3.486,3.44,3.44,0,0,0,1.759-.494l6.683,6.683a6.927,6.927,0,0,0,0,8.536L8.736,37.091a5.176,5.176,0,1,0,1.089,1.375L21,27.286A6.931,6.931,0,0,0,24.4,28.7v8.854a5.229,5.229,0,1,0,1.743,0V28.7a6.931,6.931,0,0,0,3.4-1.411l6.683,6.683a3.438,3.438,0,0,0-.495,1.76,3.486,3.486,0,1,0,3.486-3.486,3.44,3.44,0,0,0-1.759.494l-6.683-6.683a6.927,6.927,0,0,0,0-8.536L39.2,9.1A5.225,5.225,0,1,0,42.7,0ZM9.586,7.843a1.743,1.743,0,1,1,1.743,1.743A1.745,1.745,0,0,1,9.586,7.843Zm-4.357,36.6a3.486,3.486,0,1,1,3.486-3.486A3.489,3.489,0,0,1,5.229,44.445ZM28.758,42.7a3.486,3.486,0,1,1-3.486-3.486A3.489,3.489,0,0,1,28.758,42.7ZM25.272,27.015A5.229,5.229,0,1,1,30.5,21.787,5.234,5.234,0,0,1,25.272,27.015ZM40.959,35.73a1.743,1.743,0,1,1-1.743-1.743A1.745,1.745,0,0,1,40.959,35.73ZM42.7,8.715a3.486,3.486,0,1,1,3.486-3.486A3.489,3.489,0,0,1,42.7,8.715Z"/></svg>