<svg xmlns="http://www.w3.org/2000/svg" width="48.365" height="48.365" viewBox="0 0 48.365 48.365"><defs><style>.a{fill:#fff;}</style></defs><g transform="translate(0 -0.48)"><path class="a" d="M47.653,1.194a2.416,2.416,0,0,0-2.3-.639L31.625,4.136a5.655,5.655,0,0,0-2.673,1.5l-28,28.005a3.236,3.236,0,0,0,0,4.577l9.68,9.68a3.236,3.236,0,0,0,4.577,0L30.644,32.461V46.4a2.417,2.417,0,0,0,2.417,2.417H45.949A2.417,2.417,0,0,0,48.365,46.4V2.879a2.407,2.407,0,0,0-.712-1.685ZM14.066,46.76a1.626,1.626,0,0,1-2.3,0l-9.68-9.68a1.628,1.628,0,0,1,0-2.3L30.093,6.775A4.07,4.07,0,0,1,32.018,5.7L45.746,2.117a.861.861,0,0,1,.2-.024.814.814,0,0,1,.564.241.8.8,0,0,1,.219.756L43.145,16.843a4.069,4.069,0,0,1-1.074,1.912L30.88,29.946ZM46.754,46.4a.805.805,0,0,1-.805.805H33.06a.805.805,0,0,1-.806-.805V30.85L43.21,19.9a5.645,5.645,0,0,0,1.5-2.658l2.048-7.847Zm0,0" transform="translate(0 -0.002)"/><path class="a" d="M356.1,90.858a3.222,3.222,0,1,0-3.222-3.222A3.222,3.222,0,0,0,356.1,90.858Zm0-4.833a1.611,1.611,0,1,1-1.611,1.611A1.611,1.611,0,0,1,356.1,86.025Zm0,0" transform="translate(-319.013 -75.88)"/><path class="a" d="M78.839,309.439c-1.633.742-2.675,1.143-3.369.449a2.091,2.091,0,0,1,0-3.418,2.421,2.421,0,0,1,3.418,0,.805.805,0,1,0,1.139-1.139,4.032,4.032,0,0,0-5.7,0,3.666,3.666,0,0,0,0,5.7c1.53,1.535,3.554.617,5.175-.121s2.674-1.142,3.369-.449a2.549,2.549,0,0,1,0,3.418,2.417,2.417,0,0,1-3.418,0,.805.805,0,0,0-1.139,1.139,4.032,4.032,0,0,0,5.7,0,4.134,4.134,0,0,0,0-5.7c-1.533-1.534-3.552-.617-5.175.121Zm0,0" transform="translate(-65.97 -274.529)"/><path class="a" d="M153.985,227.882l-3.417,3.418-3.418-3.418,3.418-3.418a.806.806,0,0,0-1.14-1.139l-3.418,3.418-2.848-2.848,3.418-3.417a.806.806,0,0,0-1.139-1.139l-3.417,3.417a1.612,1.612,0,0,0,0,2.278l7.4,7.405a1.612,1.612,0,0,0,2.278,0l3.417-3.418a.806.806,0,1,0-1.139-1.139Zm0,0" transform="translate(-127.967 -197.65)"/><path class="a" d="M236.115,156.473l-3.418-3.418a4.43,4.43,0,0,0-6.265,6.265l3.418,3.418a4.43,4.43,0,1,0,6.265-6.265Zm-1.139,5.126a2.823,2.823,0,0,1-3.987,0l-3.418-3.418a2.819,2.819,0,0,1,3.987-3.987l3.418,3.418a2.819,2.819,0,0,1,0,3.987Zm0,0" transform="translate(-203.547 -136.779)"/><path class="a" d="M404.849,395.774a.806.806,0,1,1-.806-.806A.806.806,0,0,1,404.849,395.774Zm0,0" transform="translate(-364.539 -356.629)"/><path class="a" d="M362.465,349.443a4,4,0,0,0-.59-1.412l.631-.631a.805.805,0,0,0-1.139-1.139l-.631.631a3.994,3.994,0,0,0-1.413-.59v-.886a.806.806,0,1,0-1.611,0v.886a4,4,0,0,0-1.412.59l-.631-.631a.805.805,0,0,0-1.139,1.139l.631.631a4,4,0,0,0-.59,1.413h-.886a.806.806,0,0,0,0,1.611h.886a4,4,0,0,0,.59,1.412l-.631.631a.806.806,0,1,0,1.139,1.139l.631-.631a4,4,0,0,0,1.413.59v.886a.806.806,0,1,0,1.611,0V354.2a4,4,0,0,0,1.412-.59l.631.631a.805.805,0,0,0,1.139-1.139l-.631-.631a4,4,0,0,0,.59-1.413h.886a.806.806,0,0,0,0-1.611Zm-3.947,3.222a2.417,2.417,0,1,1,2.417-2.417A2.417,2.417,0,0,1,358.518,352.665Zm0,0" transform="translate(-319.013 -311.104)"/><path class="a" d="M1.821,87.4l.236-.236v6.916a.805.805,0,1,0,1.611,0V87.163L3.9,87.4A.805.805,0,1,0,5.043,86.26L3.432,84.649a.806.806,0,0,0-1.139,0L.682,86.26A.805.805,0,0,0,1.821,87.4Zm0,0" transform="translate(-0.412 -75.878)"/><path class="a" d="M78.4,10.951a.806.806,0,0,0,.806-.806V3.23l.236.236a.806.806,0,0,0,1.139-1.139L78.973.716a.805.805,0,0,0-1.139,0L76.224,2.327a.806.806,0,0,0,1.139,1.139L77.6,3.23v6.916a.806.806,0,0,0,.806.806Zm0,0" transform="translate(-68.704)"/><path class="a" d="M162.338,52.114a.806.806,0,0,0,.806-.806V45.2l.236.236a.805.805,0,0,0,1.139-1.139l-1.611-1.611a.805.805,0,0,0-1.139,0L160.158,44.3a.805.805,0,0,0,1.139,1.139l.236-.236v6.111a.805.805,0,0,0,.805.806Zm0,0" transform="translate(-144.583 -37.941)"/></g></svg>