<svg xmlns="http://www.w3.org/2000/svg" width="48.089" height="48.089" viewBox="0 0 48.089 48.089"><defs><style>.a{fill:#fff;}</style></defs><path class="a" d="M2.4,38.471H20.839a.8.8,0,1,0,0-1.6H2.4a.8.8,0,0,1-.8-.8V8.015H41.677V20.037a.8.8,0,1,0,1.6,0V2.4a2.4,2.4,0,0,0-2.4-2.4H2.4A2.4,2.4,0,0,0,0,2.4V36.067A2.4,2.4,0,0,0,2.4,38.471ZM2.4,1.6H40.876a.8.8,0,0,1,.8.8V6.412H1.6V2.4A.8.8,0,0,1,2.4,1.6Z"/><circle class="a" cx="1" cy="1" r="1" transform="translate(3 3.089)"/><circle class="a" cx="1" cy="1" r="1" transform="translate(6 3.089)"/><ellipse class="a" cx="0.5" cy="1" rx="0.5" ry="1" transform="translate(10 3.089)"/><path class="a" d="M41.8,5.6h5.61a.8.8,0,1,0,0-1.6H41.8a.8.8,0,1,0,0,1.6Z" transform="translate(-8.139 -0.794)"/><path class="a" d="M24.236,26.625V15.4a2.4,2.4,0,0,0-2.4-2.4H7.4A2.4,2.4,0,0,0,5,15.4V26.625a2.4,2.4,0,0,0,2.4,2.4H21.831A2.4,2.4,0,0,0,24.236,26.625Zm-17.633,0V15.4a.8.8,0,0,1,.8-.8H21.831a.8.8,0,0,1,.8.8V26.625a.8.8,0,0,1-.8.8H7.4A.8.8,0,0,1,6.6,26.625Z" transform="translate(-0.993 -2.581)"/><path class="a" d="M21.675,17.336a.8.8,0,0,0-1.118-.187l-5.145,3.675-5.145-3.675a.8.8,0,1,0-.931,1.3l4.7,3.355-4.7,3.355a.8.8,0,0,0,.931,1.3l5.145-3.675,5.145,3.675a.8.8,0,0,0,.931-1.3l-4.7-3.355,4.7-3.355a.8.8,0,0,0,.187-1.118Z" transform="translate(-1.787 -3.375)"/><path class="a" d="M50.64,27.427A3.171,3.171,0,0,0,49,27.892a3.171,3.171,0,0,0-4.809-2.4,3.168,3.168,0,0,0-4.774-2.424V16.206a3.206,3.206,0,1,0-6.412,0V27.938l-3.079,3.695A4.014,4.014,0,0,0,29,34.2v4.281a4,4,0,0,0,.673,2.223l3.735,5.6a2.4,2.4,0,0,1,.4,1.334v2.235a.8.8,0,0,0,.8.8H49.037a.8.8,0,0,0,.8-.8V47.494a2.4,2.4,0,0,1,.3-1.168l3.2-5.761a4.024,4.024,0,0,0,.5-1.947V30.633a3.206,3.206,0,0,0-3.206-3.206Zm1.6,11.191a2.4,2.4,0,0,1-.3,1.168l-3.2,5.761a4.024,4.024,0,0,0-.5,1.947v1.573H35.412V47.633a4,4,0,0,0-.673-2.223L31,39.812a2.4,2.4,0,0,1-.4-1.334V34.2a2.41,2.41,0,0,1,.561-1.539l1.843-2.217v5a.8.8,0,1,0,1.6,0V16.206a1.6,1.6,0,0,1,3.206,0v16.03a.8.8,0,0,0,1.6,0V25.824a1.6,1.6,0,1,1,3.206,0v6.412a.8.8,0,0,0,1.6,0V28.228a1.6,1.6,0,1,1,3.206,0v4.007a.8.8,0,0,0,1.6,0v-1.6a1.6,1.6,0,1,1,3.206,0Z" transform="translate(-5.757 -2.581)"/><path class="a" d="M5.8,36.6H10.61a.8.8,0,1,0,0-1.6H5.8a.8.8,0,1,0,0,1.6Z" transform="translate(-0.993 -6.948)"/><path class="a" d="M23.213,35H16.8a.8.8,0,1,0,0,1.6h6.412a.8.8,0,1,0,0-1.6Z" transform="translate(-3.176 -6.948)"/><path class="a" d="M5.8,40.6H21.03a.8.8,0,1,0,0-1.6H5.8a.8.8,0,1,0,0,1.6Z" transform="translate(-0.993 -7.742)"/></svg>