<svg xmlns="http://www.w3.org/2000/svg" width="48.061" height="48.036" viewBox="0 0 48.061 48.036"><defs><style>.a{fill:#fff;}</style></defs><g transform="translate(-0.993)"><path class="a" d="M45.85,0H21.823a3.2,3.2,0,0,0-3.2,3.2V6.68A20.812,20.812,0,0,0,6.453,41.264a.59.59,0,0,1,.088.08c9.034,9.307,22.674,8.53,30.571,0a.071.071,0,0,0,.064-.056,20.72,20.72,0,0,0,4.9-18.862H45.85a3.2,3.2,0,0,0,3.2-3.2V3.2A3.2,3.2,0,0,0,45.85,0ZM29.76,24.773c0,.545.048,1.1.056,1.658H27.269Zm11.285,3.26a19.1,19.1,0,0,1-4.613,11.7,20.464,20.464,0,0,0-6.087-2.627,41.816,41.816,0,0,0,1.089-9.074Zm-38.444,0h9.611a41.816,41.816,0,0,0,1.105,9.074A20.464,20.464,0,0,0,7.23,39.734,19.1,19.1,0,0,1,2.6,28.032Zm4.637-13.3a20.415,20.415,0,0,0,6.111,2.635,41.648,41.648,0,0,0-1.137,9.066H2.6A19.126,19.126,0,0,1,7.238,14.729Zm11.381,1.93a30.275,30.275,0,0,1-3.3-.481,16.891,16.891,0,0,1,3.3-6.463Zm-4.862-.849a18.974,18.974,0,0,1-5.406-2.267A19.126,19.126,0,0,1,17.57,8.5,18.029,18.029,0,0,0,13.757,15.81Zm0,22.842a18.213,18.213,0,0,0,3.828,7.32,19.174,19.174,0,0,1-9.243-5.054,19.222,19.222,0,0,1,5.4-2.267Zm1.6-.36a32.918,32.918,0,0,1,13.007,0c-3.3,10.861-9.747,10.877-13.047,0Zm14.585.36a19.222,19.222,0,0,1,5.4,2.267,19.174,19.174,0,0,1-9.267,5.054,18.213,18.213,0,0,0,3.828-7.32Zm-1.161-1.906a34.44,34.44,0,0,0-13.84,0,40.318,40.318,0,0,1-1.129-8.714h8.81a.8.8,0,0,0,.8.8c.3,0,.36-.08,1.442-.8h4.966a40.318,40.318,0,0,1-1.089,8.714ZM22.623,26.43h-8.81a40.351,40.351,0,0,1,1.065-8.706,31.9,31.9,0,0,0,3.716.545v.953a3.2,3.2,0,0,0,3.2,3.2.8.8,0,0,1,.8.8Zm18.421,0H31.434c0-.913-.056-1.81-.12-2.683l1.962-1.322H40.42A18.75,18.75,0,0,1,41.045,26.43Zm6.407-7.208a1.6,1.6,0,0,1-1.6,1.6H33.035c-.352,0,.344-.392-8.81,5.711V23.227a2.4,2.4,0,0,0-2.4-2.4,1.6,1.6,0,0,1-1.6-1.6V3.2a1.6,1.6,0,0,1,1.6-1.6H45.85a1.6,1.6,0,0,1,1.6,1.6Z" transform="translate(0 0)"/><path class="a" d="M33.405,5A4.413,4.413,0,0,0,29,9.405v5.206a.8.8,0,1,0,1.6,0v-3.2h5.606v3.2a.8.8,0,0,0,1.6,0V9.405A4.413,4.413,0,0,0,33.405,5ZM30.6,9.806v-.4a2.8,2.8,0,0,1,5.606,0v.4Z" transform="translate(-5.576 -0.995)"/><path class="a" d="M52.81,11.4h-3.2V9.8a.8.8,0,1,0-1.6,0v1.6H44.8a.8.8,0,1,0,0,1.6h5.606a6.616,6.616,0,0,1-1.346,4.261c-.088.1-.192.168-.288.256a4.725,4.725,0,0,1-1.354-2.331.8.8,0,0,0-1.546.424,6.608,6.608,0,0,0,1.442,2.731,5.879,5.879,0,0,1-1.714.264.8.8,0,0,0,0,1.6,6.776,6.776,0,0,0,3.2-.729,6.808,6.808,0,0,0,3.2.729.8.8,0,0,0,0-1.6,5.607,5.607,0,0,1-1.746-.256A8.009,8.009,0,0,0,52.009,13h.8a.8.8,0,1,0,0-1.6Z" transform="translate(-8.562 -1.792)"/></g></svg>