<svg xmlns="http://www.w3.org/2000/svg" width="48.609" height="48.609" viewBox="0 0 48.609 48.609"><defs><style>.a{fill:#fff;}</style></defs><g transform="translate(-1 -1)"><path class="a" d="M19,45h1.568v1.568H19Z" transform="translate(-3.888 -9.503)"/><path class="a" d="M23,45h1.568v1.568H23Z" transform="translate(-4.752 -9.503)"/><path class="a" d="M15,45h1.568v1.568H15Z" transform="translate(-3.024 -9.503)"/><path class="a" d="M45.689,7.272H23.154A11.756,11.756,0,1,0,7.272,23.154V36.281a3.925,3.925,0,0,0,3.92,3.92H22.139a4.475,4.475,0,0,1-1.8,3.136H18.248a3.925,3.925,0,0,0-3.92,3.92,2.355,2.355,0,0,0,2.352,2.352H40.2a2.355,2.355,0,0,0,2.352-2.352,3.925,3.925,0,0,0-3.92-3.92h-2.09a4.475,4.475,0,0,1-1.8-3.136H45.689a3.925,3.925,0,0,0,3.92-3.92V11.192A3.925,3.925,0,0,0,45.689,7.272ZM11.976,24.48c.26.017.519.04.784.04a11.737,11.737,0,0,0,9.386-4.7h5.51V13.544H24.48c.017-.26.04-.519.04-.784s-.023-.524-.04-.784H44.9V32.361H11.976ZM17.159,7.253a7.085,7.085,0,0,0-.993-.667l1.2-2.9a10.262,10.262,0,0,1,2.014,1.347ZM14.718,5.986a6.994,6.994,0,0,0-1.174-.236V2.608a10.121,10.121,0,0,1,2.379.469ZM11.976,5.75a7.022,7.022,0,0,0-3.615,1.5L6.138,5.029a10.134,10.134,0,0,1,5.839-2.421Zm.784,1.522A5.488,5.488,0,1,1,7.272,12.76,5.5,5.5,0,0,1,12.76,7.272Zm7.731-1.134a10.2,10.2,0,0,1,1.347,2.014l-2.9,1.2a7.153,7.153,0,0,0-.667-.993Zm2.421,5.839H19.77a6.993,6.993,0,0,0-.236-1.174L22.444,9.6A10.082,10.082,0,0,1,22.912,11.976ZM19.77,13.544h3.142a10.121,10.121,0,0,1-.469,2.379l-2.909-1.205A6.994,6.994,0,0,0,19.77,13.544Zm4.514,1.568h1.8v3.136H23.154A11.681,11.681,0,0,0,24.284,15.112ZM2.568,12.76A10.135,10.135,0,0,1,5.029,6.138L7.253,8.361a7.051,7.051,0,1,0,11.683,7.806l2.9,1.2A10.185,10.185,0,0,1,2.568,12.76Zm38.417,34.5a.784.784,0,0,1-.784.784H16.68a.784.784,0,0,1-.784-.784A2.355,2.355,0,0,1,18.248,44.9H38.633A2.355,2.355,0,0,1,40.985,47.257Zm-6.641-3.92H22.538a6.035,6.035,0,0,0,1.17-3.136h9.467a6.04,6.04,0,0,0,1.169,3.136Zm13.7-7.056a2.355,2.355,0,0,1-2.352,2.352h-34.5A2.355,2.355,0,0,1,8.84,36.281V23.834a11.6,11.6,0,0,0,1.568.449v8.077a1.57,1.57,0,0,0,1.568,1.568H44.9a1.57,1.57,0,0,0,1.568-1.568V11.976A1.57,1.57,0,0,0,44.9,10.408H24.284a11.6,11.6,0,0,0-.449-1.568H45.689a2.355,2.355,0,0,1,2.352,2.352Z"/><path class="a" d="M47,23.272h6.272V17H47Zm1.568-4.7H51.7V21.7H48.568Z" transform="translate(-9.935 -3.456)"/><path class="a" d="M43.272,17H37v6.272h6.272ZM41.7,21.7H38.568V18.568H41.7Z" transform="translate(-7.775 -3.456)"/><path class="a" d="M27.192,33h-4.7v1.568H17v1.568h5.488V37.7h4.7V36.136h19.6V34.568h-19.6Zm-1.568,3.136H24.056V34.568h1.568Z" transform="translate(-3.456 -6.912)"/><path class="a" d="M37,27H51.112v1.568H37Z" transform="translate(-7.775 -5.616)"/><path class="a" d="M37,31h1.568v1.568H37Z" transform="translate(-7.775 -6.48)"/><path class="a" d="M41,31H51.976v1.568H41Z" transform="translate(-8.639 -6.48)"/></g></svg>