<svg xmlns="http://www.w3.org/2000/svg" width="48.199" height="44.182" viewBox="0 0 48.199 44.182"><defs><style>.a{fill:#fff;}</style></defs><path class="a" d="M14.46,46.69V27.41A2.41,2.41,0,0,0,12.05,25H2.41A2.41,2.41,0,0,0,0,27.41V46.69A2.41,2.41,0,0,0,2.41,49.1h9.64A2.41,2.41,0,0,0,14.46,46.69ZM1.607,31.427H12.853V42.673H1.607Zm.8-4.82h9.64a.8.8,0,0,1,.8.8v2.41H1.607V27.41A.8.8,0,0,1,2.41,26.607Zm-.8,20.083V44.28H12.853v2.41a.8.8,0,0,1-.8.8H2.41A.8.8,0,0,1,1.607,46.69Z" transform="translate(0 -4.917)"/><path class="a" d="M49.723,0H22.41A2.41,2.41,0,0,0,20,2.41V22.493a2.41,2.41,0,0,0,2.41,2.41h10.4a6.3,6.3,0,0,1-1.165,3.254,2.41,2.41,0,0,0,.408,4.779h8.033a2.41,2.41,0,0,0,.409-4.779A6.293,6.293,0,0,1,39.326,24.9h10.4a2.41,2.41,0,0,0,2.41-2.41V2.41A2.41,2.41,0,0,0,49.723,0ZM22.41,1.607H49.723a.8.8,0,0,1,.8.8V18.476H21.607V2.41A.8.8,0,0,1,22.41,1.607ZM40.083,31.329H32.05a.8.8,0,1,1,0-1.607h8.033a.8.8,0,1,1,0,1.607Zm-1.5-3.213H33.549a8.568,8.568,0,0,0,.88-3.213H37.7A8.568,8.568,0,0,0,38.584,28.116ZM49.723,23.3H22.41a.8.8,0,0,1-.8-.8v-2.41H50.526v2.41A.8.8,0,0,1,49.723,23.3Z" transform="translate(-3.934 0)"/><ellipse class="a" cx="0.5" cy="1" rx="0.5" ry="1" transform="translate(32 20.916)"/><path class="a" d="M7.8,29.607H9.41A.8.8,0,1,0,9.41,28H7.8a.8.8,0,1,0,0,1.607Z" transform="translate(-1.377 -5.507)"/><circle class="a" cx="0.5" cy="0.5" r="0.5" transform="translate(7 40.916)"/><path class="a" d="M10.662,35.238,5.607,40.293V37.412a.8.8,0,0,0-1.607,0v4.82a.806.806,0,0,0,.8.8h4.82a.8.8,0,1,0,0-1.607H6.743L11.8,36.374a.8.8,0,0,0-1.136-1.136Z" transform="translate(-0.787 -6.886)"/><path class="a" d="M46.8,12.033a.8.8,0,0,0,.568-.235l5.055-5.055V9.623a.8.8,0,0,0,1.607,0V4.8a.806.806,0,0,0-.8-.8H48.41a.8.8,0,1,0,0,1.607h2.881l-5.055,5.055a.8.8,0,0,0,.568,1.371Z" transform="translate(-9.047 -0.787)"/><path class="a" d="M.8,4.017a.8.8,0,0,0,.8-.8V1.607H3.213A.8.8,0,0,0,3.213,0H.8A.8.8,0,0,0,0,.8v2.41A.8.8,0,0,0,.8,4.017Z"/><path class="a" d="M58.213,50a.8.8,0,0,0-.8.8V52.41H55.8a.8.8,0,1,0,0,1.607h2.41a.8.8,0,0,0,.8-.8V50.8A.8.8,0,0,0,58.213,50Z" transform="translate(-10.818 -9.834)"/><path class="a" d="M.8,10.213a.8.8,0,0,0,.8-.8V7.8A.8.8,0,0,0,0,7.8V9.41A.8.8,0,0,0,.8,10.213Z" transform="translate(0 -1.377)"/><path class="a" d="M.8,16.213a.8.8,0,0,0,.8-.8V13.8A.8.8,0,0,0,0,13.8V15.41A.8.8,0,0,0,.8,16.213Z" transform="translate(0 -2.557)"/><path class="a" d="M.8,22.213a.8.8,0,0,0,.8-.8V19.8A.8.8,0,0,0,0,19.8V21.41A.8.8,0,0,0,.8,22.213Z" transform="translate(0 -3.737)"/><path class="a" d="M9.41,1.607A.8.8,0,0,0,9.41,0H7.8a.8.8,0,0,0,0,1.607Z" transform="translate(-1.377)"/><path class="a" d="M15.41,1.607A.8.8,0,0,0,15.41,0H13.8a.8.8,0,0,0,0,1.607Z" transform="translate(-2.557)"/><path class="a" d="M51.41,53H49.8a.8.8,0,0,0,0,1.607H51.41a.8.8,0,1,0,0-1.607Z" transform="translate(-9.638 -10.424)"/><path class="a" d="M45.41,54.607a.8.8,0,1,0,0-1.607H43.8a.8.8,0,0,0,0,1.607Z" transform="translate(-8.457 -10.424)"/><path class="a" d="M39.41,54.607a.8.8,0,1,0,0-1.607H37.8a.8.8,0,1,0,0,1.607Z" transform="translate(-7.277 -10.424)"/><path class="a" d="M33.41,54.607a.8.8,0,1,0,0-1.607H31.8a.8.8,0,1,0,0,1.607Z" transform="translate(-6.097 -10.424)"/><path class="a" d="M27.41,54.607a.8.8,0,0,0,0-1.607H25.8a.8.8,0,1,0,0,1.607Z" transform="translate(-4.917 -10.424)"/><path class="a" d="M21.41,54.607a.8.8,0,1,0,0-1.607H19.8a.8.8,0,1,0,0,1.607Z" transform="translate(-3.737 -10.424)"/><path class="a" d="M58.8,44a.8.8,0,0,0-.8.8V46.41a.8.8,0,0,0,1.607,0V44.8A.8.8,0,0,0,58.8,44Z" transform="translate(-11.408 -8.654)"/><path class="a" d="M58.8,38a.8.8,0,0,0-.8.8V40.41a.8.8,0,0,0,1.607,0V38.8A.8.8,0,0,0,58.8,38Z" transform="translate(-11.408 -7.474)"/><path class="a" d="M58.8,32a.8.8,0,0,0-.8.8V34.41a.8.8,0,0,0,1.607,0V32.8A.8.8,0,0,0,58.8,32Z" transform="translate(-11.408 -6.294)"/><path class="a" d="M24.8,5.607h.8a.8.8,0,0,0,0-1.607h-.8a.8.8,0,0,0,0,1.607Z" transform="translate(-4.72 -0.787)"/><path class="a" d="M29.8,5.607H36.23A.8.8,0,1,0,36.23,4H29.8a.8.8,0,1,0,0,1.607Z" transform="translate(-5.704 -0.787)"/></svg>