<svg xmlns="http://www.w3.org/2000/svg" width="47.925" height="48.498" viewBox="0 0 47.925 48.498"><defs><style>.a{fill:#fff;}</style></defs><g transform="translate(-0.435 -0.15)"><g transform="translate(0.435 0.15)"><path class="a" d="M48.264,46.476,45.4,38.429a.494.494,0,0,0-.041-.1L40.744,25.416a1.621,1.621,0,0,0-1.523-1.078H35.979a25.979,25.979,0,0,0,2.188-10.413,13.775,13.775,0,1,0-27.551,0,26.092,26.092,0,0,0,2.2,10.413H9.579a1.621,1.621,0,0,0-1.531,1.078L2.125,41.986a.405.405,0,0,0,0,.105L.52,46.467a1.621,1.621,0,0,0-.073.713v.194a1.621,1.621,0,0,0,1.621,1.272H46.74a1.621,1.621,0,0,0,1.523-2.172ZM20.462,39.5l17.446,7.528H32.43L16.337,40.074a.81.81,0,0,0-.648,0l-13.176,5.7.972-2.8,5.672-2.431a.81.81,0,0,0,0-1.491L5.487,37.433l.737-2.05,7.082,3.063a.924.924,0,0,0,.324.065.891.891,0,0,0,.324-.065l6.936-3c.7.656,1.329,1.175,1.831,1.572l-2.236.964a.81.81,0,0,0,0,1.491Zm-15.517-.51,1.848.81L4.248,40.876Zm23.4,8.038H3.7L16.013,41.7ZM8.761,28.235l8.913,3.849c.664.81,1.329,1.523,1.961,2.164l-6,2.593L6.743,33.875ZM32.374,30.5l7.341-3.168.729,2.05L37.2,30.772a.81.81,0,0,0,0,1.491l5.016,2.164,1,2.8L33.1,32.846a.81.81,0,0,0-.648,0l-3.3,1.418a34.382,34.382,0,0,0,3.217-3.76ZM41.5,32.336l-1.9-.81,1.394-.6Zm-2.674-6.377-4.765,2.058a22.472,22.472,0,0,0,1.134-2.058ZM13.315,8.885a12.155,12.155,0,0,1,23.232,5.04,25.306,25.306,0,0,1-4.052,13.5l-.211.332-.1.138a34.033,34.033,0,0,1-7.8,8.411,30.435,30.435,0,0,1-2.779-2.374A33.936,33.936,0,0,1,16.564,27.9l-.089-.138c-.065-.105-.138-.211-.219-.357a25.225,25.225,0,0,1-4.019-13.484,12.155,12.155,0,0,1,1.078-5.04Zm.267,17.073c.389.762.81,1.523,1.272,2.277.081.146.178.284.267.421l.081.122c.146.235.308.454.454.681L9.3,26.7l.267-.745Zm28.41,21.068L22.836,38.753l1.5-.648h.057a.81.81,0,0,0,.454-.138l.316-.227L32.779,34.5l11.215,4.862,2.747,7.666Z" transform="translate(-0.435 -0.15)"/><path class="a" d="M22.621,28.878H33.965a1.621,1.621,0,0,0,1.621-1.621V8.621A1.621,1.621,0,0,0,33.965,7H22.621A1.621,1.621,0,0,0,21,8.621V27.258A1.621,1.621,0,0,0,22.621,28.878Zm4.862-1.621V24.017H29.1v3.241ZM22.621,8.621H33.965V27.258H30.724V24.017A1.621,1.621,0,0,0,29.1,22.4H27.483a1.621,1.621,0,0,0-1.621,1.621v3.241H22.621Z" transform="translate(-4.336 -1.449)"/><path class="a" d="M25.81,12.621h1.621a.81.81,0,1,0,0-1.621H25.81a.81.81,0,1,0,0,1.621Z" transform="translate(-5.095 -2.208)"/><path class="a" d="M31.81,12.621h1.621a.81.81,0,1,0,0-1.621H31.81a.81.81,0,0,0,0,1.621Z" transform="translate(-6.233 -2.208)"/><path class="a" d="M25.81,16.621h1.621a.81.81,0,1,0,0-1.621H25.81a.81.81,0,1,0,0,1.621Z" transform="translate(-5.095 -2.967)"/><path class="a" d="M31.81,16.621h1.621a.81.81,0,1,0,0-1.621H31.81a.81.81,0,0,0,0,1.621Z" transform="translate(-6.233 -2.967)"/><path class="a" d="M25.81,20.621h1.621a.81.81,0,1,0,0-1.621H25.81a.81.81,0,1,0,0,1.621Z" transform="translate(-5.095 -3.726)"/><path class="a" d="M31.81,20.621h1.621a.81.81,0,1,0,0-1.621H31.81a.81.81,0,0,0,0,1.621Z" transform="translate(-6.233 -3.726)"/><path class="a" d="M27.431,24.621a.81.81,0,1,0,0-1.621H25.81a.81.81,0,1,0,0,1.621Z" transform="translate(-5.095 -4.484)"/><path class="a" d="M31.81,24.621h1.621a.81.81,0,1,0,0-1.621H31.81a.81.81,0,1,0,0,1.621Z" transform="translate(-6.233 -4.484)"/></g></g></svg>